G04 Created by reaConverter (www.reaconverter.com)*
%FSLAX44Y44*%
%MOIN*%
%ADD10C,0.001*%
%LNEXPORT*%
D02*
D10*
%LPD*%
G36*
X57133Y74967D02*
Y74933D01*
X57167D01*
Y41867D01*
X26500D01*
Y74967D01*
X57133D01*
G37*
%LPC*%
G36*
X57067Y74867D02*
X26567D01*
Y41967D01*
X57067D01*
Y74867D01*
G37*
%LPD*%
G36*
X56567Y74367D02*
Y64133D01*
X56400Y64200D01*
X52200Y68433D01*
X32833D01*
X32867Y67933D01*
X32900D01*
X32867Y67433D01*
X32733Y67333D01*
X32400Y67367D01*
X32333Y67467D01*
X31467Y67433D01*
X27433Y63400D01*
X27467Y58133D01*
X27500D01*
X29767Y55833D01*
X32000D01*
X32133Y55733D01*
X32167Y54633D01*
X32200D01*
X32300Y54500D01*
X32267Y54067D01*
X32000Y53900D01*
X31667Y53967D01*
X31567Y54100D01*
X30233Y54067D01*
X30100Y53933D01*
X29733D01*
X29567Y54100D01*
X28833Y54067D01*
X28700Y53933D01*
X28333D01*
X28167Y54100D01*
X27633D01*
X27667Y51200D01*
X27700D01*
Y50800D01*
X27633Y50767D01*
Y48267D01*
X28900D01*
X28967Y48567D01*
X29200Y48733D01*
X29433D01*
X29700Y48500D01*
X29733Y48267D01*
X31933D01*
Y48367D01*
X31733Y48500D01*
Y48900D01*
X31933Y49100D01*
X32300D01*
X32500Y48900D01*
X32467Y48467D01*
X32333Y48367D01*
Y46533D01*
X32867Y46567D01*
X32933Y46633D01*
X33300D01*
X33467Y46433D01*
X33433Y46133D01*
X33400Y45733D01*
X35500Y45767D01*
X35567Y45933D01*
X35833Y46067D01*
X36067D01*
X36367Y45867D01*
X36400Y45733D01*
X37033D01*
X39433Y43333D01*
X43600Y43367D01*
X43700Y43467D01*
Y45500D01*
X42400D01*
Y47733D01*
X41300D01*
Y47933D01*
X42400D01*
Y48033D01*
X43067D01*
Y49067D01*
X43233D01*
Y48033D01*
X44633D01*
Y49433D01*
X44833Y49600D01*
Y50033D01*
X45000Y50200D01*
X45400D01*
X45600Y50000D01*
X45567Y49567D01*
X45400Y49433D01*
X44967Y49400D01*
X44800Y49233D01*
X44833Y45500D01*
X44500D01*
Y44400D01*
X44333D01*
Y45500D01*
X43867D01*
X43900Y43400D01*
X43933D01*
X43967Y43333D01*
X51067D01*
X51100Y51467D01*
X51700Y52033D01*
X52867Y52067D01*
X54000Y53200D01*
X54033Y53533D01*
X54200Y53700D01*
X54600D01*
X54800Y53500D01*
X54767Y53067D01*
X54633Y53000D01*
X54667Y52267D01*
X54700D01*
X56400Y50567D01*
X56433Y47933D01*
X56500D01*
X56600Y47800D01*
X56567Y47367D01*
X56433Y47300D01*
Y42400D01*
X50300Y42367D01*
X50033Y42300D01*
X49867Y42400D01*
X27033D01*
X27000Y50767D01*
X26900Y50900D01*
X26933Y51200D01*
X27033Y51300D01*
X27067Y63667D01*
X31300Y67900D01*
X32333Y67933D01*
X32433Y68033D01*
Y68433D01*
X31300Y68400D01*
X27100Y64233D01*
X27067Y74367D01*
X56567D01*
G37*
%LPC*%
G36*
X50167Y42867D02*
X50000Y42833D01*
Y42600D01*
X50033D01*
X50167Y42567D01*
X50233Y42800D01*
X50167Y42867D01*
G37*
%LPC*%
G36*
X55633Y44100D02*
X55267Y44067D01*
X54967Y43800D01*
X54900Y43433D01*
X54933D01*
X55000Y43200D01*
X55033D01*
X55200Y43000D01*
X55267D01*
X55367Y42933D01*
X55733Y42967D01*
X56033Y43233D01*
X56100Y43600D01*
X55900Y43967D01*
X55633Y44100D01*
G37*
%LPC*%
G36*
X28267Y44100D02*
X27867Y44067D01*
X27567Y43767D01*
Y43267D01*
X27600D01*
X27833Y43000D01*
X27900D01*
X28233Y42933D01*
X28567Y43133D01*
X28700Y43367D01*
X28667Y43767D01*
X28367Y44067D01*
X28267Y44100D01*
G37*
%LPD*%
G36*
X45933Y45733D02*
Y45533D01*
X45133D01*
Y45733D01*
X45933D01*
G37*
%LPC*%
G36*
X36000Y45433D02*
X35833Y45400D01*
X35767Y45167D01*
X35800D01*
X35833Y45067D01*
X36067Y45100D01*
X36133Y45300D01*
X36000Y45433D01*
G37*
%LPC*%
G36*
X31300Y45433D02*
X31067Y45367D01*
Y45133D01*
X31100D01*
X31133Y45067D01*
X31367Y45100D01*
Y45367D01*
X31300Y45433D01*
G37*
%LPD*%
G36*
X50200Y48433D02*
X50433Y48300D01*
X50500Y48200D01*
X50467Y47767D01*
X50267Y47633D01*
X50300Y45067D01*
X50333D01*
X50500Y44900D01*
X50467Y44467D01*
X50300Y44333D01*
X49900D01*
X49700Y44533D01*
Y44600D01*
X46433Y44567D01*
X45800Y43900D01*
X44200Y43933D01*
X44000Y44167D01*
Y45200D01*
X44167D01*
X44200Y44267D01*
X44233D01*
X44333Y44133D01*
X45700Y44167D01*
X46367Y44833D01*
X49700D01*
X49800Y45033D01*
X49967Y45100D01*
Y47633D01*
X49733Y47767D01*
Y48233D01*
X49900Y48400D01*
X50200Y48433D01*
G37*
%LPC*%
G36*
X50167Y44867D02*
X50000Y44833D01*
Y44600D01*
X50033D01*
X50167Y44567D01*
X50233Y44800D01*
X50167Y44867D01*
G37*
%LPD*%
G36*
X44800Y45200D02*
Y44400D01*
X44633D01*
Y45200D01*
X44800D01*
G37*
%LPD*%
G36*
X43533Y45200D02*
Y44400D01*
X43367D01*
Y45200D01*
X43533D01*
G37*
%LPD*%
G36*
X42100Y46667D02*
Y46500D01*
X41300D01*
Y46667D01*
X42100D01*
G37*
%LPD*%
G36*
X41000Y54733D02*
X41267Y54567D01*
Y54067D01*
X41033Y53933D01*
X41000Y52600D01*
X39333Y50967D01*
Y46900D01*
X39400D01*
X39600Y46700D01*
X39567Y46267D01*
X39300Y46100D01*
X38967Y46167D01*
X38833Y46300D01*
Y46733D01*
X39000Y46900D01*
X39100D01*
X39133Y51133D01*
X40800Y52767D01*
Y53933D01*
X40600Y54000D01*
X40500Y54200D01*
X40567Y54567D01*
X40700Y54700D01*
X41000Y54733D01*
G37*
%LPC*%
G36*
X39267Y46667D02*
X39100Y46633D01*
Y46400D01*
X39167D01*
X39267Y46367D01*
X39367Y46567D01*
X39267Y46667D01*
G37*
%LPD*%
G36*
X40700Y46933D02*
X40967Y46767D01*
Y46267D01*
X40733Y46133D01*
X41067Y45733D01*
X42100D01*
Y45533D01*
X40867Y45567D01*
X40500Y45933D01*
Y46133D01*
X40300Y46200D01*
X40200Y46400D01*
X40267Y46767D01*
X40400Y46900D01*
X40700Y46933D01*
G37*
%LPC*%
G36*
X40667Y46667D02*
X40500Y46633D01*
Y46400D01*
X40533D01*
X40667Y46367D01*
X40767Y46567D01*
X40667Y46667D01*
G37*
%LPD*%
G36*
X37433Y51033D02*
X37700Y50800D01*
X37767Y50700D01*
X37833D01*
X38233Y50267D01*
X38200Y49000D01*
X35367Y46200D01*
X34367Y46167D01*
X34267Y46033D01*
X33833D01*
X33700Y46167D01*
X33733Y46533D01*
X33867Y46633D01*
X34233D01*
X34400Y46433D01*
X35300Y46467D01*
X38000Y49167D01*
X37967Y50200D01*
X37667Y50433D01*
X37500Y50233D01*
X37133D01*
X36933Y50400D01*
Y50833D01*
X37100Y51000D01*
X37433Y51033D01*
G37*
%LPC*%
G36*
X34100Y46467D02*
X33933Y46433D01*
Y46233D01*
X33967D01*
X34133Y46200D01*
X34167Y46367D01*
X34100Y46467D01*
G37*
%LPC*%
G36*
X33167Y46467D02*
X33000Y46433D01*
Y46233D01*
X33033D01*
X33200Y46200D01*
Y46433D01*
X33167Y46467D01*
G37*
%LPD*%
G36*
X42100Y46367D02*
Y46167D01*
X41300D01*
Y46367D01*
X42100D01*
G37*
%LPD*%
G36*
X45933Y46033D02*
Y45867D01*
X45133D01*
Y46033D01*
X45933D01*
G37*
%LPD*%
G36*
X42100Y46033D02*
Y45867D01*
X41300D01*
Y46033D01*
X42100D01*
G37*
%LPD*%
G36*
X38633Y48033D02*
X38900Y47800D01*
X38867Y47367D01*
X38633Y47233D01*
X38667Y46033D01*
X38700D01*
X40467Y44233D01*
X42633Y44267D01*
X42733Y44367D01*
Y45200D01*
X42900D01*
Y44233D01*
X42700Y44000D01*
X40300Y44033D01*
X38400Y45933D01*
Y47233D01*
X38167Y47367D01*
X38100Y47733D01*
X38300Y48000D01*
X38633Y48033D01*
G37*
%LPC*%
G36*
X38567Y47767D02*
X38400Y47733D01*
Y47500D01*
X38467D01*
X38567Y47467D01*
X38667Y47667D01*
X38567Y47767D01*
G37*
%LPC*%
G36*
X56267Y47767D02*
X56100Y47733D01*
Y47500D01*
X56133D01*
X56267Y47467D01*
X56333Y47700D01*
X56267Y47767D01*
G37*
%LPD*%
G36*
X51000Y67500D02*
X51167Y67333D01*
X52700D01*
X56633Y63400D01*
Y61633D01*
X56700D01*
X56800Y61500D01*
X56767Y61067D01*
X56633Y61000D01*
Y55533D01*
X56700D01*
X56800Y55400D01*
X56767Y54967D01*
X56633Y54900D01*
Y53333D01*
X56700D01*
X56800Y53200D01*
X56767Y52767D01*
X56600Y52633D01*
X56200D01*
X56000Y52833D01*
X56033Y53233D01*
X56200Y53367D01*
Y53900D01*
X53433Y53867D01*
X52800Y53233D01*
X52700Y53000D01*
X52433Y52867D01*
X52267Y52700D01*
X51067Y52667D01*
X50500Y52100D01*
X50467Y51767D01*
X50233Y51633D01*
X50200Y50167D01*
X49067Y49067D01*
X49033Y47233D01*
X48233Y46467D01*
X45633Y46500D01*
Y46367D01*
X45933D01*
Y46167D01*
X45133D01*
Y46367D01*
X45467D01*
Y46500D01*
X45133D01*
Y46667D01*
X48167Y46733D01*
X48867Y47433D01*
X48900Y49233D01*
X50000Y50300D01*
Y51633D01*
X49767Y51733D01*
X49700Y51833D01*
Y52200D01*
X44667Y52167D01*
X44133Y51600D01*
X42633Y51567D01*
X42500Y51433D01*
X42100D01*
X41933Y51600D01*
Y51700D01*
X41533Y51667D01*
X40733Y50867D01*
Y48733D01*
X41500Y48767D01*
X42467Y49733D01*
X43267D01*
X43567Y49467D01*
X43533Y48267D01*
X43367D01*
Y49333D01*
X43167Y49500D01*
X42533Y49467D01*
X41600Y48500D01*
X40733D01*
Y48000D01*
X40800D01*
X41000Y47800D01*
X40967Y47367D01*
X40800Y47233D01*
X40400D01*
X40233Y47400D01*
Y47833D01*
X40400Y48000D01*
X40500D01*
X40533Y51033D01*
X41467Y51933D01*
X41933D01*
X42000Y52100D01*
X42200Y52233D01*
X42400D01*
X42667Y52033D01*
X43967Y52067D01*
X45033Y53133D01*
X51667Y53167D01*
X52833Y54333D01*
X56200D01*
X56167Y54900D01*
X56000Y55033D01*
X56033Y55433D01*
X56200Y55567D01*
X56167Y61000D01*
X56000Y61133D01*
X56033Y61533D01*
X56200Y61667D01*
X56167Y63267D01*
X52533Y66900D01*
X51167D01*
X51033Y66733D01*
X50700Y66767D01*
X50600Y66900D01*
X50633Y67367D01*
X50800Y67500D01*
X51000D01*
G37*
%LPC*%
G36*
X40667Y47767D02*
X40500Y47733D01*
Y47500D01*
X40533D01*
X40667Y47467D01*
X40767Y47667D01*
X40667Y47767D01*
G37*
%LPD*%
G36*
X42100Y47633D02*
Y47433D01*
X41300D01*
Y47633D01*
X42100D01*
G37*
%LPD*%
G36*
X42100Y47300D02*
Y47100D01*
X41300D01*
Y47300D01*
X42100D01*
G37*
%LPD*%
G36*
X37433Y49833D02*
X37700Y49600D01*
X37667Y49167D01*
X37400Y49000D01*
X37067D01*
X35100Y47000D01*
X34367Y46967D01*
X34267Y46833D01*
X33833D01*
X33700Y46967D01*
X33733Y47300D01*
X33900Y47433D01*
X34200D01*
X34400Y47233D01*
X35033Y47267D01*
X36933Y49167D01*
Y49633D01*
X37100Y49800D01*
X37433Y49833D01*
G37*
%LPC*%
G36*
X34067Y47267D02*
X33900Y47133D01*
X33967Y47000D01*
X34167Y47033D01*
Y47200D01*
X34067Y47267D01*
G37*
%LPD*%
G36*
X29433Y51433D02*
X29700Y51200D01*
Y50800D01*
X29533Y50667D01*
Y50433D01*
X31300Y50467D01*
X31500Y50633D01*
X31733D01*
X31967Y50433D01*
X32700D01*
X33333Y49833D01*
X33367Y47333D01*
X33400D01*
X33467Y47000D01*
X33333Y46833D01*
X32900D01*
X32767Y46967D01*
X32800Y47300D01*
X32933Y47400D01*
X32900Y49633D01*
X32533Y50000D01*
X31933Y49967D01*
X31800Y49833D01*
X31433D01*
X31267Y50000D01*
X29533D01*
X29567Y49633D01*
X29600D01*
X29733Y49433D01*
X29667Y49067D01*
X29400Y48900D01*
X29067Y48967D01*
X28933Y49100D01*
Y49500D01*
X29133Y49667D01*
Y50667D01*
X28933Y50800D01*
Y51200D01*
X29133Y51400D01*
X29433Y51433D01*
G37*
%LPC*%
G36*
X33133Y47267D02*
X32967Y47133D01*
X33033Y47000D01*
X33233Y47033D01*
X33200Y47233D01*
X33133Y47267D01*
G37*
%LPD*%
G36*
X42100Y47000D02*
Y46800D01*
X41300D01*
Y47000D01*
X42100D01*
G37*
%LPD*%
G36*
X38033Y52233D02*
X38300Y52000D01*
X38267Y51567D01*
X38000Y51400D01*
X37667Y51467D01*
X37567Y51600D01*
X37267Y51567D01*
X36000Y50300D01*
X35967Y49967D01*
X35700Y49800D01*
X35467Y49767D01*
X34500Y48767D01*
X34467Y48467D01*
X34200Y48300D01*
X33867Y48367D01*
X33733Y48500D01*
Y48900D01*
X33933Y49100D01*
X34300Y49167D01*
X35200Y50067D01*
X35233Y50400D01*
X35433Y50600D01*
X35767Y50667D01*
X37133Y52033D01*
X37600Y52067D01*
X37700Y52200D01*
X38033Y52233D01*
G37*
%LPC*%
G36*
X34167Y48867D02*
X34000Y48833D01*
Y48600D01*
X34067D01*
X34167Y48567D01*
X34267Y48767D01*
X34167Y48867D01*
G37*
%LPC*%
G36*
X32167Y48867D02*
X32000Y48833D01*
Y48600D01*
X32067D01*
X32167Y48567D01*
X32267Y48767D01*
X32167Y48867D01*
G37*
%LPC*%
G36*
X29367Y48467D02*
X29200Y48400D01*
Y48200D01*
X29267D01*
X29367Y48167D01*
X29467Y48367D01*
X29367Y48467D01*
G37*
%LPC*%
G36*
X50167Y48167D02*
X50000Y48133D01*
Y47900D01*
X50033D01*
X50167Y47867D01*
X50233Y48100D01*
X50167Y48167D01*
G37*
%LPD*%
G36*
X47300Y50233D02*
X47533Y50100D01*
X47600Y50000D01*
X47567Y49567D01*
X47333Y49433D01*
X47300Y47500D01*
X46900Y47133D01*
X45133Y47100D01*
Y47300D01*
X46833Y47367D01*
X47100Y47633D01*
Y49433D01*
X46900Y49500D01*
X46800Y49700D01*
X46867Y50067D01*
X47000Y50200D01*
X47300Y50233D01*
G37*
%LPC*%
G36*
X47267Y49967D02*
X47100Y49933D01*
Y49700D01*
X47133D01*
X47267Y49667D01*
X47367Y49833D01*
X47267Y49967D01*
G37*
%LPC*%
G36*
X45267Y49967D02*
X45100Y49933D01*
Y49700D01*
X45133D01*
X45267Y49667D01*
X45367Y49833D01*
X45267Y49967D01*
G37*
%LPC*%
G36*
X37367Y49567D02*
X37200Y49533D01*
Y49300D01*
X37267D01*
X37367Y49267D01*
X37467Y49467D01*
X37367Y49567D01*
G37*
%LPD*%
G36*
X45767Y50733D02*
X46133Y50367D01*
X46100Y49000D01*
X45633Y48567D01*
Y47933D01*
X45933D01*
Y47733D01*
X45133D01*
Y47933D01*
X45467D01*
Y48767D01*
X45900Y49167D01*
X45867Y50300D01*
X45667Y50500D01*
X44933Y50467D01*
X44800Y50300D01*
X42333Y50267D01*
X41700Y49633D01*
X41667Y49167D01*
X41500Y49033D01*
X41100D01*
X40933Y49200D01*
Y49633D01*
X41100Y49800D01*
X41567Y49833D01*
X42267Y50533D01*
X44700Y50567D01*
X44867Y50733D01*
X45767D01*
G37*
%LPC*%
G36*
X41367Y49567D02*
X41200Y49533D01*
Y49300D01*
X41233D01*
X41367Y49267D01*
X41467Y49467D01*
X41367Y49567D01*
G37*
%LPC*%
G36*
X29367Y49467D02*
X29200Y49400D01*
Y49200D01*
X29267D01*
X29367Y49167D01*
X29467Y49367D01*
X29367Y49467D01*
G37*
%LPD*%
G36*
X44500Y49067D02*
Y48267D01*
X44333D01*
Y49067D01*
X44500D01*
G37*
%LPD*%
G36*
X44167Y49067D02*
Y48267D01*
X44000D01*
Y49067D01*
X44167D01*
G37*
%LPD*%
G36*
X43867Y49067D02*
Y48267D01*
X43700D01*
Y49067D01*
X43867D01*
G37*
%LPD*%
G36*
X42900Y49067D02*
Y48267D01*
X42733D01*
Y49067D01*
X42900D01*
G37*
%LPD*%
G36*
X42600Y49067D02*
Y48267D01*
X42433D01*
Y49067D01*
X42600D01*
G37*
%LPC*%
G36*
X37367Y50767D02*
X37200Y50733D01*
Y50500D01*
X37267D01*
X37367Y50467D01*
X37467Y50667D01*
X37367Y50767D01*
G37*
%LPD*%
G36*
X45000Y51833D02*
X45233Y51700D01*
X45300Y51533D01*
X46067D01*
X46533Y51067D01*
X46500Y47600D01*
X46300Y47433D01*
X45133D01*
Y47633D01*
X46233Y47667D01*
X46300Y47733D01*
X46267Y51000D01*
X45967Y51300D01*
X45300D01*
X45200Y51100D01*
X44833Y51000D01*
X44667D01*
X44600Y50900D01*
X41733Y50867D01*
X41667Y50367D01*
X41500Y50233D01*
X41100D01*
X40933Y50400D01*
Y50833D01*
X41100Y51000D01*
X41567Y51033D01*
X41667Y51133D01*
X44500Y51167D01*
X44533Y51633D01*
X44700Y51800D01*
X45000Y51833D01*
G37*
%LPC*%
G36*
X41367Y50767D02*
X41200Y50733D01*
Y50500D01*
X41233D01*
X41367Y50467D01*
X41467Y50667D01*
X41367Y50767D01*
G37*
%LPC*%
G36*
X35667Y50367D02*
X35500Y50333D01*
Y50100D01*
X35567D01*
X35667Y50067D01*
X35767Y50267D01*
X35667Y50367D01*
G37*
%LPC*%
G36*
X31667Y50367D02*
X31500Y50333D01*
Y50100D01*
X31567D01*
X31667Y50067D01*
X31767Y50267D01*
X31667Y50367D01*
G37*
%LPC*%
G36*
X50167Y52167D02*
X50000Y52133D01*
Y51900D01*
X50033D01*
X50167Y51867D01*
X50233Y52100D01*
X50167Y52167D01*
G37*
%LPC*%
G36*
X37967Y51967D02*
X37800Y51933D01*
Y51700D01*
X37867D01*
X37967Y51667D01*
X38067Y51867D01*
X37967Y51967D01*
G37*
%LPC*%
G36*
X42367Y51967D02*
X42200Y51933D01*
Y51700D01*
X42233D01*
X42367Y51667D01*
X42467Y51867D01*
X42367Y51967D01*
G37*
%LPD*%
G36*
X55500Y53433D02*
X55733Y53300D01*
X55800Y53200D01*
X55767Y52767D01*
X55567Y52633D01*
X55600Y52467D01*
X55633D01*
X56100Y52033D01*
X56300D01*
X56533Y51900D01*
X56600Y51800D01*
X56567Y51367D01*
X56400Y51233D01*
X56000D01*
X55800Y51433D01*
X55767Y51833D01*
X55267Y52300D01*
Y52633D01*
X55033Y52767D01*
Y53233D01*
X55200Y53400D01*
X55500Y53433D01*
G37*
%LPC*%
G36*
X56267Y51767D02*
X56100Y51733D01*
Y51500D01*
X56133D01*
X56267Y51467D01*
X56333Y51700D01*
X56267Y51767D01*
G37*
%LPD*%
G36*
X49000Y51833D02*
X49233Y51700D01*
X49300Y51600D01*
X49267Y51167D01*
X49033Y51033D01*
X49000Y50300D01*
X48333Y49667D01*
X48300Y47567D01*
X47500Y46800D01*
X45133D01*
Y47000D01*
X47467Y47033D01*
X48100Y47667D01*
X48133Y49833D01*
X48800Y50467D01*
Y51033D01*
X48567Y51133D01*
X48500Y51233D01*
X48533Y51633D01*
X48700Y51800D01*
X49000Y51833D01*
G37*
%LPC*%
G36*
X48967Y51567D02*
X48800Y51533D01*
Y51300D01*
X48833D01*
X48967Y51267D01*
X49033Y51500D01*
X48967Y51567D01*
G37*
%LPC*%
G36*
X44967Y51567D02*
X44800Y51533D01*
Y51300D01*
X44833D01*
X44967Y51267D01*
X45067Y51433D01*
X44967Y51567D01*
G37*
%LPC*%
G36*
X29367Y51167D02*
X29200Y51100D01*
Y50900D01*
X29267D01*
X29367Y50867D01*
X29467Y51067D01*
X29367Y51167D01*
G37*
%LPC*%
G36*
X27367Y51167D02*
X27200Y51100D01*
Y50900D01*
X27267D01*
X27367Y50867D01*
X27467Y51067D01*
X27367Y51167D01*
G37*
%LPC*%
G36*
X56467Y53167D02*
X56300Y53133D01*
Y52900D01*
X56333D01*
X56467Y52867D01*
X56533Y53100D01*
X56467Y53167D01*
G37*
%LPC*%
G36*
X55467Y53167D02*
X55300Y53133D01*
Y52900D01*
X55333D01*
X55467Y52867D01*
X55533Y53100D01*
X55467Y53167D01*
G37*
%LPD*%
G36*
X55500Y55633D02*
X55733Y55500D01*
X55800Y55400D01*
X55767Y54967D01*
X55600Y54833D01*
X55233Y54800D01*
X54967Y54533D01*
X52633Y54500D01*
X51467Y53333D01*
X44433Y53300D01*
X44300Y53167D01*
X44267Y52767D01*
X44100Y52633D01*
X43700D01*
X43533Y52800D01*
Y53233D01*
X43700Y53400D01*
X44100Y53433D01*
X44300Y53667D01*
X51367Y53700D01*
X52500Y54867D01*
X54867Y54900D01*
X55000Y55033D01*
X55033Y55433D01*
X55200Y55600D01*
X55500Y55633D01*
G37*
%LPC*%
G36*
X43967Y53167D02*
X43800Y53133D01*
Y52900D01*
X43833D01*
X43967Y52867D01*
X44067Y53067D01*
X43967Y53167D01*
G37*
%LPD*%
G36*
X40000Y54733D02*
X40267Y54567D01*
Y54067D01*
X40067Y53933D01*
X40100Y53367D01*
X40167D01*
X40300Y53200D01*
X40267Y52767D01*
X40100Y52633D01*
X39700D01*
X39533Y52800D01*
Y53233D01*
X39767Y53400D01*
Y53933D01*
X39600Y54000D01*
X39500Y54200D01*
X39567Y54567D01*
X39700Y54700D01*
X40000Y54733D01*
G37*
%LPC*%
G36*
X39967Y53167D02*
X39800Y53133D01*
Y52900D01*
X39833D01*
X39967Y52867D01*
X40067Y53067D01*
X39967Y53167D01*
G37*
%LPD*%
G36*
X34033Y54733D02*
X34300Y54500D01*
X34267Y54067D01*
X34100Y53967D01*
Y52667D01*
X34167D01*
X34300Y52433D01*
X35533Y52467D01*
X35900Y52867D01*
X38567D01*
X39033Y52367D01*
X39000Y51400D01*
X38733Y51167D01*
X38700Y48700D01*
X37733Y47767D01*
X37767Y45833D01*
X37800D01*
X39767Y43833D01*
X42833Y43867D01*
X43067Y44100D01*
Y45200D01*
X43233D01*
X43200Y43933D01*
X42900Y43600D01*
X39600Y43633D01*
X37500Y45733D01*
X37533Y47933D01*
X38500Y48867D01*
X38533Y51333D01*
X38800Y51567D01*
X38767Y52300D01*
X38433Y52633D01*
X35967Y52600D01*
X35600Y52200D01*
X34300D01*
X34167Y51967D01*
X33833Y51900D01*
X33100Y51233D01*
X30700Y51267D01*
X30000Y51933D01*
X29733D01*
X29533Y52100D01*
Y52500D01*
X29733Y52700D01*
X30100D01*
X30300Y52500D01*
X30333Y52133D01*
X30367D01*
X30900Y51567D01*
X33000Y51600D01*
X33533Y52200D01*
Y52500D01*
X33767Y52700D01*
X33733Y53967D01*
X33533Y54100D01*
Y54500D01*
X33733Y54700D01*
X34033Y54733D01*
G37*
%LPC*%
G36*
X33967Y52433D02*
X33800Y52400D01*
X33833Y52200D01*
X34000D01*
Y52400D01*
X33967Y52433D01*
G37*
%LPD*%
G36*
X33033Y54733D02*
X33300Y54500D01*
X33267Y54067D01*
X33100Y53967D01*
X33067Y53467D01*
X32700Y53133D01*
X32100D01*
Y52667D01*
X32167D01*
X32300Y52500D01*
X32267Y52067D01*
X32000Y51900D01*
X31667Y51967D01*
X31533Y52100D01*
Y52500D01*
X31767Y52700D01*
Y53133D01*
X28967Y53100D01*
X28700Y52833D01*
Y52667D01*
X28767D01*
X28933Y52433D01*
X28867Y52067D01*
X28600Y51900D01*
X28267Y51967D01*
X28133Y52100D01*
Y52500D01*
X28367Y52700D01*
X28400Y53033D01*
X28833Y53467D01*
X32600Y53500D01*
X32767Y53667D01*
X32733Y53967D01*
X32533Y54100D01*
Y54500D01*
X32733Y54700D01*
X33033Y54733D01*
G37*
%LPC*%
G36*
X31967Y52433D02*
X31800Y52400D01*
X31833Y52200D01*
X32000D01*
Y52400D01*
X31967Y52433D01*
G37*
%LPC*%
G36*
X29967Y52467D02*
X29800Y52400D01*
Y52200D01*
X29867D01*
X29967Y52167D01*
X30067Y52367D01*
X29967Y52467D01*
G37*
%LPC*%
G36*
X28567Y52467D02*
X28400Y52400D01*
Y52200D01*
X28467D01*
X28567Y52167D01*
X28667Y52367D01*
X28567Y52467D01*
G37*
%LPC*%
G36*
X54467Y53467D02*
X54300Y53433D01*
Y53200D01*
X54333D01*
X54467Y53167D01*
X54533Y53400D01*
X54467Y53467D01*
G37*
%LPC*%
G36*
X52467Y53467D02*
X52300Y53433D01*
Y53200D01*
X52333D01*
X52467Y53167D01*
X52533Y53400D01*
X52467Y53467D01*
G37*
%LPC*%
G36*
X56467Y55367D02*
X56300Y55333D01*
Y55100D01*
X56333D01*
X56467Y55067D01*
X56533Y55300D01*
X56467Y55367D01*
G37*
%LPC*%
G36*
X55467Y55367D02*
X55300Y55333D01*
Y55100D01*
X55333D01*
X55467Y55067D01*
X55533Y55300D01*
X55467Y55367D01*
G37*
%LPD*%
G36*
X43700Y56233D02*
X43933Y56100D01*
X44000Y56000D01*
X43967Y55567D01*
X43800Y55433D01*
X43400D01*
X43233Y55600D01*
Y55700D01*
X39533Y55667D01*
X39033Y55167D01*
Y54700D01*
X39100D01*
X39300Y54500D01*
X39267Y54067D01*
X39000Y53900D01*
X38667Y53967D01*
X38533Y54100D01*
Y54533D01*
X38700Y54700D01*
X38800D01*
X38833Y55333D01*
X39467Y55933D01*
X43233D01*
X43300Y56100D01*
X43500Y56233D01*
X43700D01*
G37*
%LPC*%
G36*
X38967Y54467D02*
X38800Y54433D01*
Y54200D01*
X38867D01*
X38967Y54167D01*
X39067Y54367D01*
X38967Y54467D01*
G37*
%LPD*%
G36*
X44500Y57033D02*
X44733Y56900D01*
X44800Y56800D01*
X44767Y56367D01*
X44600Y56233D01*
X44200D01*
X44033Y56400D01*
Y56500D01*
X39333Y56467D01*
X38033Y55167D01*
Y54700D01*
X38100D01*
X38300Y54500D01*
X38267Y54067D01*
X38000Y53900D01*
X37667Y53967D01*
X37533Y54100D01*
Y54533D01*
X37700Y54700D01*
X37800D01*
X37833Y55333D01*
X39267Y56733D01*
X44033D01*
X44100Y56900D01*
X44300Y57033D01*
X44500D01*
G37*
%LPC*%
G36*
X37967Y54467D02*
X37800Y54433D01*
Y54200D01*
X37867D01*
X37967Y54167D01*
X38067Y54367D01*
X37967Y54467D01*
G37*
%LPD*%
G36*
X45300Y57833D02*
X45533Y57700D01*
X45600Y57600D01*
X45567Y57167D01*
X45400Y57033D01*
X45000D01*
X44833Y57200D01*
Y57300D01*
X39133Y57267D01*
X37033Y55167D01*
Y54700D01*
X37100D01*
X37300Y54500D01*
X37267Y54067D01*
X37000Y53900D01*
X36667Y53967D01*
X36533Y54100D01*
Y54533D01*
X36700Y54700D01*
X36800D01*
X36833Y55333D01*
X39067Y57533D01*
X44833D01*
X44900Y57700D01*
X45100Y57833D01*
X45300D01*
G37*
%LPC*%
G36*
X36967Y54467D02*
X36800Y54433D01*
Y54200D01*
X36867D01*
X36967Y54167D01*
X37067Y54367D01*
X36967Y54467D01*
G37*
%LPD*%
G36*
X33867Y68100D02*
X34100Y67900D01*
X34067Y67467D01*
X33900Y67367D01*
X33867Y66567D01*
X33600Y66300D01*
X31633Y66267D01*
X28433Y63067D01*
X28467Y58533D01*
X28500D01*
X30167Y56833D01*
X35200D01*
X36033Y56000D01*
Y54700D01*
X36100D01*
X36300Y54500D01*
X36267Y54067D01*
X36000Y53900D01*
X35667Y53967D01*
X35533Y54100D01*
Y54533D01*
X35700Y54700D01*
X35833Y54733D01*
X35800Y55900D01*
X35100Y56600D01*
X30033Y56633D01*
X28233Y58433D01*
X28267Y63233D01*
X31567Y66533D01*
X33533Y66567D01*
X33700Y66733D01*
X33667Y67367D01*
X33467Y67533D01*
X33500Y67967D01*
X33700Y68100D01*
X33867D01*
G37*
%LPC*%
G36*
X35967Y54467D02*
X35800Y54433D01*
Y54200D01*
X35867D01*
X35967Y54167D01*
X36067Y54367D01*
X35967Y54467D01*
G37*
%LPD*%
G36*
X33300Y67500D02*
X33500Y67300D01*
X33467Y66867D01*
X33333Y66733D01*
X33000Y66767D01*
X31533D01*
X28033Y63267D01*
X28067Y58333D01*
X28100D01*
X29967Y56433D01*
X34600D01*
X35033Y56000D01*
Y54700D01*
X35100D01*
X35300Y54500D01*
X35267Y54067D01*
X35000Y53900D01*
X34667Y53967D01*
X34533Y54100D01*
Y54500D01*
X34733Y54700D01*
X34833Y54733D01*
X34800Y55900D01*
X34500Y56200D01*
X29833Y56233D01*
X27833Y58233D01*
X27867Y63433D01*
X31467Y67033D01*
X32900D01*
X32933Y67367D01*
X33100Y67500D01*
X33300D01*
G37*
%LPC*%
G36*
X34967Y54467D02*
X34800Y54433D01*
Y54200D01*
X34867D01*
X34967Y54167D01*
X35067Y54367D01*
X34967Y54467D01*
G37*
%LPC*%
G36*
X33967Y54467D02*
X33800Y54433D01*
Y54200D01*
X33867D01*
X33967Y54167D01*
X34067Y54367D01*
X33967Y54467D01*
G37*
%LPC*%
G36*
X32967Y54467D02*
X32800Y54433D01*
Y54200D01*
X32867D01*
X32967Y54167D01*
X33067Y54367D01*
X32967Y54467D01*
G37*
%LPC*%
G36*
X31967Y54467D02*
X31800Y54433D01*
Y54200D01*
X31867D01*
X31967Y54167D01*
X32067Y54367D01*
X31967Y54467D01*
G37*
%LPC*%
G36*
X29967Y54467D02*
X29800Y54400D01*
Y54200D01*
X29867D01*
X29967Y54167D01*
X30067Y54367D01*
X29967Y54467D01*
G37*
%LPC*%
G36*
X28567Y54467D02*
X28400Y54400D01*
Y54200D01*
X28467D01*
X28567Y54167D01*
X28667Y54367D01*
X28567Y54467D01*
G37*
%LPD*%
G36*
X48033Y68100D02*
X48267Y67900D01*
X48233Y67467D01*
X48067Y67367D01*
X48100Y66600D01*
X48133D01*
X49467Y65233D01*
X51867D01*
X54633Y62467D01*
X54600Y58400D01*
X51033Y54867D01*
Y54700D01*
X51100D01*
X51300Y54500D01*
X51267Y54067D01*
X51100Y53933D01*
X50700D01*
X50500Y54133D01*
X50533Y54533D01*
X50700Y54700D01*
X50800D01*
X50833Y55033D01*
X54400Y58567D01*
X54367Y62400D01*
X51767Y65000D01*
X49300Y65033D01*
X47867Y66467D01*
X47833Y67367D01*
X47667Y67500D01*
X47700Y68000D01*
X47867Y68100D01*
X48033D01*
G37*
%LPC*%
G36*
X50967Y54467D02*
X50800Y54433D01*
Y54200D01*
X50833D01*
X50967Y54167D01*
X51033Y54400D01*
X50967Y54467D01*
G37*
%LPD*%
G36*
X47467Y67500D02*
X47667Y67333D01*
X47633Y66833D01*
X47500Y66767D01*
X47533Y66567D01*
X47567D01*
X49267Y64833D01*
X51667D01*
X54233Y62267D01*
X54200Y58600D01*
X50600Y55000D01*
X50133Y54967D01*
X50033Y54867D01*
Y54700D01*
X50100D01*
X50300Y54500D01*
X50267Y54067D01*
X50100Y53933D01*
X49700D01*
X49500Y54133D01*
X49533Y54533D01*
X49700Y54700D01*
X49800D01*
X49833Y55033D01*
X50067Y55233D01*
X50500Y55267D01*
X54000Y58767D01*
X53967Y62200D01*
X51567Y64600D01*
X49100Y64633D01*
X47267Y66467D01*
X47233Y66767D01*
X47067Y66900D01*
X47100Y67367D01*
X47267Y67500D01*
X47467D01*
G37*
%LPC*%
G36*
X49967Y54467D02*
X49800Y54433D01*
Y54200D01*
X49833D01*
X49967Y54167D01*
X50033Y54400D01*
X49967Y54467D01*
G37*
%LPD*%
G36*
X46867Y68100D02*
X47067Y67933D01*
X47033Y67433D01*
X46900Y67367D01*
X46933Y66567D01*
X46967D01*
X49067Y64433D01*
X51467D01*
X53833Y62067D01*
X53800Y58800D01*
X50400Y55400D01*
X49533Y55367D01*
X49033Y54867D01*
Y54700D01*
X49100D01*
X49300Y54500D01*
X49267Y54067D01*
X49100Y53933D01*
X48700D01*
X48500Y54133D01*
X48533Y54533D01*
X48700Y54700D01*
X48800D01*
X48833Y55033D01*
X49467Y55633D01*
X50300Y55667D01*
X53600Y58967D01*
X53567Y62000D01*
X51367Y64200D01*
X48900Y64233D01*
X46667Y66467D01*
X46633Y67367D01*
X46467Y67533D01*
X46500Y67967D01*
X46667Y68100D01*
X46867D01*
G37*
%LPC*%
G36*
X48967Y54467D02*
X48800Y54433D01*
Y54200D01*
X48833D01*
X48967Y54167D01*
X49033Y54400D01*
X48967Y54467D01*
G37*
%LPD*%
G36*
X46267Y67500D02*
X46500Y67300D01*
X46467Y66867D01*
X46300Y66767D01*
X46333Y66567D01*
X46367D01*
X48867Y64033D01*
X51267D01*
X53433Y61867D01*
X53400Y59000D01*
X50200Y55800D01*
X48933Y55767D01*
X48033Y54867D01*
Y54700D01*
X48100D01*
X48300Y54500D01*
X48267Y54067D01*
X48100Y53933D01*
X47700D01*
X47533Y54100D01*
Y54533D01*
X47700Y54700D01*
X47800D01*
X47833Y55033D01*
X48867Y56033D01*
X50100Y56067D01*
X53200Y59167D01*
X53167Y61800D01*
X51167Y63800D01*
X48700Y63833D01*
X46100Y66433D01*
X46067Y66767D01*
X45867Y66933D01*
X45900Y67367D01*
X46100Y67500D01*
X46267D01*
G37*
%LPC*%
G36*
X47967Y54467D02*
X47800Y54433D01*
Y54200D01*
X47833D01*
X47967Y54167D01*
X48067Y54333D01*
X47967Y54467D01*
G37*
%LPD*%
G36*
X45667Y68100D02*
X45900Y67900D01*
X45867Y67467D01*
X45700Y67367D01*
X45733Y66567D01*
X45767D01*
X48667Y63633D01*
X51067D01*
X53033Y61667D01*
X53000Y59200D01*
X50000Y56200D01*
X48333Y56167D01*
X47033Y54867D01*
Y54700D01*
X47100D01*
X47300Y54500D01*
X47267Y54067D01*
X47100Y53933D01*
X46700D01*
X46533Y54100D01*
Y54533D01*
X46700Y54700D01*
X46800D01*
X46833Y55033D01*
X48267Y56433D01*
X49900Y56467D01*
X52800Y59367D01*
X52767Y61600D01*
X50967Y63400D01*
X48500Y63433D01*
X45500Y66433D01*
X45467Y67367D01*
X45267Y67533D01*
X45300Y67967D01*
X45500Y68100D01*
X45667D01*
G37*
%LPC*%
G36*
X46967Y54467D02*
X46800Y54433D01*
Y54200D01*
X46833D01*
X46967Y54167D01*
X47067Y54333D01*
X46967Y54467D01*
G37*
%LPD*%
G36*
X45100Y67500D02*
X45300Y67300D01*
X45267Y66867D01*
X45133Y66767D01*
X45167Y66533D01*
X45200D01*
X48467Y63233D01*
X50867D01*
X52633Y61467D01*
X52600Y59400D01*
X49800Y56600D01*
X47733Y56567D01*
X46033Y54867D01*
Y54700D01*
X46100D01*
X46300Y54500D01*
X46267Y54067D01*
X46100Y53933D01*
X45700D01*
X45533Y54100D01*
Y54533D01*
X45700Y54700D01*
X45800D01*
X45833Y55033D01*
X47667Y56833D01*
X49700Y56867D01*
X52400Y59567D01*
X52367Y61400D01*
X50767Y63000D01*
X48300Y63033D01*
X44900Y66467D01*
X44867Y66767D01*
X44700Y66900D01*
X44733Y67367D01*
X44900Y67500D01*
X45100D01*
G37*
%LPC*%
G36*
X45967Y54467D02*
X45800Y54433D01*
Y54200D01*
X45833D01*
X45967Y54167D01*
X46067Y54333D01*
X45967Y54467D01*
G37*
%LPD*%
G36*
X44500Y68100D02*
X44700Y67933D01*
X44667Y67433D01*
X44533Y67367D01*
X44567Y66533D01*
X44600D01*
X48267Y62833D01*
X50667D01*
X52233Y61267D01*
X52200Y59600D01*
X49600Y57000D01*
X47133Y56967D01*
X45033Y54867D01*
Y54700D01*
X45100D01*
X45300Y54500D01*
X45267Y54067D01*
X45100Y53933D01*
X44700D01*
X44533Y54100D01*
Y54533D01*
X44700Y54700D01*
X44800D01*
X44833Y55033D01*
X47067Y57233D01*
X49500Y57267D01*
X52000Y59767D01*
X51967Y61200D01*
X50567Y62600D01*
X48100Y62633D01*
X44300Y66433D01*
X44267Y67367D01*
X44100Y67533D01*
X44133Y67967D01*
X44300Y68100D01*
X44500D01*
G37*
%LPC*%
G36*
X44967Y54467D02*
X44800Y54433D01*
Y54200D01*
X44833D01*
X44967Y54167D01*
X45067Y54333D01*
X44967Y54467D01*
G37*
%LPD*%
G36*
X43900Y67500D02*
X44133Y67300D01*
X44100Y66867D01*
X43933Y66767D01*
X43967Y66533D01*
X44000D01*
X48067Y62433D01*
X50467D01*
X51833Y61067D01*
X51800Y59800D01*
X49400Y57400D01*
X46533Y57367D01*
X44033Y54867D01*
Y54700D01*
X44100D01*
X44300Y54500D01*
X44267Y54067D01*
X44100Y53933D01*
X43700D01*
X43533Y54100D01*
Y54533D01*
X43700Y54700D01*
X43800D01*
X43833Y55033D01*
X46467Y57633D01*
X49300Y57667D01*
X51600Y59967D01*
X51567Y61000D01*
X50367Y62200D01*
X47900Y62233D01*
X43733Y66400D01*
X43700Y66767D01*
X43500Y66933D01*
X43533Y67367D01*
X43733Y67500D01*
X43900D01*
G37*
%LPC*%
G36*
X43967Y54467D02*
X43800Y54433D01*
Y54200D01*
X43833D01*
X43967Y54167D01*
X44067Y54367D01*
X43967Y54467D01*
G37*
%LPD*%
G36*
X43000Y54733D02*
X43267Y54567D01*
Y54067D01*
X43100Y53933D01*
X42700D01*
X42533Y54100D01*
Y54533D01*
X42700Y54700D01*
X43000Y54733D01*
G37*
%LPC*%
G36*
X42967Y54467D02*
X42800Y54433D01*
Y54200D01*
X42833D01*
X42967Y54167D01*
X43067Y54367D01*
X42967Y54467D01*
G37*
%LPD*%
G36*
X42000Y54733D02*
X42267Y54567D01*
Y54067D01*
X42033Y53933D01*
X42000Y52800D01*
X40033Y50867D01*
X40067Y45733D01*
X40100D01*
X40867Y44933D01*
X42433D01*
Y45200D01*
X42600D01*
Y44400D01*
X42433D01*
Y44733D01*
X40733D01*
X39800Y45633D01*
X39833Y51033D01*
X41800Y52967D01*
Y53933D01*
X41600Y54000D01*
X41500Y54200D01*
X41567Y54567D01*
X41700Y54700D01*
X42000Y54733D01*
G37*
%LPC*%
G36*
X41967Y54467D02*
X41800Y54433D01*
Y54200D01*
X41833D01*
X41967Y54167D01*
X42067Y54367D01*
X41967Y54467D01*
G37*
%LPC*%
G36*
X40967Y54467D02*
X40800Y54433D01*
Y54200D01*
X40833D01*
X40967Y54167D01*
X41067Y54367D01*
X40967Y54467D01*
G37*
%LPC*%
G36*
X39967Y54467D02*
X39800Y54433D01*
Y54200D01*
X39833D01*
X39967Y54167D01*
X40067Y54367D01*
X39967Y54467D01*
G37*
%LPD*%
G36*
X49800Y67500D02*
X50033Y67300D01*
X50000Y66867D01*
X49833Y66767D01*
X49900Y66600D01*
X49933D01*
X50067Y66433D01*
X52467D01*
X55833Y63067D01*
X55800Y56600D01*
X54900Y55700D01*
X53300D01*
X53200Y55500D01*
X52833Y55400D01*
X52533Y55567D01*
Y56033D01*
X52700Y56200D01*
X53100D01*
X53300Y55933D01*
X54800Y55967D01*
X55600Y56767D01*
X55567Y63000D01*
X52367Y66200D01*
X49900Y66233D01*
X49633Y66500D01*
X49600Y66767D01*
X49433Y66900D01*
X49467Y67400D01*
X49633Y67500D01*
X49800D01*
G37*
%LPC*%
G36*
X52967Y55967D02*
X52800Y55933D01*
Y55700D01*
X52833D01*
X52967Y55667D01*
X53033Y55900D01*
X52967Y55967D01*
G37*
%LPC*%
G36*
X43667Y55967D02*
X43500Y55933D01*
Y55700D01*
X43533D01*
X43667Y55667D01*
X43767Y55867D01*
X43667Y55967D01*
G37*
%LPD*%
G36*
X49233Y68100D02*
X49433Y67933D01*
X49400Y67433D01*
X49267Y67367D01*
X49300Y66600D01*
X49333D01*
X49867Y66033D01*
X52267D01*
X55433Y62867D01*
X55400Y57000D01*
X54900Y56500D01*
X54100D01*
X54000Y56300D01*
X53633Y56200D01*
X53333Y56367D01*
Y56833D01*
X53500Y57000D01*
X53900D01*
X54100Y56733D01*
X54800Y56767D01*
X55200Y57167D01*
X55167Y62800D01*
X52167Y65800D01*
X49700Y65833D01*
X49033Y66500D01*
X49000Y67367D01*
X48833Y67500D01*
X48867Y67967D01*
X49033Y68100D01*
X49233D01*
G37*
%LPC*%
G36*
X53767Y56767D02*
X53600Y56733D01*
Y56500D01*
X53633D01*
X53767Y56467D01*
X53833Y56700D01*
X53767Y56767D01*
G37*
%LPC*%
G36*
X44467Y56767D02*
X44300Y56733D01*
Y56500D01*
X44333D01*
X44467Y56467D01*
X44567Y56633D01*
X44467Y56767D01*
G37*
%LPD*%
G36*
X43100Y58800D02*
X43200Y58700D01*
X43167Y58333D01*
X42800Y58367D01*
X42733Y58533D01*
X42833Y58633D01*
X43033Y58667D01*
X42833D01*
Y58800D01*
X43100D01*
G37*
%LPC*%
G36*
X43067Y58500D02*
X42900D01*
Y58467D01*
X43067D01*
Y58500D01*
G37*
%LPD*%
G36*
X40767Y58800D02*
X40867Y58700D01*
X40833Y58333D01*
X40467Y58367D01*
X40400Y58533D01*
X40500Y58633D01*
X40700Y58667D01*
X40500D01*
Y58800D01*
X40767D01*
G37*
%LPC*%
G36*
X40733Y58500D02*
X40567D01*
Y58467D01*
X40733D01*
Y58500D01*
G37*
%LPD*%
G36*
X48333Y58567D02*
Y58333D01*
X48167D01*
Y58567D01*
X48333D01*
G37*
%LPD*%
G36*
X47433Y58567D02*
Y58333D01*
X47233Y58367D01*
X47267Y58567D01*
X47433D01*
G37*
%LPD*%
G36*
X48633Y67500D02*
X48833Y67333D01*
X48800Y66833D01*
X48667Y66767D01*
X48700Y66600D01*
X48733D01*
X49667Y65633D01*
X52067D01*
X55033Y62667D01*
X55000Y57700D01*
X54900Y57633D01*
X54867Y57167D01*
X54700Y57033D01*
X54300D01*
X54100Y57233D01*
X54133Y57633D01*
X54300Y57800D01*
X54767Y57833D01*
Y62600D01*
X51967Y65400D01*
X49500Y65433D01*
X48433Y66500D01*
Y66767D01*
X48233Y66933D01*
X48267Y67367D01*
X48467Y67500D01*
X48633D01*
G37*
%LPC*%
G36*
X54567Y57567D02*
X54400Y57533D01*
Y57300D01*
X54433D01*
X54567Y57267D01*
X54633Y57500D01*
X54567Y57567D01*
G37*
%LPC*%
G36*
X45267Y57567D02*
X45100Y57533D01*
Y57300D01*
X45133D01*
X45267Y57267D01*
X45367Y57433D01*
X45267Y57567D01*
G37*
%LPD*%
G36*
X43867Y58967D02*
Y58800D01*
X44100D01*
X44200Y58700D01*
X44167Y58333D01*
X44067Y58367D01*
X44033Y58667D01*
X43867Y58633D01*
X43833Y58333D01*
X43733Y58367D01*
Y58967D01*
X43867D01*
G37*
%LPD*%
G36*
X41600Y58900D02*
Y58800D01*
X41700D01*
Y58667D01*
X41600D01*
X41633Y58500D01*
X41667D01*
Y58333D01*
X41500Y58433D01*
Y58667D01*
X41400Y58700D01*
Y58800D01*
X41500D01*
Y58900D01*
X41600D01*
G37*
%LPD*%
G36*
X40267Y58967D02*
X40367Y58767D01*
X40200Y58800D01*
X40033D01*
X40067Y58467D01*
X40233Y58500D01*
X40333Y58567D01*
Y58400D01*
X40267Y58333D01*
X39967Y58367D01*
X39900Y58433D01*
X39933Y58900D01*
X40000Y58967D01*
X40267D01*
G37*
%LPD*%
G36*
X39267Y58967D02*
X39367Y58767D01*
X39200Y58800D01*
X39033D01*
X39067Y58467D01*
X39233Y58500D01*
Y58600D01*
X39100D01*
Y58733D01*
X39333D01*
Y58400D01*
X39267Y58333D01*
X38967Y58367D01*
X38900Y58433D01*
X38933Y58900D01*
X39000Y58967D01*
X39267D01*
G37*
%LPD*%
G36*
X42267Y58967D02*
Y58833D01*
X41967D01*
Y58733D01*
X42100D01*
Y58600D01*
X41967D01*
X41933Y58333D01*
X41833Y58367D01*
Y58967D01*
X42267D01*
G37*
%LPD*%
G36*
X39767Y58967D02*
X39867Y58867D01*
X39833Y58400D01*
X39767Y58333D01*
X39400Y58367D01*
Y58967D01*
X39767D01*
G37*
%LPC*%
G36*
X39700Y58833D02*
X39533D01*
Y58733D01*
X39733Y58767D01*
X39700Y58833D01*
G37*
%LPD*%
G36*
X46600Y58800D02*
X46700Y58700D01*
X46667Y58500D01*
X46400Y58467D01*
X46600D01*
Y58333D01*
X46300Y58367D01*
X46233Y58433D01*
X46267Y58733D01*
X46333Y58800D01*
X46600D01*
G37*
%LPC*%
G36*
X46533Y58667D02*
X46400D01*
Y58633D01*
X46533D01*
Y58667D01*
G37*
%LPD*%
G36*
X44600Y58800D02*
X44700Y58700D01*
X44667Y58500D01*
X44400Y58467D01*
X44600D01*
Y58333D01*
X44300Y58367D01*
X44233Y58433D01*
X44267Y58733D01*
X44333Y58800D01*
X44600D01*
G37*
%LPC*%
G36*
X44533Y58667D02*
X44400D01*
Y58633D01*
X44533D01*
Y58667D01*
G37*
%LPD*%
G36*
X43700Y58800D02*
X43667Y58667D01*
X43400Y58633D01*
X43600D01*
X43700Y58433D01*
X43600Y58333D01*
X43233Y58367D01*
Y58467D01*
X43533Y58500D01*
X43300Y58533D01*
X43233Y58700D01*
X43333Y58800D01*
X43700D01*
G37*
%LPD*%
G36*
X48933Y58967D02*
X49033Y58867D01*
X49000Y58400D01*
X48933Y58333D01*
X48633Y58367D01*
X48567Y58433D01*
X48600Y58900D01*
X48667Y58967D01*
X48933D01*
G37*
%LPC*%
G36*
X48867Y58833D02*
X48700Y58800D01*
X48733Y58467D01*
X48900Y58500D01*
X48867Y58833D01*
G37*
%LPD*%
G36*
X48033Y58967D02*
X48100Y58900D01*
X48067Y58633D01*
X47900Y58467D01*
X48100D01*
Y58333D01*
X47667D01*
X47700Y58500D01*
X47967Y58800D01*
X47767D01*
X47667Y58767D01*
X47700Y58933D01*
X48033Y58967D01*
G37*
%LPD*%
G36*
X42533Y58967D02*
Y58467D01*
X42600D01*
Y58333D01*
X42333D01*
Y58467D01*
X42400D01*
Y58833D01*
X42333D01*
Y58967D01*
X42533D01*
G37*
%LPC*%
G36*
X39700Y58600D02*
X39533D01*
Y58467D01*
X39733Y58500D01*
X39700Y58600D01*
G37*
%LPD*%
G36*
X49533Y58800D02*
X49500Y58333D01*
X49133Y58367D01*
X49067Y58433D01*
Y58800D01*
X49200D01*
X49233Y58467D01*
X49400D01*
Y58800D01*
X49533D01*
G37*
%LPD*%
G36*
X47200Y58800D02*
X47100Y58467D01*
X46933Y58333D01*
X46733Y58667D01*
Y58800D01*
X46867D01*
X46933Y58600D01*
X47033Y58667D01*
X47067Y58800D01*
X47200D01*
G37*
%LPD*%
G36*
X46100Y58800D02*
Y58667D01*
X45933Y58633D01*
X45867Y58567D01*
X45833Y58333D01*
X45733Y58367D01*
Y58800D01*
X45867D01*
X45900Y58767D01*
X46100Y58800D01*
G37*
%LPD*%
G36*
X45100Y58800D02*
Y58667D01*
X44933Y58633D01*
X44867Y58567D01*
X44833Y58333D01*
X44733Y58367D01*
Y58800D01*
X44867D01*
X44900Y58767D01*
X45100Y58800D01*
G37*
%LPD*%
G36*
X41267Y58800D02*
Y58667D01*
X41033Y58567D01*
X41000Y58333D01*
X40900Y58367D01*
Y58800D01*
X41033D01*
X41067Y58767D01*
X41267Y58800D01*
G37*
%LPD*%
G36*
X34467Y67500D02*
X34667Y67333D01*
X34633Y66833D01*
X34500Y66767D01*
X34467Y66467D01*
X33900Y65900D01*
X31833Y65867D01*
X28833Y62867D01*
X28867Y58733D01*
X28900D01*
X30367Y57233D01*
X36400Y57267D01*
X38800Y59667D01*
Y59933D01*
X38567Y60067D01*
X38500Y60433D01*
X38700Y60700D01*
X39100D01*
X39300Y60500D01*
X39267Y60067D01*
X39033Y59933D01*
X39000Y59500D01*
X36500Y57000D01*
X30233Y57033D01*
X28633Y58633D01*
X28667Y63033D01*
X31767Y66133D01*
X33833Y66167D01*
X34267Y66633D01*
X34233Y66767D01*
X34100Y66867D01*
Y67367D01*
X34267Y67500D01*
X34467D01*
G37*
%LPC*%
G36*
X38967Y60467D02*
X38800Y60433D01*
Y60200D01*
X38867D01*
X38967Y60167D01*
X39067Y60367D01*
X38967Y60467D01*
G37*
%LPD*%
G36*
X35067Y68100D02*
X35267Y67933D01*
X35233Y67433D01*
X35100Y67367D01*
X35067Y66367D01*
X34200Y65500D01*
X32033Y65467D01*
X29233Y62667D01*
X29267Y58933D01*
X29300D01*
X30567Y57633D01*
X35833Y57667D01*
X37800Y59667D01*
Y59933D01*
X37567Y60067D01*
X37500Y60433D01*
X37700Y60700D01*
X38100D01*
X38300Y60500D01*
X38267Y60067D01*
X38033Y59933D01*
X38000Y59500D01*
X35900Y57400D01*
X30433Y57433D01*
X29033Y58833D01*
X29067Y62833D01*
X31967Y65733D01*
X34133Y65767D01*
X34867Y66533D01*
X34833Y67367D01*
X34700Y67467D01*
Y67967D01*
X34867Y68100D01*
X35067D01*
G37*
%LPC*%
G36*
X37967Y60467D02*
X37800Y60433D01*
Y60200D01*
X37867D01*
X37967Y60167D01*
X38067Y60367D01*
X37967Y60467D01*
G37*
%LPD*%
G36*
X35667Y67500D02*
X35867Y67300D01*
X35833Y66867D01*
X35700Y66767D01*
X35667Y66267D01*
X34500Y65100D01*
X32233Y65067D01*
X29633Y62467D01*
X29667Y59133D01*
X29700D01*
X30767Y58033D01*
X35233Y58067D01*
X36800Y59667D01*
Y59933D01*
X36567Y60067D01*
X36500Y60433D01*
X36700Y60700D01*
X37100D01*
X37300Y60500D01*
X37267Y60067D01*
X37033Y59933D01*
X37000Y59500D01*
X35300Y57800D01*
X30633Y57833D01*
X29433Y59033D01*
X29467Y62633D01*
X32167Y65333D01*
X34433Y65367D01*
X35467Y66400D01*
X35433Y66767D01*
X35267Y66900D01*
X35300Y67367D01*
X35467Y67500D01*
X35667D01*
G37*
%LPC*%
G36*
X36967Y60467D02*
X36800Y60433D01*
Y60200D01*
X36867D01*
X36967Y60167D01*
X37067Y60367D01*
X36967Y60467D01*
G37*
%LPD*%
G36*
X36233Y68100D02*
X36467Y67900D01*
X36433Y67467D01*
X36267Y67367D01*
X36233Y66133D01*
X34800Y64700D01*
X32433Y64667D01*
X30033Y62267D01*
X30067Y59333D01*
X30100D01*
X30967Y58433D01*
X34633Y58467D01*
X35833Y59667D01*
Y59933D01*
X35600Y60033D01*
X35500Y60200D01*
X35567Y60567D01*
X35700Y60700D01*
X36100D01*
X36300Y60500D01*
X36267Y60067D01*
X36033Y59933D01*
X36000Y59500D01*
X34700Y58200D01*
X30833Y58233D01*
X29833Y59233D01*
X29867Y62433D01*
X32367Y64933D01*
X34733Y64967D01*
X36067Y66300D01*
X36033Y67367D01*
X35833Y67533D01*
X35867Y67967D01*
X36067Y68100D01*
X36233D01*
G37*
%LPC*%
G36*
X35967Y60467D02*
X35800Y60433D01*
Y60200D01*
X35867D01*
X35967Y60167D01*
X36067Y60367D01*
X35967Y60467D01*
G37*
%LPD*%
G36*
X36833Y67500D02*
X37033Y67333D01*
X37000Y66833D01*
X36867Y66767D01*
X36833Y66033D01*
X35100Y64300D01*
X32633Y64267D01*
X30433Y62067D01*
X30467Y59533D01*
X30500D01*
X31167Y58833D01*
X34033Y58867D01*
X34833Y59667D01*
Y59933D01*
X34600Y60033D01*
X34500Y60200D01*
X34533Y60500D01*
X34733Y60700D01*
X35100D01*
X35300Y60500D01*
X35267Y60067D01*
X35033Y59933D01*
X35000Y59500D01*
X34100Y58600D01*
X31033Y58633D01*
X30233Y59433D01*
X30267Y62233D01*
X32567Y64533D01*
X35033Y64567D01*
X36633Y66200D01*
X36600Y66767D01*
X36433Y66933D01*
X36467Y67367D01*
X36633Y67500D01*
X36833D01*
G37*
%LPC*%
G36*
X34967Y60467D02*
X34800Y60433D01*
Y60200D01*
X34867D01*
X34967Y60167D01*
X35067Y60367D01*
X34967Y60467D01*
G37*
%LPD*%
G36*
X37433Y68100D02*
X37633Y67900D01*
X37600Y67467D01*
X37467Y67367D01*
X37433Y65933D01*
X35400Y63900D01*
X32833Y63867D01*
X30833Y61867D01*
X30867Y59733D01*
X30900D01*
X31367Y59233D01*
X33433Y59267D01*
X33833Y59667D01*
Y59933D01*
X33600Y60033D01*
X33500Y60200D01*
X33533Y60500D01*
X33733Y60700D01*
X34100D01*
X34300Y60500D01*
X34267Y60067D01*
X34033Y59933D01*
X34000Y59500D01*
X33500Y59000D01*
X31233Y59033D01*
X30633Y59633D01*
X30667Y62033D01*
X32767Y64133D01*
X35333Y64167D01*
X37233Y66067D01*
X37200Y67367D01*
X37033Y67500D01*
X37067Y67967D01*
X37233Y68100D01*
X37433D01*
G37*
%LPC*%
G36*
X33967Y60467D02*
X33800Y60433D01*
Y60200D01*
X33867D01*
X33967Y60167D01*
X34067Y60367D01*
X33967Y60467D01*
G37*
%LPD*%
G36*
X38000Y67500D02*
X38233Y67300D01*
X38200Y66867D01*
X38033Y66767D01*
X38000Y65800D01*
X35700Y63500D01*
X33033Y63467D01*
X31233Y61667D01*
X31267Y59933D01*
X31300D01*
X31567Y59633D01*
X32833Y59667D01*
Y59933D01*
X32600Y60033D01*
X32500Y60200D01*
X32533Y60500D01*
X32733Y60700D01*
X33100D01*
X33300Y60500D01*
X33267Y60067D01*
X33033Y59933D01*
X33000Y59500D01*
X32900Y59400D01*
X31433Y59433D01*
X31033Y59833D01*
X31067Y61833D01*
X32967Y63733D01*
X35633Y63767D01*
X37833Y66000D01*
X37800Y66767D01*
X37600Y66933D01*
X37633Y67367D01*
X37833Y67500D01*
X38000D01*
G37*
%LPC*%
G36*
X32967Y60467D02*
X32800Y60433D01*
Y60200D01*
X32867D01*
X32967Y60167D01*
X33067Y60367D01*
X32967Y60467D01*
G37*
%LPD*%
G36*
X38600Y68100D02*
X38800Y67933D01*
X38767Y67433D01*
X38633Y67367D01*
X38600Y65700D01*
X36000Y63100D01*
X33233Y63067D01*
X32033Y61867D01*
Y60700D01*
X32100D01*
X32300Y60500D01*
X32267Y60067D01*
X32000Y59900D01*
X31667Y59967D01*
X31533Y60100D01*
Y60500D01*
X31733Y60700D01*
X31833Y60733D01*
X31867Y62033D01*
X33167Y63333D01*
X35933Y63367D01*
X38400Y65867D01*
Y67367D01*
X38200Y67533D01*
X38233Y67967D01*
X38433Y68100D01*
X38600D01*
G37*
%LPC*%
G36*
X31967Y60467D02*
X31800Y60433D01*
Y60200D01*
X31867D01*
X31967Y60167D01*
X32067Y60367D01*
X31967Y60467D01*
G37*
%LPD*%
G36*
X50400Y61733D02*
X50633Y61600D01*
X50700Y61500D01*
X50733Y61200D01*
X50767D01*
X51133Y60800D01*
Y60633D01*
X51200D01*
X51300Y60500D01*
X51267Y60067D01*
X51100Y59933D01*
X50700D01*
X50500Y60133D01*
X50533Y60533D01*
X50633Y60667D01*
X50367Y60900D01*
X50067Y60967D01*
X49900Y61133D01*
X49933Y61533D01*
X50100Y61700D01*
X50400Y61733D01*
G37*
%LPC*%
G36*
X50967Y60467D02*
X50800Y60433D01*
Y60200D01*
X50833D01*
X50967Y60167D01*
X51033Y60400D01*
X50967Y60467D01*
G37*
%LPD*%
G36*
X43333Y68100D02*
X43533Y67900D01*
X43500Y67467D01*
X43333Y67333D01*
X43367Y66533D01*
X43400D01*
X47867Y62033D01*
X48767D01*
X50033Y60767D01*
X50133Y60633D01*
X50200D01*
X50300Y60500D01*
X50267Y60067D01*
X50100Y59933D01*
X49700D01*
X49500Y60133D01*
X49533Y60533D01*
X49700Y60733D01*
X48667Y61800D01*
X47700Y61833D01*
X43133Y66400D01*
X43100Y67367D01*
X42933Y67500D01*
X42967Y67967D01*
X43133Y68100D01*
X43333D01*
G37*
%LPC*%
G36*
X49967Y60467D02*
X49800Y60433D01*
Y60200D01*
X49833D01*
X49967Y60167D01*
X50033Y60400D01*
X49967Y60467D01*
G37*
%LPD*%
G36*
X42733Y67500D02*
X42933Y67333D01*
X42900Y66833D01*
X42767Y66767D01*
X42800Y66500D01*
X42833D01*
X47867Y61433D01*
X48367D01*
X49033Y60767D01*
X49133Y60633D01*
X49200D01*
X49300Y60500D01*
X49267Y60067D01*
X49100Y59933D01*
X48700D01*
X48500Y60133D01*
X48533Y60533D01*
X48700Y60733D01*
X48267Y61200D01*
X47700Y61233D01*
X42533Y66400D01*
X42500Y66767D01*
X42333Y66900D01*
X42367Y67367D01*
X42533Y67500D01*
X42733D01*
G37*
%LPC*%
G36*
X48967Y60467D02*
X48800Y60433D01*
Y60200D01*
X48833D01*
X48967Y60167D01*
X49033Y60400D01*
X48967Y60467D01*
G37*
%LPD*%
G36*
X42133Y68100D02*
X42333Y67933D01*
X42300Y67433D01*
X42167Y67367D01*
X42200Y66500D01*
X42233D01*
X48000Y60700D01*
X48100D01*
X48300Y60500D01*
X48267Y60067D01*
X48100Y59933D01*
X47700D01*
X47533Y60100D01*
Y60533D01*
X47667Y60700D01*
X41967Y66400D01*
X41933Y67367D01*
X41733Y67533D01*
X41767Y67967D01*
X41967Y68100D01*
X42133D01*
G37*
%LPC*%
G36*
X47967Y60467D02*
X47800Y60433D01*
Y60200D01*
X47833D01*
X47967Y60167D01*
X48067Y60333D01*
X47967Y60467D01*
G37*
%LPD*%
G36*
X41533Y67500D02*
X41767Y67300D01*
X41733Y66867D01*
X41567Y66767D01*
X41600Y66500D01*
X41633D01*
X47033Y61067D01*
Y60700D01*
X47100D01*
X47300Y60500D01*
X47267Y60067D01*
X47100Y59933D01*
X46700D01*
X46533Y60100D01*
Y60533D01*
X46700Y60700D01*
X46800D01*
X46767Y61000D01*
X41367Y66367D01*
X41333Y66767D01*
X41167Y66900D01*
X41200Y67400D01*
X41367Y67500D01*
X41533D01*
G37*
%LPC*%
G36*
X46967Y60467D02*
X46800Y60433D01*
Y60200D01*
X46833D01*
X46967Y60167D01*
X47067Y60333D01*
X46967Y60467D01*
G37*
%LPD*%
G36*
X40967Y68100D02*
X41167Y67933D01*
X41133Y67433D01*
X41000Y67367D01*
X41033Y66467D01*
X41067D01*
X46033Y61467D01*
Y60700D01*
X46100D01*
X46300Y60500D01*
X46267Y60067D01*
X46100Y59933D01*
X45700D01*
X45533Y60100D01*
Y60533D01*
X45700Y60700D01*
X45800D01*
X45767Y61400D01*
X40767Y66367D01*
X40733Y67367D01*
X40567Y67500D01*
X40600Y67967D01*
X40767Y68100D01*
X40967D01*
G37*
%LPC*%
G36*
X45967Y60467D02*
X45800Y60433D01*
Y60200D01*
X45833D01*
X45967Y60167D01*
X46067Y60333D01*
X45967Y60467D01*
G37*
%LPD*%
G36*
X40367Y67500D02*
X40567Y67333D01*
X40533Y66833D01*
X40400Y66767D01*
X40433Y66467D01*
X40467D01*
X45033Y61867D01*
Y60700D01*
X45100D01*
X45300Y60500D01*
X45267Y60067D01*
X45100Y59933D01*
X44700D01*
X44533Y60100D01*
Y60533D01*
X44700Y60700D01*
X44800D01*
X44767Y61800D01*
X40200Y66367D01*
X40167Y66767D01*
X39967Y66933D01*
X40000Y67367D01*
X40200Y67500D01*
X40367D01*
G37*
%LPC*%
G36*
X44967Y60467D02*
X44800Y60433D01*
Y60200D01*
X44833D01*
X44967Y60167D01*
X45067Y60333D01*
X44967Y60467D01*
G37*
%LPD*%
G36*
X39767Y68100D02*
X40000Y67900D01*
X39967Y67467D01*
X39800Y67367D01*
X39833Y66467D01*
X39867D01*
X44033Y62267D01*
Y60700D01*
X44100D01*
X44300Y60500D01*
X44267Y60067D01*
X44100Y59933D01*
X43700D01*
X43533Y60100D01*
Y60533D01*
X43700Y60700D01*
X43800D01*
X43767Y62200D01*
X39600Y66333D01*
X39567Y67367D01*
X39400Y67500D01*
X39433Y68000D01*
X39600Y68100D01*
X39767D01*
G37*
%LPC*%
G36*
X43967Y60467D02*
X43800Y60433D01*
Y60200D01*
X43833D01*
X43967Y60167D01*
X44067Y60367D01*
X43967Y60467D01*
G37*
%LPD*%
G36*
X39200Y67500D02*
X39400Y67333D01*
X39367Y66833D01*
X39233Y66767D01*
X39267Y66433D01*
X39300D01*
X43033Y62667D01*
Y60700D01*
X43100D01*
X43300Y60500D01*
X43267Y60067D01*
X43100Y59933D01*
X42700D01*
X42533Y60100D01*
Y60533D01*
X42700Y60700D01*
X42800D01*
X42767Y62600D01*
X39000Y66367D01*
X38967Y66767D01*
X38800Y66900D01*
X38833Y67367D01*
X39000Y67500D01*
X39200D01*
G37*
%LPC*%
G36*
X42967Y60467D02*
X42800Y60433D01*
Y60200D01*
X42833D01*
X42967Y60167D01*
X43067Y60367D01*
X42967Y60467D01*
G37*
%LPD*%
G36*
X42000Y60733D02*
X42267Y60567D01*
Y60067D01*
X42100Y59933D01*
X41700D01*
X41533Y60100D01*
Y60533D01*
X41700Y60700D01*
X42000Y60733D01*
G37*
%LPC*%
G36*
X41967Y60467D02*
X41800Y60433D01*
Y60200D01*
X41833D01*
X41967Y60167D01*
X42067Y60367D01*
X41967Y60467D01*
G37*
%LPD*%
G36*
X41000Y60733D02*
X41267Y60567D01*
Y60067D01*
X41100Y59933D01*
X40700D01*
X40533Y60100D01*
Y60533D01*
X40700Y60700D01*
X41000Y60733D01*
G37*
%LPC*%
G36*
X40967Y60467D02*
X40800Y60433D01*
Y60200D01*
X40833D01*
X40967Y60167D01*
X41067Y60367D01*
X40967Y60467D01*
G37*
%LPD*%
G36*
X40000Y60733D02*
X40267Y60567D01*
Y60067D01*
X40100Y59933D01*
X39700D01*
X39533Y60100D01*
Y60533D01*
X39700Y60700D01*
X40000Y60733D01*
G37*
%LPC*%
G36*
X39967Y60467D02*
X39800Y60433D01*
Y60200D01*
X39833D01*
X39967Y60167D01*
X40067Y60367D01*
X39967Y60467D01*
G37*
%LPC*%
G36*
X56467Y61467D02*
X56300Y61433D01*
Y61200D01*
X56333D01*
X56467Y61167D01*
X56533Y61400D01*
X56467Y61467D01*
G37*
%LPC*%
G36*
X50367Y61467D02*
X50200Y61433D01*
Y61200D01*
X50233D01*
X50367Y61167D01*
X50433Y61400D01*
X50367Y61467D01*
G37*
%LPD*%
G36*
X39167Y65667D02*
X42367Y62467D01*
Y61033D01*
X32567Y61067D01*
X32600Y61800D01*
X33367Y62567D01*
X36033Y62600D01*
X39067Y65667D01*
X39167D01*
G37*
%LPD*%
G36*
X50400Y68100D02*
X50600Y67933D01*
X50567Y67433D01*
X50433Y67333D01*
X50133Y67367D01*
X50000Y67533D01*
X50033Y67967D01*
X50233Y68100D01*
X50400D01*
G37*
%LPC*%
G36*
X50367Y67833D02*
X50200Y67800D01*
Y67600D01*
X50267D01*
X50367Y67567D01*
X50433Y67767D01*
X50367Y67833D01*
G37*
%LPC*%
G36*
X46833Y67833D02*
X46667Y67800D01*
Y67600D01*
X46733D01*
X46833Y67567D01*
X46900Y67767D01*
X46833Y67833D01*
G37*
%LPC*%
G36*
X45633Y67833D02*
X45467Y67800D01*
Y67600D01*
X45533D01*
X45633Y67567D01*
X45733Y67733D01*
X45633Y67833D01*
G37*
%LPC*%
G36*
X44467Y67833D02*
X44300Y67800D01*
Y67600D01*
X44367D01*
X44467Y67567D01*
X44533Y67767D01*
X44467Y67833D01*
G37*
%LPC*%
G36*
X42100Y67833D02*
X41933Y67800D01*
Y67600D01*
X42000D01*
X42100Y67567D01*
X42200Y67733D01*
X42100Y67833D01*
G37*
%LPC*%
G36*
X38567Y67833D02*
X38400Y67800D01*
Y67600D01*
X38467D01*
X38567Y67567D01*
X38633Y67767D01*
X38567Y67833D01*
G37*
%LPC*%
G36*
X36200Y67833D02*
X36033Y67800D01*
Y67600D01*
X36100D01*
X36200Y67567D01*
X36300Y67733D01*
X36200Y67833D01*
G37*
%LPC*%
G36*
X33833Y67833D02*
X33667Y67800D01*
Y67600D01*
X33733D01*
X33833Y67567D01*
X33933Y67733D01*
X33833Y67833D01*
G37*
%LPC*%
G36*
X49200Y67833D02*
X49033Y67800D01*
Y67600D01*
X49067D01*
X49200Y67567D01*
X49267Y67767D01*
X49200Y67833D01*
G37*
%LPC*%
G36*
X48000Y67833D02*
X47833Y67767D01*
X47867Y67600D01*
X47900D01*
X48000Y67567D01*
X48100Y67733D01*
X48000Y67833D01*
G37*
%LPC*%
G36*
X43300Y67833D02*
X43133Y67800D01*
Y67600D01*
X43167D01*
X43267Y67567D01*
X43367Y67733D01*
X43300Y67833D01*
G37*
%LPC*%
G36*
X40933Y67833D02*
X40767Y67800D01*
Y67600D01*
X40800D01*
X40933Y67567D01*
X41000Y67767D01*
X40933Y67833D01*
G37*
%LPC*%
G36*
X39733Y67833D02*
X39567Y67767D01*
X39600Y67600D01*
X39633D01*
X39733Y67567D01*
X39833Y67733D01*
X39733Y67833D01*
G37*
%LPC*%
G36*
X37400Y67833D02*
X37233Y67800D01*
Y67600D01*
X37267D01*
X37400Y67567D01*
X37433Y67733D01*
X37400Y67833D01*
G37*
%LPC*%
G36*
X35033Y67833D02*
X34867Y67800D01*
Y67600D01*
X34900D01*
X35033Y67567D01*
X35100Y67767D01*
X35033Y67833D01*
G37*
%LPC*%
G36*
X32667Y67833D02*
X32500Y67800D01*
Y67600D01*
X32533D01*
X32667Y67567D01*
X32733Y67767D01*
X32667Y67833D01*
G37*
%LPC*%
G36*
X50933Y67267D02*
X50800Y67233D01*
Y67033D01*
X50833D01*
X50967Y67000D01*
X51033Y67167D01*
X50933Y67267D01*
G37*
%LPC*%
G36*
X49733Y67267D02*
X49600Y67167D01*
X49633Y67000D01*
X49833Y67033D01*
Y67200D01*
X49733Y67267D01*
G37*
%LPC*%
G36*
X48567Y67267D02*
X48400Y67133D01*
X48467Y67000D01*
X48633D01*
Y67233D01*
X48567Y67267D01*
G37*
%LPC*%
G36*
X47400Y67267D02*
X47267Y67233D01*
Y67033D01*
X47300D01*
X47433Y67000D01*
X47500Y67167D01*
X47400Y67267D01*
G37*
%LPC*%
G36*
X46200Y67267D02*
X46033Y67133D01*
X46100Y67000D01*
X46300Y67033D01*
Y67200D01*
X46200Y67267D01*
G37*
%LPC*%
G36*
X45000Y67267D02*
X44867Y67167D01*
X44933Y67000D01*
X45100Y67033D01*
Y67200D01*
X45000Y67267D01*
G37*
%LPC*%
G36*
X43833Y67267D02*
X43667Y67133D01*
X43733Y67000D01*
X43933Y67033D01*
Y67200D01*
X43833Y67267D01*
G37*
%LPC*%
G36*
X42667Y67267D02*
X42533Y67233D01*
Y67033D01*
X42567D01*
X42700Y67000D01*
X42767Y67167D01*
X42667Y67267D01*
G37*
%LPC*%
G36*
X41467Y67267D02*
X41333Y67167D01*
X41367Y67000D01*
X41567Y67033D01*
Y67200D01*
X41467Y67267D01*
G37*
%LPC*%
G36*
X40300Y67267D02*
X40133Y67133D01*
X40200Y67000D01*
X40367D01*
Y67233D01*
X40300Y67267D01*
G37*
%LPC*%
G36*
X39133Y67267D02*
X39000Y67233D01*
Y67033D01*
X39033D01*
X39167Y67000D01*
X39233Y67167D01*
X39133Y67267D01*
G37*
%LPC*%
G36*
X37933Y67267D02*
X37767Y67133D01*
X37833Y67000D01*
X38033Y67033D01*
Y67200D01*
X37933Y67267D01*
G37*
%LPC*%
G36*
X36767Y67267D02*
X36600Y67133D01*
X36667Y67000D01*
X36833Y67033D01*
Y67233D01*
X36767Y67267D01*
G37*
%LPC*%
G36*
X35567Y67267D02*
X35433Y67167D01*
X35500Y67000D01*
X35667Y67033D01*
Y67200D01*
X35567Y67267D01*
G37*
%LPC*%
G36*
X34400Y67267D02*
X34233Y67167D01*
X34300Y67000D01*
X34467Y67033D01*
Y67233D01*
X34400Y67267D01*
G37*
%LPC*%
G36*
X33200Y67267D02*
X33067Y67167D01*
X33133Y67000D01*
X33300Y67033D01*
Y67200D01*
X33200Y67267D01*
G37*
%LPC*%
G36*
X54100Y68900D02*
X53633Y68767D01*
X53333Y68467D01*
X53267Y67900D01*
X53300D01*
X53433Y67600D01*
X53467D01*
X53667Y67400D01*
X53733D01*
X53933Y67300D01*
X54367Y67367D01*
X54767Y67733D01*
X54833Y68267D01*
X54633Y68633D01*
X54367Y68833D01*
X54100Y68900D01*
G37*
%LPC*%
G36*
X29500Y68900D02*
X29033Y68767D01*
X28767Y68500D01*
X28667Y68000D01*
X28700D01*
X28800Y67633D01*
X28833D01*
X29067Y67400D01*
X29133D01*
X29333Y67300D01*
X29700Y67333D01*
X30033Y67533D01*
X30233Y67900D01*
X30200Y68400D01*
X29833Y68800D01*
X29500Y68900D01*
G37*
%LPC*%
G36*
X54200Y71233D02*
X53800Y71200D01*
X53500Y70900D01*
Y70400D01*
X53533D01*
X53767Y70133D01*
X53833D01*
X54167Y70067D01*
X54500Y70267D01*
X54633Y70500D01*
X54600Y70900D01*
X54300Y71200D01*
X54200Y71233D01*
G37*
%LPC*%
G36*
X29600Y71233D02*
X29200Y71200D01*
X28933Y70933D01*
X28867Y70567D01*
X28900D01*
X28967Y70333D01*
X29000D01*
X29167Y70133D01*
X29233D01*
X29567Y70067D01*
X29900Y70267D01*
X30033Y70500D01*
X30000Y70900D01*
X29700Y71200D01*
X29600Y71233D01*
G37*
%LPC*%
G36*
X29567Y73600D02*
X29267Y73567D01*
X29067Y73300D01*
X29133Y73000D01*
X29167D01*
X29267Y72867D01*
X29367D01*
X29533Y72833D01*
X29767Y72967D01*
X29833Y73333D01*
X29633Y73567D01*
X29567Y73600D01*
G37*
%LPC*%
G36*
X54167Y73600D02*
X53867Y73567D01*
X53700Y73400D01*
Y73033D01*
X53733D01*
X53867Y72867D01*
X53967D01*
X54133Y72833D01*
X54367Y72967D01*
X54433Y73333D01*
X54233Y73567D01*
X54167Y73600D01*
G37*
D02M02*
