G04 Created by reaConverter (www.reaconverter.com)*
%FSLAX44Y44*%
%MOIN*%
%ADD10C,0.001*%
%LNEXPORT*%
D02*
D10*
%LPD*%
G36*
X54100Y58333D02*
Y100D01*
X133D01*
Y58333D01*
X54100D01*
G37*
%LPC*%
G36*
X53133Y57400D02*
X1067Y57367D01*
Y39400D01*
X1133D01*
X1167Y39367D01*
X8733Y46967D01*
X43000D01*
X42967Y46067D01*
X42867Y45967D01*
Y45333D01*
X42900D01*
X43033Y45100D01*
X43100D01*
X43133Y45033D01*
X43267D01*
X43467Y45000D01*
X43767Y45167D01*
X43800Y45267D01*
X45400D01*
X52567Y38100D01*
X52533Y28700D01*
X48433Y24600D01*
X44400Y24567D01*
X44267Y24400D01*
Y22567D01*
X44067Y22467D01*
X43933Y22267D01*
Y21667D01*
X43967D01*
X44067Y21467D01*
X44133D01*
X44267Y21333D01*
X44367D01*
X44633Y21300D01*
X44933Y21367D01*
X45133Y21600D01*
X47533D01*
X47700Y21400D01*
X47767D01*
X47900Y21300D01*
X48067D01*
X48167Y21267D01*
X48467Y21367D01*
X48667Y21600D01*
X50033D01*
X50267Y21333D01*
X50367D01*
X50633Y21300D01*
X50933Y21367D01*
X51167Y21600D01*
X52200D01*
X52167Y16533D01*
X52033Y16333D01*
Y15933D01*
X52067D01*
X52167Y15700D01*
X52200D01*
Y11267D01*
X49867D01*
X49800Y11700D01*
X49500Y12000D01*
X49100Y12033D01*
X48800Y11967D01*
X48533Y11667D01*
X48500Y11267D01*
X44600D01*
X44633Y11533D01*
X44800Y11667D01*
X44933Y12100D01*
X44800Y12467D01*
X44500Y12733D01*
X43967D01*
X43600Y12400D01*
X43533Y11967D01*
X43567D01*
X43600Y11767D01*
X43633D01*
X43767Y11533D01*
X43833D01*
X43900Y11467D01*
Y8200D01*
X42867Y8233D01*
X42767Y8333D01*
X42167D01*
X41900Y8100D01*
Y7600D01*
X41933D01*
X42033Y7467D01*
Y6767D01*
X38267D01*
X38033Y7133D01*
X37667Y7333D01*
X37167Y7300D01*
X36833Y7100D01*
X36667Y6767D01*
X35533Y6733D01*
X31333Y2533D01*
X23967Y2567D01*
X23800Y2733D01*
Y6400D01*
X26067D01*
Y10400D01*
X28000Y10433D01*
Y10700D01*
X26067D01*
Y10833D01*
X24933D01*
X24900Y12067D01*
X24867Y12700D01*
X24600D01*
X24633Y10833D01*
X22133D01*
Y13267D01*
X21700Y13733D01*
X21767Y13833D01*
X21700Y14367D01*
X21433Y14633D01*
X20933Y14700D01*
X20567Y14500D01*
X20433Y14300D01*
Y13733D01*
X20467D01*
X20633Y13467D01*
X20700D01*
X20800Y13367D01*
X20933D01*
X21267Y13333D01*
X21467Y13400D01*
X21833Y13033D01*
Y6400D01*
X22400D01*
X22367Y4500D01*
X22633D01*
X22667Y5167D01*
X22700Y6400D01*
X23500D01*
X23467Y2667D01*
X23333Y2533D01*
X10767Y2500D01*
X10733Y16833D01*
X9700Y17867D01*
X7600Y17933D01*
X5500Y20033D01*
Y20433D01*
X5300Y20733D01*
X5100Y20867D01*
X4567D01*
X4200Y20533D01*
X4167Y20133D01*
X4233Y19833D01*
X4267D01*
X4500Y19600D01*
X4467Y18333D01*
X1333Y15200D01*
X1300Y10700D01*
X1033Y10467D01*
X967Y9967D01*
X1000D01*
X1033Y9800D01*
X1067D01*
X1167Y9600D01*
X1233D01*
X1333Y9533D01*
Y933D01*
X12000D01*
X12167Y800D01*
X12333D01*
X12500Y767D01*
X12833Y933D01*
X53267D01*
X53300Y15800D01*
X53400Y16033D01*
X53333Y16467D01*
X53267Y16500D01*
X53233Y38400D01*
X45667Y45967D01*
X43833D01*
X43733Y46133D01*
Y46967D01*
X45667D01*
X53033Y39567D01*
X53167Y39600D01*
X53133Y57400D01*
G37*
%LPD*%
G36*
X12533Y1733D02*
X12700Y1567D01*
X12667Y1300D01*
X12533Y1200D01*
X12267Y1233D01*
X12167Y1333D01*
X12200Y1633D01*
X12333Y1733D01*
X12533D01*
G37*
%LPD*%
G36*
X51433Y3933D02*
X51933Y3733D01*
X52200Y3433D01*
X52333Y3133D01*
X52300Y2533D01*
X52067Y2167D01*
X51767Y1933D01*
X51500Y1833D01*
X50967Y1867D01*
X50500Y2167D01*
X50267Y2600D01*
Y3167D01*
X50467Y3533D01*
X50767Y3800D01*
X51133Y3933D01*
X51433D01*
G37*
%LPD*%
G36*
X3033Y3933D02*
X3467Y3767D01*
X3800Y3433D01*
X3933Y3100D01*
X3900Y2567D01*
X3700Y2200D01*
X3433Y1967D01*
X3100Y1833D01*
X2567Y1867D01*
X2133Y2133D01*
X1933Y2400D01*
X1833Y3000D01*
X2033Y3500D01*
X2367Y3800D01*
X2733Y3933D01*
X3033D01*
G37*
%LPD*%
G36*
X45933Y6267D02*
X46133Y6067D01*
X46100Y5767D01*
X45933Y5600D01*
X45633Y5633D01*
X45467Y5800D01*
X45500Y6133D01*
X45667Y6267D01*
X45933D01*
G37*
%LPD*%
G36*
X37600Y6267D02*
X37767Y6100D01*
Y5767D01*
X37600Y5600D01*
X37267Y5633D01*
X37133Y5800D01*
X37167Y6133D01*
X37333Y6267D01*
X37600D01*
G37*
%LPC*%
G36*
X12500Y11533D02*
X12067Y11433D01*
X11800Y11167D01*
X11733Y10733D01*
X11767D01*
X11833Y10467D01*
X11867D01*
X12100Y10200D01*
X12200D01*
Y5633D01*
X11967Y5533D01*
X11767Y5267D01*
Y4733D01*
X11800D01*
X12000Y4433D01*
X12067D01*
X12200Y4333D01*
X12367D01*
X12500Y4300D01*
X12933Y4500D01*
X13067Y4800D01*
X18933D01*
X20100Y3600D01*
X20200D01*
X22733Y3567D01*
X23267Y4133D01*
X23233Y5267D01*
X23200Y5867D01*
X22933D01*
Y4167D01*
X22700Y3933D01*
X20267Y3967D01*
X19133Y5133D01*
X13067Y5200D01*
X12933Y5500D01*
X12733Y5600D01*
Y10233D01*
X12967Y10367D01*
X13100Y10633D01*
Y11033D01*
X12900Y11367D01*
X12667Y11500D01*
X12500Y11533D01*
G37*
%LPD*%
G36*
X12533Y5267D02*
X12700Y5100D01*
X12667Y4833D01*
X12533Y4733D01*
X12267Y4767D01*
X12167Y4900D01*
X12200Y5167D01*
X12300Y5267D01*
X12533D01*
G37*
%LPC*%
G36*
X24333Y5867D02*
X24067D01*
Y4500D01*
X24333D01*
Y5867D01*
G37*
%LPC*%
G36*
X22100Y5867D02*
X21833D01*
Y4500D01*
X22100D01*
Y5867D01*
G37*
%LPC*%
G36*
X28000Y7333D02*
X26633D01*
Y7067D01*
X28000D01*
Y7333D01*
G37*
%LPC*%
G36*
X21200Y7333D02*
X19833D01*
Y7067D01*
X21200D01*
Y7333D01*
G37*
%LPC*%
G36*
X21200Y6800D02*
X19833D01*
Y6533D01*
X21200D01*
Y6800D01*
G37*
%LPC*%
G36*
X35100Y16133D02*
X34667Y16033D01*
X34400Y15733D01*
X34367Y15600D01*
X34133Y15467D01*
X33500Y14833D01*
Y12633D01*
X33533D01*
X38500Y7667D01*
X40233D01*
X40333Y7467D01*
X40400D01*
X40600Y7333D01*
X41100Y7367D01*
X41367Y7600D01*
Y8067D01*
X41167Y8300D01*
X40633Y8367D01*
X40333Y8233D01*
X40233Y8033D01*
X38600Y8067D01*
X33833Y12833D01*
X33867Y14667D01*
X34400Y15133D01*
X34433D01*
X34567Y14900D01*
X34633D01*
X34767Y14767D01*
X34933D01*
X35133Y14733D01*
X35500Y14900D01*
X35700Y15167D01*
Y15700D01*
X35367Y16067D01*
X35100Y16133D01*
G37*
%LPD*%
G36*
X40900Y8100D02*
X41033Y7967D01*
Y7733D01*
X40900Y7600D01*
X40633Y7633D01*
X40533Y7867D01*
X40600Y8033D01*
X40900Y8100D01*
G37*
%LPC*%
G36*
X28000Y7900D02*
X26633D01*
Y7633D01*
X28000D01*
Y7900D01*
G37*
%LPD*%
G36*
X42567Y8100D02*
X42700Y7967D01*
X42667Y7667D01*
X42367Y7600D01*
X42233Y7700D01*
Y7967D01*
X42367Y8100D01*
X42567D01*
G37*
%LPC*%
G36*
X49267Y16833D02*
X48867Y16767D01*
X48567Y16500D01*
X48500Y16100D01*
X48567Y15800D01*
X48600D01*
X48667Y15633D01*
X48733D01*
X48833Y15567D01*
Y15067D01*
X45667Y15100D01*
X45467Y15333D01*
X45100Y15400D01*
X44767Y15333D01*
X44533Y15133D01*
Y15067D01*
X43200Y15033D01*
X42167Y14000D01*
X42100Y9667D01*
X41933Y9533D01*
X41867Y9100D01*
X41900D01*
X42000Y8867D01*
X42033D01*
X42233Y8733D01*
X42767Y8767D01*
X43000Y8967D01*
X43067Y9333D01*
X42867Y9667D01*
Y13733D01*
X43500Y14367D01*
X44533D01*
X44767Y14100D01*
X44833D01*
X45233Y14033D01*
X45533Y14167D01*
X45700Y14367D01*
X48833D01*
X48800Y13700D01*
X48600Y13533D01*
X48467Y13100D01*
X48500D01*
X48567Y12767D01*
X48600D01*
X48800Y12533D01*
X48867D01*
X49100Y12433D01*
X49500Y12500D01*
X49800Y12800D01*
X49867Y13233D01*
X49700Y13600D01*
X49533Y13700D01*
X49567Y15600D01*
X49800Y15800D01*
X49867Y16267D01*
X49667Y16633D01*
X49433Y16800D01*
X49267Y16833D01*
G37*
%LPD*%
G36*
X42533Y9500D02*
X42700Y9367D01*
X42667Y9067D01*
X42333Y9000D01*
X42200Y9200D01*
X42300Y9467D01*
X42533Y9500D01*
G37*
%LPC*%
G36*
X35167Y14000D02*
X34700Y13933D01*
X34433Y13667D01*
X34367Y13267D01*
X34433Y12967D01*
X34467D01*
X34533Y12800D01*
X34600D01*
X34733Y12667D01*
X34833D01*
X35067Y12633D01*
X35433Y12667D01*
X39033Y9067D01*
X40233D01*
X40367Y8833D01*
X40433D01*
X40567Y8733D01*
X41133Y8767D01*
X41367Y9000D01*
Y9467D01*
X41100Y9733D01*
X40500D01*
X40233Y9433D01*
X39133Y9467D01*
X35667Y13000D01*
X35733Y13433D01*
X35533Y13800D01*
X35333Y13967D01*
X35167Y14000D01*
G37*
%LPD*%
G36*
X40867Y9500D02*
X41033Y9367D01*
Y9133D01*
X40900Y9000D01*
X40633Y9033D01*
X40533Y9267D01*
X40600Y9433D01*
X40867Y9500D01*
G37*
%LPC*%
G36*
X28000Y9033D02*
X26633D01*
Y8767D01*
X28000D01*
Y9033D01*
G37*
%LPC*%
G36*
X28767Y22667D02*
X28367Y22600D01*
X28100Y22367D01*
X28000Y22133D01*
X28067Y21633D01*
X28100D01*
X28167Y21467D01*
X28233D01*
X28367Y21333D01*
X28467D01*
X28533Y21300D01*
X28567Y19000D01*
X28600D01*
X31533Y16067D01*
Y8833D01*
X31300Y8767D01*
X31033Y8467D01*
Y7900D01*
X31067D01*
X31233Y7633D01*
X31300D01*
X31400Y7533D01*
X31533D01*
X31867Y7500D01*
X32233Y7733D01*
X32367Y8033D01*
X32300Y8533D01*
X32033Y8800D01*
X31900Y8833D01*
X31867Y16233D01*
X28900Y19200D01*
Y21333D01*
X29133Y21433D01*
X29333Y21700D01*
Y22267D01*
X29100Y22533D01*
X28933Y22633D01*
X28767Y22667D01*
G37*
%LPD*%
G36*
X31700Y8467D02*
X31933Y8333D01*
Y8033D01*
X31733Y7900D01*
X31500Y7967D01*
X31433Y8200D01*
X31500Y8400D01*
X31700Y8467D01*
G37*
%LPC*%
G36*
X29367Y8867D02*
X28867Y8800D01*
X28600Y8533D01*
X28533Y8167D01*
X28600Y7833D01*
X28633D01*
X28867Y7567D01*
X28933D01*
X29067Y7500D01*
X29033Y7333D01*
X28500Y6800D01*
X26633D01*
Y6533D01*
X27333D01*
X28733Y6500D01*
X29400Y7200D01*
X29433Y7533D01*
X29733Y7700D01*
X29867Y7900D01*
Y8467D01*
X29600Y8767D01*
X29367Y8867D01*
G37*
%LPD*%
G36*
X29233Y8467D02*
X29433Y8367D01*
X29467Y8167D01*
X29400Y7967D01*
X29167Y7933D01*
X29000Y8000D01*
X28967Y8233D01*
X29033Y8400D01*
X29233Y8467D01*
G37*
%LPC*%
G36*
X28000Y8467D02*
X26633D01*
Y8200D01*
X28000D01*
Y8467D01*
G37*
%LPC*%
G36*
X32967Y10833D02*
X32567Y10733D01*
X32300Y10467D01*
X32233Y10000D01*
X32267D01*
X32300Y9800D01*
X32333D01*
X32400Y9633D01*
X32467D01*
X32633Y9467D01*
X32767D01*
X32733Y7333D01*
X29500Y4100D01*
X25700Y4133D01*
X25467Y4367D01*
X25433Y5867D01*
X25167D01*
X25200Y4233D01*
X25233D01*
X25567Y3867D01*
X25633Y3767D01*
X25700D01*
X29600Y3733D01*
X33100Y7167D01*
X33133Y9467D01*
X33433Y9633D01*
X33567Y9833D01*
Y10433D01*
X33333Y10700D01*
X32967Y10833D01*
G37*
%LPD*%
G36*
X33000Y10400D02*
X33200Y10200D01*
X33133Y9933D01*
X32800Y9867D01*
X32667Y10000D01*
Y10267D01*
X32833Y10400D01*
X33000D01*
G37*
%LPC*%
G36*
X11067Y45267D02*
X10767Y45200D01*
X10533Y44933D01*
X7867Y44900D01*
X1000Y38033D01*
X933Y34900D01*
X667Y34667D01*
X633Y34267D01*
X700Y33967D01*
X733D01*
X900Y33767D01*
X967D01*
X933Y24133D01*
X700Y23933D01*
X600Y23467D01*
X633D01*
X700Y23200D01*
X733D01*
X967Y22967D01*
X933Y20233D01*
X667Y20000D01*
X633Y19600D01*
X700Y19300D01*
X733D01*
X933Y19067D01*
X1000D01*
X1333Y19000D01*
X1667Y19067D01*
X1900Y19300D01*
X2000Y19733D01*
X1800Y20167D01*
X1667Y20233D01*
Y21267D01*
X6567D01*
X7700Y20133D01*
X7767Y19833D01*
X7800D01*
X8000Y19600D01*
X8067D01*
X8367Y19467D01*
X8667Y19167D01*
X8733D01*
X10767Y19100D01*
X11767Y18100D01*
Y17633D01*
X11800D01*
X11967Y17367D01*
X12033D01*
X12267Y17233D01*
X12300Y14667D01*
X12333D01*
X14300Y12700D01*
X14333Y9533D01*
X14367D01*
X15700Y8167D01*
X15800D01*
X15867Y8133D01*
X20367Y8167D01*
Y7900D01*
X19833D01*
Y7633D01*
X21200D01*
Y7900D01*
X20667D01*
Y8200D01*
X21200D01*
Y8467D01*
X15900Y8500D01*
X14667Y9733D01*
X14633Y12900D01*
X12633Y14867D01*
Y17267D01*
X12867Y17367D01*
X13067Y17600D01*
X13100Y17933D01*
X13033Y18267D01*
X22033D01*
X23100Y17200D01*
X25633D01*
X25867Y16933D01*
X25933D01*
X26367Y16867D01*
X26733Y17067D01*
X26867Y17367D01*
X27567D01*
X29067Y15867D01*
Y12067D01*
X27700Y12100D01*
X26033Y13800D01*
X24500D01*
X24067Y13333D01*
Y11333D01*
X24333D01*
X24400Y13167D01*
X24700Y13467D01*
X25833D01*
X27600Y11700D01*
X29067D01*
Y10800D01*
X28767Y10667D01*
X28567Y10433D01*
X28533Y9933D01*
X28567D01*
X28700Y9633D01*
X28733D01*
X28933Y9467D01*
X29100D01*
X29300Y9433D01*
X29667Y9600D01*
X29867Y9867D01*
Y10400D01*
X29567Y10733D01*
X29433Y10767D01*
X29400Y16033D01*
X27767Y17700D01*
X26867Y17733D01*
X26767Y17967D01*
X26500Y18200D01*
X25933D01*
X25633Y17900D01*
X23333Y17933D01*
X21467Y19800D01*
X9733Y19867D01*
X7667Y21933D01*
X1667Y21967D01*
Y23000D01*
X1900Y23200D01*
X2000Y23633D01*
X1800Y24067D01*
X1667Y24133D01*
X1700Y33800D01*
X1867Y33933D01*
X1967Y34100D01*
Y34567D01*
X1733Y34900D01*
X1667D01*
X1700Y37767D01*
X8167Y44233D01*
X10567D01*
X10800Y43967D01*
X10933D01*
X11100Y43933D01*
X11433Y44133D01*
X11533Y44367D01*
X11500Y44967D01*
X11233Y45233D01*
X11067Y45267D01*
G37*
%LPD*%
G36*
X29300Y10400D02*
X29467Y10267D01*
Y10000D01*
X29333Y9867D01*
X29033Y9900D01*
X28933Y10200D01*
X29133Y10400D01*
X29300D01*
G37*
%LPD*%
G36*
X1733Y10400D02*
X1900Y10267D01*
Y10000D01*
X1767Y9867D01*
X1467Y9900D01*
X1367Y10167D01*
X1567Y10400D01*
X1733D01*
G37*
%LPC*%
G36*
X28000Y10133D02*
X26633D01*
Y9867D01*
X28000D01*
Y10133D01*
G37*
%LPC*%
G36*
X28000Y9567D02*
X26633D01*
Y9300D01*
X28000D01*
Y9567D01*
G37*
%LPD*%
G36*
X49267Y11633D02*
X49433Y11500D01*
X49400Y11200D01*
X49300Y11100D01*
X49000Y11133D01*
X48900Y11267D01*
X48967Y11567D01*
X49267Y11633D01*
G37*
%LPD*%
G36*
X12533Y11100D02*
X12700Y10933D01*
X12667Y10667D01*
X12533Y10567D01*
X12267Y10600D01*
X12167Y10733D01*
X12200Y11000D01*
X12300Y11100D01*
X12533D01*
G37*
%LPD*%
G36*
X44333Y12333D02*
X44500Y12167D01*
X44467Y11933D01*
X44333Y11800D01*
X44067Y11833D01*
X43967Y11967D01*
X44000Y12233D01*
X44100Y12333D01*
X44333D01*
G37*
%LPC*%
G36*
X34133Y18233D02*
X33700Y18200D01*
X33367Y17900D01*
X33300Y17400D01*
X33333D01*
X33400Y17167D01*
X33433D01*
X33633Y16933D01*
X33700D01*
X34133Y16867D01*
X34500Y17067D01*
X34567Y17200D01*
X35100D01*
X37367Y14933D01*
Y14533D01*
X37400D01*
X37533Y14233D01*
X37567D01*
X37767Y14067D01*
X37933D01*
X38167Y14033D01*
X38267D01*
X40033Y12267D01*
Y11800D01*
X40067D01*
X40233Y11533D01*
X40300D01*
X40467Y11400D01*
X40633D01*
X40733Y11367D01*
X41033Y11467D01*
X41267Y11667D01*
X41400Y12100D01*
X41267Y12467D01*
X40967Y12733D01*
X40500Y12767D01*
X38733Y14600D01*
X38667Y15033D01*
X38400Y15333D01*
X38033Y15400D01*
X37833Y15433D01*
X35400Y17867D01*
X34533Y17933D01*
X34333Y18167D01*
X34133Y18233D01*
G37*
%LPD*%
G36*
X40800Y12333D02*
X40967Y12167D01*
X40933Y11933D01*
X40800Y11800D01*
X40533Y11833D01*
X40433Y11967D01*
X40467Y12233D01*
X40567Y12333D01*
X40800D01*
G37*
%LPC*%
G36*
X26000Y12700D02*
X25733D01*
Y11333D01*
X26000D01*
Y12700D01*
G37*
%LPC*%
G36*
X25433Y12700D02*
X25167D01*
Y11333D01*
X25433D01*
Y12700D01*
G37*
%LPC*%
G36*
X23767Y12700D02*
X23500D01*
Y11333D01*
X23767D01*
Y12700D01*
G37*
%LPC*%
G36*
X23200Y12700D02*
X22933D01*
Y11333D01*
X23200D01*
Y12700D01*
G37*
%LPC*%
G36*
X22633Y12700D02*
X22367D01*
Y11333D01*
X22633D01*
Y12700D01*
G37*
%LPD*%
G36*
X49267Y13400D02*
X49433Y13267D01*
X49400Y12967D01*
X49300Y12867D01*
X49000Y12900D01*
X48900Y13033D01*
X48933Y13267D01*
X49067Y13400D01*
X49267D01*
G37*
%LPD*%
G36*
X35167Y13567D02*
X35300Y13433D01*
X35267Y13133D01*
X34967Y13033D01*
X34800Y13167D01*
Y13467D01*
X34900Y13567D01*
X35167D01*
G37*
%LPC*%
G36*
X21700Y15600D02*
X20100Y15567D01*
X19533Y14967D01*
Y12667D01*
X19567D01*
X20367Y11833D01*
Y10700D01*
X19833D01*
Y10433D01*
X20500D01*
X20567Y10400D01*
X21200Y10433D01*
Y10700D01*
X20667D01*
Y12067D01*
X19867Y12833D01*
X19900Y14833D01*
X20300Y15233D01*
X21567D01*
X21900Y14900D01*
X26133D01*
X27367Y13600D01*
X27300Y13267D01*
X27367Y12967D01*
X27400D01*
X27467Y12800D01*
X27533D01*
X27667Y12667D01*
X27767D01*
X28000Y12633D01*
X28333Y12700D01*
X28567Y12933D01*
X28667Y13433D01*
X28467Y13800D01*
X28267Y13967D01*
X27700D01*
X27567D01*
X26300Y15233D01*
X22000Y15300D01*
X21700Y15600D01*
G37*
%LPD*%
G36*
X28100Y13567D02*
X28233Y13433D01*
X28200Y13133D01*
X27900Y13033D01*
X27733Y13167D01*
Y13467D01*
X27833Y13567D01*
X28100D01*
G37*
%LPD*%
G36*
X21100Y14300D02*
X21333Y14167D01*
Y13867D01*
X21133Y13733D01*
X20900Y13800D01*
X20833Y14033D01*
X20900Y14233D01*
X21100Y14300D01*
G37*
%LPC*%
G36*
X17700Y14700D02*
X17200Y14633D01*
X16967Y14400D01*
X16867Y14167D01*
X16933Y13667D01*
X16967D01*
X17200Y13400D01*
X17267D01*
X17400Y13367D01*
X17433Y10000D01*
X17467D01*
X18200Y9300D01*
X18267D01*
X20533Y9267D01*
X21200Y9300D01*
Y9567D01*
X18267Y9600D01*
X17767Y10100D01*
Y13367D01*
X18100Y13567D01*
X18233Y13833D01*
X18167Y14367D01*
X17900Y14633D01*
X17700Y14700D01*
G37*
%LPD*%
G36*
X17567Y14300D02*
X17800Y14167D01*
Y13867D01*
X17600Y13733D01*
X17367Y13800D01*
X17300Y14033D01*
X17367Y14233D01*
X17567Y14300D01*
G37*
%LPD*%
G36*
X35133Y15700D02*
X35300Y15567D01*
X35267Y15267D01*
X35167Y15167D01*
X34867Y15200D01*
X34767Y15333D01*
X34833Y15633D01*
X35133Y15700D01*
G37*
%LPC*%
G36*
X21733Y17533D02*
X21300Y17467D01*
X21033Y17233D01*
X20967Y17033D01*
X19600Y17000D01*
X18833Y16233D01*
Y10200D01*
X18867D01*
X19267Y9833D01*
X21200Y9867D01*
Y10133D01*
X19300Y10167D01*
X19167Y10300D01*
X19200Y16100D01*
X19767Y16667D01*
X20967D01*
X21100Y16367D01*
X21133D01*
X21333Y16200D01*
X21433D01*
X21633Y16167D01*
X22033Y16200D01*
X22267Y15967D01*
X22333D01*
X27267Y15900D01*
X27367Y15733D01*
X27300Y15400D01*
X27367Y15067D01*
X27400D01*
X27600Y14833D01*
X27667D01*
X27700Y14767D01*
X27867D01*
X28067Y14733D01*
X28433Y14900D01*
X28633Y15167D01*
Y15700D01*
X28300Y16067D01*
X27900Y16100D01*
X27600Y16067D01*
X27367Y16300D01*
X22400Y16333D01*
X22233Y16567D01*
X22300Y17000D01*
X22100Y17367D01*
X21900Y17500D01*
X21733Y17533D01*
G37*
%LPD*%
G36*
X28067Y15700D02*
X28233Y15567D01*
X28200Y15267D01*
X28100Y15167D01*
X27800Y15200D01*
X27700Y15333D01*
X27767Y15633D01*
X28067Y15700D01*
G37*
%LPD*%
G36*
X45167Y15000D02*
X45367Y14867D01*
Y14600D01*
X45233Y14467D01*
X45000D01*
X44867Y14567D01*
Y14867D01*
X45033Y15000D01*
X45167D01*
G37*
%LPD*%
G36*
X38100Y15000D02*
X38300Y14867D01*
Y14600D01*
X38167Y14467D01*
X37933D01*
X37800Y14567D01*
Y14867D01*
X37967Y15000D01*
X38100D01*
G37*
%LPD*%
G36*
X52833Y16400D02*
X52967Y16267D01*
X52933Y15967D01*
X52800Y15867D01*
X52567Y15900D01*
X52433Y16067D01*
X52500Y16333D01*
X52833Y16400D01*
G37*
%LPD*%
G36*
X49300Y16400D02*
X49433Y16267D01*
X49400Y15967D01*
X49267Y15867D01*
X49033Y15900D01*
X48900Y16067D01*
X48967Y16333D01*
X49300Y16400D01*
G37*
%LPD*%
G36*
X34033Y17833D02*
X34233Y17667D01*
Y17433D01*
X34100Y17300D01*
X33833D01*
X33700Y17500D01*
X33767Y17733D01*
X34033Y17833D01*
G37*
%LPD*%
G36*
X26233Y17833D02*
X26433Y17733D01*
Y17367D01*
X26167Y17267D01*
X25933Y17467D01*
X26000Y17733D01*
X26233Y17833D01*
G37*
%LPD*%
G36*
X21633Y17133D02*
X21833Y17033D01*
X21867Y16833D01*
X21833Y16667D01*
X21567Y16567D01*
X21367Y16700D01*
Y16967D01*
X21500Y17100D01*
X21633Y17133D01*
G37*
%LPC*%
G36*
X14667Y17533D02*
X14233Y17467D01*
X13967Y17233D01*
X13867Y17000D01*
X13900Y16567D01*
X13933D01*
X14100Y16300D01*
X14167D01*
X14400Y16167D01*
X14433Y14933D01*
X14467D01*
X15633Y13767D01*
X15667Y10100D01*
X15700D01*
X17100Y8733D01*
X21200Y8767D01*
Y9033D01*
X17133Y9067D01*
X16000Y10200D01*
X15967Y13933D01*
X14767Y15133D01*
Y16200D01*
X15100Y16400D01*
X15233Y16700D01*
X15167Y17167D01*
X14933Y17433D01*
X14667Y17533D01*
G37*
%LPD*%
G36*
X14567Y17133D02*
X14767Y17033D01*
X14800Y16833D01*
X14767Y16667D01*
X14500Y16567D01*
X14300Y16700D01*
Y16967D01*
X14433Y17100D01*
X14567Y17133D01*
G37*
%LPC*%
G36*
X3167Y20367D02*
X2733Y20300D01*
X2433Y20000D01*
X2400Y19600D01*
X2467Y19300D01*
X2500D01*
X2700Y19067D01*
X2767D01*
X2833Y19033D01*
X2800Y18667D01*
X1967Y17833D01*
X1600Y17867D01*
X1300Y17800D01*
X1033Y17533D01*
X967Y17067D01*
X1000D01*
X1033Y16867D01*
X1067D01*
X1133Y16700D01*
X1200D01*
X1400Y16533D01*
X1567D01*
X1733Y16500D01*
X2100Y16667D01*
X2300Y16900D01*
X2333Y17500D01*
X3333Y18467D01*
X3367Y19067D01*
X3600Y19200D01*
X3733Y19433D01*
Y19900D01*
X3500Y20233D01*
X3333Y20333D01*
X3167Y20367D01*
G37*
%LPD*%
G36*
X1767Y17467D02*
X1900Y17333D01*
Y17067D01*
X1767Y16933D01*
X1500Y16967D01*
X1367Y17233D01*
X1533Y17467D01*
X1767D01*
G37*
%LPC*%
G36*
X42900Y22667D02*
X42500Y22600D01*
X42233Y22367D01*
X42133Y22133D01*
X42200Y21633D01*
X42233D01*
X42300Y21467D01*
X42367D01*
X42567Y21333D01*
X42600Y20600D01*
X42633D01*
X43267Y19933D01*
X44333D01*
Y19067D01*
X44067Y18933D01*
X43933Y18733D01*
Y18133D01*
X43967D01*
X44067Y17933D01*
X44133D01*
X44267Y17800D01*
X44367D01*
X44633Y17767D01*
X44933Y17833D01*
X45200Y18100D01*
X45267Y18567D01*
X45133Y18867D01*
X44867Y19067D01*
Y19933D01*
X49833D01*
X50333Y19433D01*
Y19067D01*
X50033Y18867D01*
X49900Y18567D01*
X49967Y18100D01*
X50000D01*
X50267Y17800D01*
X50367D01*
X50667Y17733D01*
X51033Y17900D01*
X51233Y18133D01*
Y18733D01*
X50967Y19033D01*
X50867Y19067D01*
X50833Y19667D01*
X50033Y20433D01*
X43400Y20500D01*
X43100Y20800D01*
X43133Y21367D01*
X43433Y21633D01*
X43500Y22100D01*
X43367Y22400D01*
X43067Y22633D01*
X42900Y22667D01*
G37*
%LPD*%
G36*
X50700Y18700D02*
X50867Y18500D01*
X50800Y18233D01*
X50467Y18167D01*
X50333Y18300D01*
X50367Y18600D01*
X50467Y18700D01*
X50700D01*
G37*
%LPD*%
G36*
X44667Y18667D02*
X44800Y18567D01*
X44767Y18267D01*
X44500Y18200D01*
X44367Y18300D01*
Y18567D01*
X44467Y18667D01*
X44667D01*
G37*
%LPC*%
G36*
X41133Y22667D02*
X40733Y22600D01*
X40467Y22367D01*
X40367Y22133D01*
X40433Y21633D01*
X40467D01*
X40533Y21467D01*
X40600D01*
X40800Y21333D01*
Y19067D01*
X40533Y18933D01*
X40400Y18733D01*
Y18600D01*
X38300Y18633D01*
X37600Y19367D01*
X32900D01*
X32067Y18500D01*
X32100Y16867D01*
X32133D01*
X32600Y16400D01*
X32633Y12100D01*
X32667D01*
X34367Y10400D01*
X34333Y6967D01*
X30767Y3400D01*
X25333Y3433D01*
X24933Y3833D01*
X24900Y5267D01*
X24867Y5867D01*
X24600D01*
X24667Y3700D01*
X24700D01*
X25333Y3033D01*
X30933Y3067D01*
X34700Y6833D01*
Y10567D01*
X32967Y12300D01*
X32933Y16567D01*
X32433Y17067D01*
X32467Y18400D01*
X33100Y19033D01*
X37400D01*
X38133Y18267D01*
X38233D01*
X40400Y18233D01*
X40500Y18000D01*
X40533D01*
X40633Y17867D01*
X40700D01*
X40833Y17767D01*
X41000D01*
X41100Y17733D01*
X41367Y17767D01*
X41400D01*
X42533Y16600D01*
X42600D01*
X46633Y16567D01*
X47900Y17767D01*
X48067D01*
X48167Y17733D01*
X48467Y17833D01*
X48733Y18100D01*
X48800Y18567D01*
X48667Y18867D01*
X48367Y19100D01*
X47867D01*
X47600Y18933D01*
X47467Y18733D01*
X47433Y18067D01*
X46467Y17100D01*
X42733Y17133D01*
X41700Y18167D01*
Y18733D01*
X41467Y19000D01*
X41333Y19067D01*
X41367Y21367D01*
X41667Y21633D01*
X41733Y22100D01*
X41600Y22400D01*
X41300Y22633D01*
X41133Y22667D01*
G37*
%LPD*%
G36*
X41133Y18667D02*
X41267Y18567D01*
X41233Y18267D01*
X40967Y18200D01*
X40833Y18300D01*
Y18567D01*
X40933Y18667D01*
X41133D01*
G37*
%LPD*%
G36*
X48233Y18700D02*
X48367Y18567D01*
Y18300D01*
X48233Y18167D01*
X47967Y18200D01*
X47833Y18367D01*
X47900Y18633D01*
X48233Y18700D01*
G37*
%LPD*%
G36*
X12533Y18167D02*
X12700Y18000D01*
X12667Y17767D01*
X12533Y17633D01*
X12267Y17667D01*
X12167Y17800D01*
X12200Y18067D01*
X12300Y18167D01*
X12533D01*
G37*
%LPD*%
G36*
X3167Y19933D02*
X3333Y19767D01*
X3300Y19500D01*
X3167Y19400D01*
X2900Y19433D01*
X2800Y19567D01*
X2833Y19833D01*
X2933Y19933D01*
X3167D01*
G37*
%LPD*%
G36*
X1400Y19933D02*
X1567Y19767D01*
X1533Y19500D01*
X1400Y19400D01*
X1133Y19433D01*
X1033Y19567D01*
X1067Y19833D01*
X1167Y19933D01*
X1400D01*
G37*
%LPC*%
G36*
X30533Y22667D02*
X30133Y22600D01*
X29867Y22367D01*
X29767Y22133D01*
X29833Y21633D01*
X29867D01*
X29933Y21467D01*
X30000D01*
X30200Y21333D01*
X30167Y20300D01*
X29933Y20167D01*
X29800Y19967D01*
Y19400D01*
X29833D01*
X30033Y19100D01*
X30100D01*
X30233Y19000D01*
X30400D01*
X30500Y18967D01*
X30800Y19067D01*
X31067Y19333D01*
X31133Y19833D01*
X30933Y20200D01*
X30733Y20300D01*
X30767Y21367D01*
X31067Y21633D01*
X31133Y22100D01*
X31000Y22400D01*
X30700Y22633D01*
X30533Y22667D01*
G37*
%LPD*%
G36*
X30567Y19933D02*
X30700Y19800D01*
Y19533D01*
X30533Y19400D01*
X30267Y19467D01*
X30167Y19700D01*
X30267Y19900D01*
X30567Y19933D01*
G37*
%LPC*%
G36*
X3133Y24267D02*
X2700Y24167D01*
X2467Y23933D01*
X2367Y23467D01*
X2400D01*
X2467Y23200D01*
X2500D01*
X2733Y22933D01*
X2800D01*
X3167Y22867D01*
X3400Y22900D01*
X3900Y22400D01*
X7967D01*
X10033Y20300D01*
X10133D01*
X22500Y20233D01*
X22733Y20000D01*
Y19400D01*
X22767D01*
X22967Y19100D01*
X23033D01*
X23167Y19000D01*
X23333D01*
X23433Y18967D01*
X23733Y19067D01*
X24000Y19333D01*
X24067Y19833D01*
X23867Y20200D01*
X23667Y20333D01*
X23067Y20367D01*
X22633Y20800D01*
X10233Y20833D01*
X8133Y22933D01*
X4033Y22967D01*
X3733Y23333D01*
Y23800D01*
X3533Y24100D01*
X3300Y24233D01*
X3133Y24267D01*
G37*
%LPD*%
G36*
X23500Y19933D02*
X23633Y19800D01*
Y19533D01*
X23467Y19400D01*
X23200Y19467D01*
X23100Y19700D01*
X23200Y19900D01*
X23500Y19933D01*
G37*
%LPD*%
G36*
X8467Y20467D02*
X8633Y20300D01*
X8600Y20033D01*
X8467Y19933D01*
X8200Y19967D01*
X8100Y20100D01*
X8133Y20367D01*
X8233Y20467D01*
X8467D01*
G37*
%LPD*%
G36*
X4933Y20467D02*
X5100Y20300D01*
X5067Y20033D01*
X4933Y19933D01*
X4667Y19967D01*
X4567Y20100D01*
X4600Y20367D01*
X4700Y20467D01*
X4933D01*
G37*
%LPD*%
G36*
X50700Y22233D02*
X50867Y22033D01*
X50800Y21767D01*
X50467Y21700D01*
X50333Y21833D01*
X50367Y22133D01*
X50467Y22233D01*
X50700D01*
G37*
%LPD*%
G36*
X48233Y22233D02*
X48367Y22100D01*
Y21833D01*
X48233Y21700D01*
X47967Y21733D01*
X47833Y21933D01*
X47900Y22167D01*
X48233Y22233D01*
G37*
%LPD*%
G36*
X44700Y22233D02*
X44833Y22100D01*
Y21833D01*
X44700Y21700D01*
X44433Y21733D01*
X44300Y21933D01*
X44367Y22167D01*
X44700Y22233D01*
G37*
%LPD*%
G36*
X42933Y22233D02*
X43067Y22100D01*
Y21833D01*
X42933Y21700D01*
X42667Y21733D01*
X42533Y21933D01*
X42600Y22167D01*
X42933Y22233D01*
G37*
%LPD*%
G36*
X41167Y22233D02*
X41300Y22100D01*
Y21833D01*
X41167Y21700D01*
X40900Y21733D01*
X40767Y21933D01*
X40833Y22167D01*
X41167Y22233D01*
G37*
%LPC*%
G36*
X42367Y45267D02*
X42067Y45200D01*
X41833Y44967D01*
Y44233D01*
X41867D01*
X42100Y43967D01*
X42233D01*
X42400Y43933D01*
X42633Y44067D01*
X45233D01*
X51500Y37800D01*
X51467Y29067D01*
X48067Y25667D01*
X39867Y25633D01*
X39167Y24933D01*
X39133Y22633D01*
X38767Y22467D01*
X38633Y22267D01*
Y21667D01*
X38667D01*
X38767Y21467D01*
X38833D01*
X38967Y21333D01*
X39067D01*
X39333Y21300D01*
X39633Y21367D01*
X39900Y21633D01*
X39967Y22100D01*
X39833Y22400D01*
X39500Y22633D01*
X39533Y24767D01*
X40067Y25300D01*
X48233Y25333D01*
X51833Y28933D01*
Y37967D01*
X45400Y44400D01*
X42833Y44433D01*
X42800Y44967D01*
X42533Y45233D01*
X42367Y45267D01*
G37*
%LPD*%
G36*
X39400Y22233D02*
X39533Y22100D01*
Y21833D01*
X39400Y21700D01*
X39133Y21733D01*
X39000Y21933D01*
X39067Y22167D01*
X39400Y22233D01*
G37*
%LPC*%
G36*
X41367Y46300D02*
X41000Y46233D01*
X40800Y46000D01*
Y45300D01*
X40833D01*
X40900Y45133D01*
X40967D01*
X41133Y45033D01*
X41167Y43667D01*
X41200D01*
X41667Y43200D01*
X41733D01*
X45100Y43133D01*
X50767Y37467D01*
X50733Y29400D01*
X47733Y26400D01*
X38867Y26367D01*
X37400Y24933D01*
X37367Y22633D01*
X37000Y22467D01*
X36867Y22267D01*
Y21667D01*
X36900D01*
X37000Y21467D01*
X37067D01*
X37200Y21333D01*
X37300D01*
X37567Y21300D01*
X37867Y21367D01*
X38133Y21633D01*
X38200Y22100D01*
X38067Y22400D01*
X37733Y22633D01*
X37767Y24767D01*
X39033Y26033D01*
X47933Y26067D01*
X51133Y29300D01*
X51100Y37667D01*
X45267Y43500D01*
X41800Y43567D01*
X41500Y43867D01*
X41533Y45100D01*
X41767Y45300D01*
Y46000D01*
X41500Y46267D01*
X41367Y46300D01*
G37*
%LPD*%
G36*
X37633Y22233D02*
X37767Y22100D01*
Y21833D01*
X37633Y21700D01*
X37367Y21733D01*
X37233Y21933D01*
X37300Y22167D01*
X37633Y22233D01*
G37*
%LPC*%
G36*
X21233Y28133D02*
X20733Y28067D01*
X20500Y27833D01*
X20400Y27600D01*
X20467Y27133D01*
X20500D01*
X20633Y26900D01*
X20700D01*
X20800Y26800D01*
X20933D01*
X21233Y26767D01*
X21600Y26967D01*
X21733Y27267D01*
X31800D01*
X35600Y23467D01*
Y22633D01*
X35233Y22467D01*
X35100Y22267D01*
Y21667D01*
X35133D01*
X35233Y21467D01*
X35300D01*
X35433Y21333D01*
X35533D01*
X35800Y21300D01*
X36100Y21367D01*
X36367Y21633D01*
X36433Y22100D01*
X36300Y22400D01*
X35967Y22633D01*
X35933Y23667D01*
X32000Y27600D01*
X21733Y27633D01*
X21600Y27933D01*
X21367Y28100D01*
X21233Y28133D01*
G37*
%LPD*%
G36*
X35867Y22233D02*
X36000Y22100D01*
Y21833D01*
X35867Y21700D01*
X35600Y21733D01*
X35467Y21933D01*
X35533Y22167D01*
X35867Y22233D01*
G37*
%LPC*%
G36*
X22600Y26733D02*
X22167Y26667D01*
X21867Y26367D01*
X21833Y25967D01*
X21900Y25667D01*
X21933D01*
X22133Y25433D01*
X22200D01*
X22567Y25333D01*
X23000Y25533D01*
X23167Y25833D01*
X31467D01*
X33833Y23467D01*
Y22633D01*
X33467Y22467D01*
X33333Y22267D01*
Y21667D01*
X33367D01*
X33467Y21467D01*
X33533D01*
X33667Y21333D01*
X33767D01*
X34033Y21300D01*
X34333Y21367D01*
X34600Y21633D01*
X34667Y22100D01*
X34533Y22400D01*
X34200Y22633D01*
X34167Y23667D01*
X31600Y26200D01*
X23167D01*
X22967Y26567D01*
X22767Y26700D01*
X22600Y26733D01*
G37*
%LPD*%
G36*
X34100Y22233D02*
X34233Y22100D01*
Y21833D01*
X34100Y21700D01*
X33833Y21733D01*
X33700Y21933D01*
X33767Y22167D01*
X34100Y22233D01*
G37*
%LPC*%
G36*
X23933Y25333D02*
X23567Y25233D01*
X23333Y25033D01*
X23233Y24600D01*
X23300Y24267D01*
X23333D01*
X23567Y24000D01*
X23633D01*
X24033Y23933D01*
X24333Y24067D01*
X24567Y24333D01*
Y24433D01*
X31100D01*
X32067Y23467D01*
Y22633D01*
X31700Y22467D01*
X31567Y22267D01*
Y21667D01*
X31600D01*
X31700Y21467D01*
X31767D01*
X31900Y21333D01*
X32000D01*
X32267Y21300D01*
X32567Y21367D01*
X32833Y21633D01*
X32900Y22100D01*
X32767Y22400D01*
X32433Y22633D01*
X32400Y23667D01*
X31300Y24767D01*
X24567Y24800D01*
X24467Y25033D01*
X24200Y25267D01*
X23933Y25333D01*
G37*
%LPD*%
G36*
X32333Y22233D02*
X32467Y22100D01*
Y21833D01*
X32333Y21700D01*
X32067Y21733D01*
X31933Y22000D01*
X32000Y22167D01*
X32333Y22233D01*
G37*
%LPD*%
G36*
X30567Y22233D02*
X30700Y22100D01*
Y21833D01*
X30567Y21700D01*
X30300Y21733D01*
X30167Y22000D01*
X30233Y22167D01*
X30567Y22233D01*
G37*
%LPD*%
G36*
X28800Y22233D02*
X28933Y22100D01*
Y21833D01*
X28800Y21700D01*
X28533Y21733D01*
X28400Y22000D01*
X28467Y22167D01*
X28800Y22233D01*
G37*
%LPC*%
G36*
X27000Y22667D02*
X26600Y22600D01*
X26333Y22367D01*
X26233Y22133D01*
X26300Y21633D01*
X26333D01*
X26400Y21467D01*
X26467D01*
X26600Y21333D01*
X26700D01*
X26767Y21300D01*
X26800Y19333D01*
X26833D01*
X30300Y15867D01*
X30267Y6800D01*
X28833Y5367D01*
X26000Y5333D01*
Y5867D01*
X25733D01*
Y4500D01*
X26000D01*
Y5033D01*
X27067D01*
X28933Y5000D01*
X30633Y6667D01*
Y16067D01*
X27133Y19533D01*
Y21333D01*
X27367Y21433D01*
X27567Y21700D01*
Y22267D01*
X27333Y22533D01*
X27167Y22633D01*
X27000Y22667D01*
G37*
%LPD*%
G36*
X27033Y22233D02*
X27167Y22100D01*
Y21833D01*
X27033Y21700D01*
X26767Y21733D01*
X26633Y22000D01*
X26700Y22167D01*
X27033Y22233D01*
G37*
%LPC*%
G36*
X25233Y22667D02*
X24833Y22600D01*
X24567Y22367D01*
X24467Y22133D01*
X24533Y21633D01*
X24567D01*
X24633Y21467D01*
X24700D01*
X24833Y21333D01*
X24933D01*
X25200Y21300D01*
X25500Y21367D01*
X25767Y21633D01*
X25833Y22100D01*
X25700Y22400D01*
X25400Y22633D01*
X25233Y22667D01*
G37*
%LPD*%
G36*
X25267Y22233D02*
X25400Y22100D01*
Y21833D01*
X25267Y21700D01*
X25000Y21733D01*
X24867Y22000D01*
X24933Y22167D01*
X25267Y22233D01*
G37*
%LPC*%
G36*
X23600Y45267D02*
X23300Y45200D01*
X23067Y44967D01*
Y44233D01*
X23100D01*
X23167Y44067D01*
X23233D01*
X23367Y43967D01*
X23333Y43533D01*
X16100Y36300D01*
X11833Y36267D01*
X9467Y33900D01*
Y31767D01*
X9500D01*
X13733Y27467D01*
X13833D01*
X18767Y27400D01*
X23233Y22933D01*
Y22633D01*
X22867Y22467D01*
X22733Y22267D01*
Y21667D01*
X22767D01*
X22867Y21467D01*
X22933D01*
X23067Y21333D01*
X23167D01*
X23433Y21300D01*
X23733Y21367D01*
X24000Y21633D01*
X24067Y22100D01*
X23933Y22400D01*
X23600Y22633D01*
X23567Y23133D01*
X18867Y27800D01*
X13900Y27833D01*
X9800Y31933D01*
X9833Y33767D01*
X12000Y35933D01*
X16300Y35967D01*
X23733Y43433D01*
X23767Y44000D01*
X24000Y44200D01*
X24067Y44767D01*
X23900Y45133D01*
X23600Y45267D01*
G37*
%LPD*%
G36*
X23500Y22233D02*
X23633Y22100D01*
Y21833D01*
X23500Y21700D01*
X23233Y21733D01*
X23100Y22000D01*
X23167Y22167D01*
X23500Y22233D01*
G37*
%LPC*%
G36*
X22600Y46300D02*
X22233Y46233D01*
X22000Y45967D01*
Y45333D01*
X22033D01*
X22167Y45100D01*
X22233D01*
X22333Y45033D01*
X22300Y43567D01*
X15733Y37000D01*
X11467Y36967D01*
X8767Y34267D01*
Y31400D01*
X8800D01*
X13367Y26767D01*
X13467D01*
X17700Y26700D01*
X21467Y22933D01*
Y22633D01*
X21100Y22467D01*
X20967Y22267D01*
Y21667D01*
X21000D01*
X21100Y21467D01*
X21167D01*
X21300Y21333D01*
X21400D01*
X21667Y21300D01*
X21967Y21367D01*
X22233Y21633D01*
X22300Y22100D01*
X22167Y22400D01*
X21833Y22633D01*
X21800Y23133D01*
X17867Y27067D01*
X13533Y27133D01*
X9100Y31567D01*
X9133Y34133D01*
X11633Y36633D01*
X15933Y36667D01*
X22700Y43467D01*
X22733Y45067D01*
X22967Y45267D01*
X23033Y45767D01*
X22933Y46067D01*
X22733Y46267D01*
X22600Y46300D01*
G37*
%LPD*%
G36*
X21733Y22233D02*
X21867Y22100D01*
Y21833D01*
X21733Y21700D01*
X21467Y21733D01*
X21333Y22000D01*
X21400Y22167D01*
X21733Y22233D01*
G37*
%LPC*%
G36*
X21500Y45267D02*
X21200Y45200D01*
X20967Y44933D01*
Y44233D01*
X21000D01*
X21233Y43967D01*
X21300D01*
X21267Y43567D01*
X15400Y37700D01*
X11100Y37667D01*
X8033Y34567D01*
X8067Y31033D01*
X8100D01*
X13000Y26067D01*
X13100D01*
X16633Y26000D01*
X19700Y22933D01*
Y22633D01*
X19333Y22467D01*
X19200Y22267D01*
Y21667D01*
X19233D01*
X19333Y21467D01*
X19400D01*
X19533Y21333D01*
X19633D01*
X19900Y21300D01*
X20200Y21367D01*
X20467Y21633D01*
X20533Y22100D01*
X20400Y22400D01*
X20067Y22633D01*
X20033Y23133D01*
X16800Y26367D01*
X13167Y26433D01*
X8400Y31233D01*
X8433Y34467D01*
X11300Y37333D01*
X15600Y37367D01*
X21633Y43433D01*
X21667Y44000D01*
X21933Y44233D01*
Y44967D01*
X21667Y45233D01*
X21500Y45267D01*
G37*
%LPD*%
G36*
X19967Y22233D02*
X20100Y22100D01*
Y21833D01*
X19967Y21700D01*
X19700Y21733D01*
X19567Y22000D01*
X19633Y22167D01*
X19967Y22233D01*
G37*
%LPC*%
G36*
X20500Y46300D02*
X20133Y46233D01*
X19900Y45967D01*
Y45333D01*
X19933D01*
X20067Y45100D01*
X20133D01*
X20233Y45033D01*
X20200Y43567D01*
X15033Y38400D01*
X10733Y38367D01*
X7333Y34933D01*
X7367Y30667D01*
X7400D01*
X12733Y25333D01*
X12800D01*
X15600Y25267D01*
X17933Y22933D01*
Y22633D01*
X17567Y22467D01*
X17433Y22267D01*
Y21667D01*
X17467D01*
X17567Y21467D01*
X17633D01*
X17767Y21333D01*
X17867D01*
X18133Y21300D01*
X18433Y21367D01*
X18700Y21633D01*
X18767Y22100D01*
X18633Y22400D01*
X18300Y22633D01*
X18267Y23133D01*
X15700Y25667D01*
X12867Y25700D01*
X7700Y30867D01*
X7733Y34833D01*
X10933Y38033D01*
X15200Y38067D01*
X20567Y43400D01*
X20633Y45067D01*
X20867Y45267D01*
Y46033D01*
X20633Y46267D01*
X20500Y46300D01*
G37*
%LPD*%
G36*
X18200Y22233D02*
X18333Y22100D01*
Y21833D01*
X18200Y21700D01*
X17933Y21733D01*
X17800Y22000D01*
X17867Y22167D01*
X18200Y22233D01*
G37*
%LPC*%
G36*
X19400Y45267D02*
X19100Y45200D01*
X18867Y44967D01*
Y44233D01*
X18900D01*
X19133Y43967D01*
X19200D01*
X19167Y43600D01*
X14667Y39100D01*
X10367Y39067D01*
X6633Y35300D01*
X6667Y30300D01*
X6700D01*
X12333Y24633D01*
X12433D01*
X14533Y24567D01*
X16167Y22933D01*
Y22633D01*
X15800Y22467D01*
X15667Y22267D01*
Y21667D01*
X15700D01*
X15800Y21467D01*
X15867D01*
X16000Y21333D01*
X16100D01*
X16367Y21300D01*
X16667Y21367D01*
X16933Y21633D01*
X17000Y22100D01*
X16867Y22400D01*
X16533Y22633D01*
X16500Y23133D01*
X14633Y24967D01*
X12500Y25000D01*
X7000Y30500D01*
X7033Y35200D01*
X10567Y38733D01*
X14833Y38767D01*
X19533Y43433D01*
X19600Y44033D01*
X19833Y44233D01*
Y44967D01*
X19567Y45233D01*
X19400Y45267D01*
G37*
%LPD*%
G36*
X16433Y22233D02*
X16567Y22100D01*
Y21833D01*
X16433Y21700D01*
X16167Y21733D01*
X16033Y22000D01*
X16100Y22167D01*
X16433Y22233D01*
G37*
%LPC*%
G36*
X18400Y46300D02*
X18033Y46233D01*
X17833Y46000D01*
Y45300D01*
X17867D01*
X17933Y45133D01*
X18000D01*
X18167Y45033D01*
X18133Y43633D01*
X14333Y39833D01*
X10067Y39800D01*
X5933Y35667D01*
Y30000D01*
X5967D01*
X11967Y23933D01*
X12067D01*
X13467Y23867D01*
X14400Y22933D01*
Y22633D01*
X14033Y22467D01*
X13900Y22267D01*
Y21667D01*
X13933D01*
X14033Y21467D01*
X14100D01*
X14233Y21333D01*
X14333D01*
X14600Y21300D01*
X14900Y21367D01*
X15167Y21633D01*
X15233Y22100D01*
X15100Y22400D01*
X14767Y22633D01*
X14733Y23133D01*
X13567Y24267D01*
X12133Y24300D01*
X6267Y30167D01*
X6300Y35533D01*
X10233Y39467D01*
X14533Y39500D01*
X18500Y43500D01*
X18567Y45100D01*
X18800Y45300D01*
Y46000D01*
X18533Y46267D01*
X18400Y46300D01*
G37*
%LPD*%
G36*
X14667Y22233D02*
X14800Y22100D01*
Y21833D01*
X14667Y21700D01*
X14400Y21733D01*
X14267Y22000D01*
X14333Y22167D01*
X14667Y22233D01*
G37*
%LPC*%
G36*
X17333Y45267D02*
X16967Y45167D01*
X16767Y44900D01*
Y44300D01*
X16800D01*
X16900Y44067D01*
X16967D01*
X17100Y43967D01*
X17067Y43633D01*
X13967Y40533D01*
X9700Y40500D01*
X5233Y36033D01*
Y29633D01*
X5267D01*
X11600Y23233D01*
X11700D01*
X12400Y23167D01*
X12633Y22933D01*
Y22633D01*
X12267Y22467D01*
X12133Y22267D01*
Y21667D01*
X12167D01*
X12267Y21467D01*
X12333D01*
X12467Y21333D01*
X12567D01*
X12833Y21300D01*
X13133Y21367D01*
X13400Y21633D01*
X13467Y22100D01*
X13333Y22400D01*
X13000Y22633D01*
X12967Y23133D01*
X12567Y23533D01*
X11767Y23600D01*
X5567Y29800D01*
X5600Y35900D01*
X9867Y40167D01*
X14167Y40200D01*
X17467Y43533D01*
Y44000D01*
X17667Y44100D01*
X17767Y44267D01*
Y44933D01*
X17533Y45200D01*
X17333Y45267D01*
G37*
%LPD*%
G36*
X12900Y22233D02*
X13033Y22100D01*
Y21833D01*
X12900Y21700D01*
X12633Y21733D01*
X12500Y22000D01*
X12567Y22167D01*
X12900Y22233D01*
G37*
%LPC*%
G36*
X16333Y46300D02*
X15967Y46233D01*
X15733Y46000D01*
Y45300D01*
X15767D01*
X16000Y45033D01*
X16067D01*
X16033Y43633D01*
X13633Y41233D01*
X9300Y41200D01*
X4533Y36433D01*
Y29233D01*
X4567D01*
X10867Y22933D01*
Y22633D01*
X10500Y22467D01*
X10367Y22267D01*
Y21667D01*
X10400D01*
X10500Y21467D01*
X10567D01*
X10700Y21333D01*
X10800D01*
X11067Y21300D01*
X11367Y21367D01*
X11633Y21633D01*
X11700Y22100D01*
X11567Y22400D01*
X11233Y22633D01*
X11200Y23133D01*
X4867Y29433D01*
X4900Y36267D01*
X9500Y40867D01*
X13800Y40900D01*
X16400Y43467D01*
X16433Y45067D01*
X16600Y45133D01*
X16733Y45367D01*
X16700Y46000D01*
X16500Y46233D01*
X16333Y46300D01*
G37*
%LPD*%
G36*
X11133Y22233D02*
X11267Y22100D01*
Y21833D01*
X11133Y21700D01*
X10867Y21733D01*
X10733Y22000D01*
X10800Y22167D01*
X11133Y22233D01*
G37*
%LPD*%
G36*
X3167Y23833D02*
X3333Y23667D01*
X3300Y23400D01*
X3200Y23300D01*
X2900Y23333D01*
X2800Y23467D01*
X2833Y23733D01*
X2967Y23833D01*
X3167D01*
G37*
%LPD*%
G36*
X1400Y23833D02*
X1567Y23667D01*
X1533Y23400D01*
X1433Y23300D01*
X1133Y23333D01*
X1033Y23467D01*
X1067Y23733D01*
X1200Y23833D01*
X1400D01*
G37*
%LPD*%
G36*
X23967Y24900D02*
X24167Y24733D01*
Y24500D01*
X24033Y24367D01*
X23800D01*
X23667Y24467D01*
Y24767D01*
X23833Y24900D01*
X23967D01*
G37*
%LPC*%
G36*
X13167Y45267D02*
X12800Y45167D01*
X12600Y44933D01*
Y44267D01*
X12633D01*
X12733Y44067D01*
X12800D01*
X12933Y43967D01*
X12900Y43700D01*
X12567Y43367D01*
X8300Y43333D01*
X2400Y37433D01*
Y26100D01*
X2433D01*
X4000Y24467D01*
X4100D01*
X6833Y24433D01*
X6967Y24133D01*
X7000D01*
X7200Y23967D01*
X7333D01*
X7633Y23933D01*
X8000Y24133D01*
X8133Y24333D01*
Y24900D01*
X7833Y25233D01*
X7467Y25300D01*
X7133Y25233D01*
X6867Y24967D01*
X6833Y24800D01*
X4167Y24833D01*
X2733Y26267D01*
X2767Y37300D01*
X8467Y43000D01*
X12767Y43033D01*
X13300Y43600D01*
Y44000D01*
X13500Y44100D01*
X13600Y44267D01*
Y44933D01*
X13367Y45200D01*
X13167Y45267D01*
G37*
%LPD*%
G36*
X7533Y24900D02*
X7733Y24767D01*
Y24500D01*
X7600Y24367D01*
X7367D01*
X7200Y24567D01*
X7267Y24800D01*
X7533Y24900D01*
G37*
%LPD*%
G36*
X22600Y26300D02*
X22767Y26133D01*
X22733Y25867D01*
X22600Y25767D01*
X22333Y25800D01*
X22233Y25933D01*
X22267Y26200D01*
X22367Y26300D01*
X22600D01*
G37*
%LPC*%
G36*
X14233Y46300D02*
X13867Y46233D01*
X13633Y45933D01*
X13667Y45300D01*
X13700D01*
X13767Y45133D01*
X13833D01*
X14000Y45033D01*
X13967Y43700D01*
X12933Y42667D01*
X8667Y42633D01*
X3100Y37067D01*
X3133Y26767D01*
X3167D01*
X4067Y25867D01*
X4133D01*
X5433Y25800D01*
X5600Y25500D01*
X5667D01*
X5833Y25367D01*
X6000D01*
X6133Y25333D01*
X6567Y25533D01*
X6733Y25800D01*
Y26300D01*
X6400Y26667D01*
X5967Y26733D01*
X5667Y26600D01*
X5433Y26333D01*
X5400Y26200D01*
X4200Y26233D01*
X3467Y26967D01*
X3500Y36967D01*
X8833Y42300D01*
X13133Y42333D01*
X14333Y43567D01*
X14400Y45100D01*
X14633Y45300D01*
Y46000D01*
X14367Y46267D01*
X14233Y46300D01*
G37*
%LPD*%
G36*
X6167Y26300D02*
X6333Y26133D01*
X6300Y25867D01*
X6167Y25767D01*
X5900Y25800D01*
X5800Y25933D01*
X5833Y26200D01*
X5967Y26300D01*
X6167D01*
G37*
%LPD*%
G36*
X21133Y27733D02*
X21333Y27600D01*
Y27300D01*
X21067Y27167D01*
X20867Y27267D01*
X20833Y27500D01*
X20900Y27667D01*
X21133Y27733D01*
G37*
%LPC*%
G36*
X15233Y45267D02*
X14933Y45200D01*
X14700Y44967D01*
Y44233D01*
X14733D01*
X14967Y43967D01*
X15033D01*
X15000Y43667D01*
X13267Y41933D01*
X8967Y41900D01*
X3800Y36700D01*
X3833Y28000D01*
X3867D01*
X4033Y27767D01*
X3967Y27300D01*
X4000D01*
X4033Y27133D01*
X4067D01*
X4167Y26933D01*
X4233D01*
X4367Y26800D01*
X4500D01*
X4800Y26767D01*
X5167Y26967D01*
X5333Y27267D01*
Y27633D01*
X5100Y28000D01*
X4800Y28133D01*
X4267Y28100D01*
X4167Y28200D01*
X4200Y36600D01*
X9167Y41567D01*
X13433Y41600D01*
X15367Y43533D01*
X15433Y44033D01*
X15667Y44233D01*
Y44967D01*
X15400Y45233D01*
X15233Y45267D01*
G37*
%LPD*%
G36*
X4700Y27733D02*
X4900Y27600D01*
Y27300D01*
X4633Y27167D01*
X4433Y27267D01*
X4400Y27467D01*
X4467Y27667D01*
X4700Y27733D01*
G37*
%LPC*%
G36*
X22667Y29867D02*
X22200Y29833D01*
X22067Y29700D01*
X22100Y29433D01*
X22667D01*
X22600Y29300D01*
X22233Y29267D01*
Y29133D01*
X22700Y29167D01*
X22833Y29333D01*
X22800Y29733D01*
X22667Y29867D01*
G37*
%LPD*%
G36*
X22600Y29700D02*
X22667Y29600D01*
X22267Y29633D01*
X22300Y29700D01*
X22600D01*
G37*
%LPC*%
G36*
X19133Y29867D02*
X18667Y29833D01*
X18533Y29700D01*
X18567Y29433D01*
X19133D01*
X19067Y29300D01*
X18700Y29267D01*
Y29133D01*
X19167Y29167D01*
X19300Y29333D01*
X19267Y29733D01*
X19133Y29867D01*
G37*
%LPD*%
G36*
X19067Y29700D02*
X19133Y29600D01*
X18733Y29633D01*
X18767Y29700D01*
X19067D01*
G37*
%LPC*%
G36*
X31333Y30167D02*
X30733Y30133D01*
X30600Y30000D01*
X30633Y29700D01*
X30667D01*
Y29600D01*
X30600Y29567D01*
X30633Y29267D01*
X30667D01*
X30767Y29133D01*
X31333D01*
Y30167D01*
G37*
%LPD*%
G36*
X31200Y29567D02*
Y29300D01*
X30800Y29333D01*
Y29533D01*
X31200Y29567D01*
G37*
%LPC*%
G36*
X29433Y29867D02*
X28967Y29833D01*
X28833Y29700D01*
X28867Y29133D01*
X29467Y29167D01*
X29567Y29367D01*
X29400Y29600D01*
X29033Y29633D01*
X29067Y29700D01*
X29433Y29733D01*
Y29867D01*
G37*
%LPD*%
G36*
X29333Y29433D02*
X29367Y29333D01*
X29000Y29300D01*
Y29433D01*
X29333D01*
G37*
%LPC*%
G36*
X25300Y29867D02*
X24833Y29833D01*
X24700Y29700D01*
X24733Y29133D01*
X25333Y29167D01*
X25467Y29300D01*
X25400Y29467D01*
X25267Y29600D01*
X24900Y29633D01*
X24933Y29700D01*
X25300Y29733D01*
Y29867D01*
G37*
%LPD*%
G36*
X25200Y29433D02*
X25233Y29333D01*
X24867Y29300D01*
Y29433D01*
X25200D01*
G37*
%LPC*%
G36*
X17500Y29433D02*
X17233D01*
Y29133D01*
X17500D01*
Y29433D01*
G37*
%LPC*%
G36*
X16000Y29433D02*
X15733Y29400D01*
X15767Y29133D01*
X16067Y29167D01*
X16033Y29400D01*
X16000Y29433D01*
G37*
%LPC*%
G36*
X27067Y30167D02*
X26333D01*
X26367Y30000D01*
X26900D01*
Y29733D01*
X26633Y29700D01*
X26667Y29567D01*
X26900D01*
X26933Y29133D01*
X27067Y29167D01*
Y30167D01*
G37*
%LPC*%
G36*
X32067Y30167D02*
X31600Y30133D01*
X31500Y30033D01*
X31533Y29867D01*
X31700Y30000D01*
X32000D01*
X32067Y29933D01*
X32033Y29333D01*
X31700D01*
X31667Y29567D01*
X31933Y29600D01*
X31900Y29733D01*
X31500D01*
X31533Y29267D01*
X31567D01*
X31667Y29133D01*
X32100Y29167D01*
X32233Y29300D01*
X32200Y30033D01*
X32067Y30167D01*
G37*
%LPC*%
G36*
X30300Y30167D02*
X29833Y30133D01*
X29733Y30033D01*
X29767Y29867D01*
X29933Y30000D01*
X30233D01*
X30300Y29933D01*
X30267Y29333D01*
X29933D01*
X29867Y29433D01*
X29733Y29400D01*
X29800Y29233D01*
X29833D01*
X29900Y29133D01*
X30333Y29167D01*
X30467Y29300D01*
X30433Y30033D01*
X30300Y30167D01*
G37*
%LPD*%
G36*
X31200Y30000D02*
Y29733D01*
X30800Y29767D01*
Y29967D01*
X31200Y30000D01*
G37*
%LPC*%
G36*
X28667Y29867D02*
X28533Y29833D01*
X28500Y29767D01*
X28367Y29867D01*
X28100D01*
X28133Y29700D01*
X28333D01*
X28533Y29500D01*
X28567Y29133D01*
X28700Y29167D01*
X28667Y29867D01*
G37*
%LPC*%
G36*
X21900Y29867D02*
X21767Y29833D01*
X21733Y29767D01*
X21600Y29867D01*
X21333D01*
X21367Y29700D01*
X21567D01*
X21767Y29500D01*
X21800Y29133D01*
X21933Y29167D01*
X21900Y29867D01*
G37*
%LPC*%
G36*
X20133Y29867D02*
X20000Y29833D01*
X19967Y29767D01*
X19833Y29867D01*
X19567D01*
X19600Y29700D01*
X19800D01*
X20000Y29500D01*
X20033Y29133D01*
X20167Y29167D01*
X20133Y29867D01*
G37*
%LPC*%
G36*
X27633Y30033D02*
X27533D01*
X27500Y29867D01*
X27367D01*
X27400Y29700D01*
X27500D01*
X27467Y29333D01*
X27367Y29267D01*
Y29133D01*
X27533Y29167D01*
X27667Y29300D01*
Y29700D01*
X27833Y29767D01*
X27800Y29867D01*
X27667D01*
X27633Y30033D01*
G37*
%LPC*%
G36*
X24400Y29867D02*
X23833D01*
X23867Y29700D01*
X24333D01*
Y29600D01*
X24000Y29567D01*
X23833Y29400D01*
X23900Y29233D01*
X23933D01*
X24000Y29133D01*
X24567D01*
Y29267D01*
X24033Y29333D01*
X24100Y29433D01*
X24433Y29467D01*
X24567Y29667D01*
X24400Y29867D01*
G37*
%LPC*%
G36*
X18367Y29867D02*
X18233Y29833D01*
X18000Y29400D01*
X17800Y29867D01*
X17667D01*
X17733Y29567D01*
X17767D01*
X17967Y29133D01*
X18100Y29167D01*
X18400Y29833D01*
X18367Y29867D01*
G37*
%LPC*%
G36*
X15133Y30167D02*
X14700Y30133D01*
X14567Y30000D01*
X14600Y29267D01*
X14633D01*
X14733Y29133D01*
X15167Y29167D01*
X15300Y29300D01*
X15267Y30033D01*
X15133Y30167D01*
G37*
%LPD*%
G36*
X15067Y30000D02*
X15133Y29933D01*
X15100Y29333D01*
X14767D01*
Y29967D01*
X15067Y30000D01*
G37*
%LPC*%
G36*
X14400Y29867D02*
X14267D01*
X14233Y29333D01*
X13833Y29300D01*
Y29867D01*
X13667Y29833D01*
X13700Y29133D01*
X14300Y29167D01*
X14433Y29300D01*
X14400Y29867D01*
G37*
%LPC*%
G36*
X26167Y30167D02*
X25900D01*
Y29300D01*
X25733Y29233D01*
X25767Y29133D01*
X26200Y29167D01*
X26067Y29300D01*
Y30000D01*
X26200Y30133D01*
X26167Y30167D01*
G37*
%LPC*%
G36*
X23667Y30167D02*
X23533Y30133D01*
Y29867D01*
X23100D01*
X22967Y29700D01*
Y29133D01*
X23100D01*
X23167Y29667D01*
X23500D01*
X23567Y29133D01*
X23700Y29167D01*
X23667Y30167D01*
G37*
%LPC*%
G36*
X16733Y30133D02*
X16333Y30100D01*
X16167Y29933D01*
X16200Y29700D01*
X16233D01*
X16600Y29300D01*
X16200Y29267D01*
Y29133D01*
X16900D01*
X16867Y29300D01*
X16333Y29867D01*
X16433Y29967D01*
X16667D01*
X16767Y29833D01*
X16900Y29867D01*
X16833Y30033D01*
X16733Y30133D01*
G37*
%LPC*%
G36*
X33033Y46300D02*
X32667Y46233D01*
X32433Y46000D01*
Y45300D01*
X32467D01*
X32700Y45033D01*
X32767D01*
X32800Y42167D01*
X32833D01*
X37433Y37533D01*
X37533D01*
X42300Y37467D01*
X44433Y35333D01*
Y33233D01*
X44267Y33200D01*
X44000Y32967D01*
X43900Y32733D01*
X43933Y32300D01*
X43967D01*
X44133Y32033D01*
X44200D01*
X44400Y31900D01*
X44567D01*
X44600Y31867D01*
X44967Y32000D01*
X45200Y32233D01*
X45267Y32733D01*
X45067Y33100D01*
X44800Y33233D01*
X44767Y35500D01*
X42467Y37833D01*
X37600Y37900D01*
X33133Y42367D01*
Y45067D01*
X33300Y45133D01*
X33433Y45400D01*
X33400Y46000D01*
X33200Y46233D01*
X33033Y46300D01*
G37*
%LPD*%
G36*
X44700Y32833D02*
X44833Y32700D01*
Y32433D01*
X44667Y32300D01*
X44400Y32367D01*
X44300Y32633D01*
X44467Y32833D01*
X44700D01*
G37*
%LPC*%
G36*
X34000Y45267D02*
X33667Y45167D01*
X33467Y44933D01*
Y44267D01*
X33500D01*
X33600Y44067D01*
X33667D01*
X33800Y43967D01*
X33833Y42367D01*
X33867D01*
X38000Y38233D01*
X42567D01*
X45833Y34967D01*
X45800Y31900D01*
X45233Y31333D01*
X43067Y31367D01*
X43033Y31933D01*
X43367Y32133D01*
X43500Y32433D01*
X43433Y32900D01*
X43200Y33167D01*
X42700Y33267D01*
X42400Y33133D01*
X42167Y32867D01*
Y32300D01*
X42200D01*
X42367Y32033D01*
X42433D01*
X42667Y31900D01*
X42700Y31200D01*
X42733D01*
X42900Y31000D01*
X43000D01*
X45333Y30967D01*
X46200Y31800D01*
X46167Y35167D01*
X42767Y38567D01*
X38100Y38633D01*
X34167Y42567D01*
Y44000D01*
X34367Y44100D01*
X34500Y44467D01*
X34433Y44967D01*
X34167Y45233D01*
X34000Y45267D01*
G37*
%LPD*%
G36*
X42933Y32833D02*
X43067Y32700D01*
Y32433D01*
X42900Y32300D01*
X42633Y32367D01*
X42533Y32633D01*
X42700Y32833D01*
X42933D01*
G37*
%LPC*%
G36*
X35100Y46300D02*
X34733Y46233D01*
X34500Y45933D01*
X34533Y45300D01*
X34567D01*
X34633Y45133D01*
X34700D01*
X34833Y45033D01*
X34867Y42600D01*
X34900D01*
X38533Y38933D01*
X42933D01*
X46533Y35333D01*
X46500Y31533D01*
X45600Y30633D01*
X42000Y30667D01*
X41267Y31400D01*
Y31933D01*
X41600Y32133D01*
X41733Y32433D01*
X41667Y32900D01*
X41433Y33167D01*
X40933Y33267D01*
X40633Y33133D01*
X40400Y32867D01*
Y32300D01*
X40433D01*
X40600Y32033D01*
X40667D01*
X40900Y31900D01*
X40933Y31200D01*
X40967D01*
X41900Y30267D01*
X45800Y30300D01*
X46900Y31433D01*
X46867Y35533D01*
X43133Y39267D01*
X38633Y39333D01*
X35200Y42767D01*
X35233Y45067D01*
X35467Y45267D01*
X35533Y45833D01*
X35367Y46167D01*
X35100Y46300D01*
G37*
%LPD*%
G36*
X41167Y32833D02*
X41300Y32700D01*
Y32433D01*
X41133Y32300D01*
X40867Y32367D01*
X40767Y32633D01*
X40933Y32833D01*
X41167D01*
G37*
%LPC*%
G36*
X36100Y45267D02*
X35800Y45200D01*
X35567Y44967D01*
Y44233D01*
X35600D01*
X35833Y43967D01*
X35900D01*
X35933Y42733D01*
X35967D01*
X39000Y39667D01*
X39100D01*
X43333Y39600D01*
X47233Y35700D01*
X47200Y31167D01*
X45967Y29933D01*
X40933Y29967D01*
X39500Y31400D01*
Y31933D01*
X39833Y32133D01*
X39967Y32433D01*
X39900Y32900D01*
X39667Y33167D01*
X39167Y33267D01*
X38867Y33133D01*
X38633Y32867D01*
Y32300D01*
X38667D01*
X38833Y32033D01*
X38900D01*
X39133Y31900D01*
X39167Y31200D01*
X39200D01*
X40833Y29567D01*
X46167Y29600D01*
X47600Y31067D01*
X47567Y35900D01*
X43500Y39967D01*
X39167Y40033D01*
X36267Y42933D01*
X36300Y44033D01*
X36533Y44233D01*
Y44967D01*
X36267Y45233D01*
X36100Y45267D01*
G37*
%LPD*%
G36*
X39400Y32833D02*
X39533Y32700D01*
Y32433D01*
X39367Y32300D01*
X39100Y32367D01*
X39000Y32633D01*
X39167Y32833D01*
X39400D01*
G37*
%LPC*%
G36*
X37200Y46300D02*
X36833Y46233D01*
X36600Y46000D01*
Y45300D01*
X36633D01*
X36867Y45033D01*
X36933D01*
X36967Y42933D01*
X37000D01*
X39533Y40367D01*
X39633D01*
X43700Y40300D01*
X47967Y36033D01*
X47933Y30833D01*
X46333Y29233D01*
X39867Y29267D01*
X37733Y31400D01*
Y31933D01*
X38067Y32133D01*
X38200Y32433D01*
X38133Y32900D01*
X37900Y33167D01*
X37400Y33267D01*
X37100Y33133D01*
X36867Y32867D01*
Y32300D01*
X36900D01*
X37067Y32033D01*
X37133D01*
X37367Y31900D01*
X37400Y31200D01*
X37433D01*
X39767Y28867D01*
X46533Y28900D01*
X48300Y30700D01*
Y36200D01*
X43867Y40667D01*
X39700Y40733D01*
X37300Y43133D01*
Y45067D01*
X37467Y45133D01*
X37600Y45367D01*
X37567Y46000D01*
X37367Y46233D01*
X37200Y46300D01*
G37*
%LPD*%
G36*
X37633Y32833D02*
X37767Y32700D01*
Y32433D01*
X37600Y32300D01*
X37333Y32367D01*
X37233Y32633D01*
X37400Y32833D01*
X37633D01*
G37*
%LPC*%
G36*
X38200Y45267D02*
X37833Y45167D01*
X37633Y44933D01*
Y44267D01*
X37667D01*
X37767Y44067D01*
X37833D01*
X37967Y43967D01*
X38000Y43167D01*
X38033D01*
X40100Y41067D01*
X40167D01*
X44067Y41000D01*
X48667Y36400D01*
X48633Y30467D01*
X46667Y28500D01*
X38833Y28533D01*
X35967Y31400D01*
Y31933D01*
X36300Y32133D01*
X36433Y32433D01*
X36367Y32900D01*
X36133Y33167D01*
X35633Y33267D01*
X35333Y33133D01*
X35100Y32867D01*
Y32300D01*
X35133D01*
X35300Y32033D01*
X35367D01*
X35600Y31900D01*
X35633Y31200D01*
X35667D01*
X38667Y28167D01*
X38767D01*
X46733Y28133D01*
X47033Y28333D01*
X49000Y30333D01*
Y36567D01*
X44233Y41367D01*
X40233Y41433D01*
X38333Y43333D01*
Y44000D01*
X38533Y44100D01*
X38633Y44267D01*
Y44933D01*
X38400Y45200D01*
X38200Y45267D01*
G37*
%LPD*%
G36*
X35867Y32833D02*
X36000Y32700D01*
Y32433D01*
X35833Y32300D01*
X35567Y32367D01*
X35467Y32633D01*
X35633Y32833D01*
X35867D01*
G37*
%LPC*%
G36*
X39267Y46300D02*
X38900Y46233D01*
X38667Y45933D01*
X38700Y45300D01*
X38733D01*
X38800Y45133D01*
X38867D01*
X39033Y45033D01*
X39067Y43300D01*
X39100D01*
X40567Y41800D01*
X40667D01*
X44400Y41733D01*
X49367Y36733D01*
X49333Y30133D01*
X47000Y27800D01*
X37767Y27833D01*
X34200Y31400D01*
Y31933D01*
X34533Y32133D01*
X34667Y32433D01*
X34600Y32900D01*
X34367Y33167D01*
X33867Y33267D01*
X33567Y33133D01*
X33333Y32867D01*
Y32300D01*
X33367D01*
X33533Y32033D01*
X33600D01*
X33833Y31900D01*
X33867Y31200D01*
X33900D01*
X37600Y27467D01*
X37700D01*
X47100Y27433D01*
X49733Y30033D01*
X49700Y36933D01*
X44533Y42100D01*
X40733Y42167D01*
X39400Y43500D01*
X39433Y45100D01*
X39667Y45300D01*
Y46000D01*
X39400Y46267D01*
X39267Y46300D01*
G37*
%LPD*%
G36*
X34100Y32833D02*
X34233Y32700D01*
Y32433D01*
X34067Y32300D01*
X33800Y32367D01*
X33700Y32633D01*
X33867Y32833D01*
X34100D01*
G37*
%LPC*%
G36*
X40300Y45267D02*
X39933Y45167D01*
X39733Y44900D01*
Y44300D01*
X39767D01*
X39867Y44067D01*
X39933D01*
X40067Y43967D01*
X40100Y43533D01*
X40133D01*
X41100Y42500D01*
X41200D01*
X44733Y42433D01*
X50067Y37100D01*
X50033Y29767D01*
X47367Y27100D01*
X36700Y27133D01*
X32433Y31400D01*
Y31933D01*
X32767Y32133D01*
X32900Y32433D01*
X32833Y32900D01*
X32600Y33167D01*
X32100Y33267D01*
X31800Y33133D01*
X31567Y32867D01*
Y32300D01*
X31600D01*
X31767Y32033D01*
X31833D01*
X32067Y31900D01*
X32100Y31200D01*
X32133D01*
X36600Y26733D01*
X47567Y26767D01*
X50433Y29667D01*
X50400Y37300D01*
X44900Y42800D01*
X41267Y42867D01*
X40433Y43700D01*
Y44000D01*
X40633Y44100D01*
X40733Y44267D01*
Y44933D01*
X40500Y45200D01*
X40300Y45267D01*
G37*
%LPD*%
G36*
X32333Y32833D02*
X32467Y32700D01*
Y32433D01*
X32300Y32300D01*
X32033Y32367D01*
X31933Y32633D01*
X32100Y32833D01*
X32333D01*
G37*
%LPC*%
G36*
X30567Y33267D02*
X30133Y33200D01*
X29867Y32967D01*
X29767Y32733D01*
X29800Y32300D01*
X29833D01*
X30000Y32033D01*
X30067D01*
X30267Y31900D01*
X30433D01*
X30467Y31867D01*
X30833Y32000D01*
X31067Y32233D01*
X31133Y32733D01*
X30933Y33100D01*
X30733Y33233D01*
X30567Y33267D01*
G37*
%LPD*%
G36*
X30567Y32833D02*
X30700Y32700D01*
Y32433D01*
X30533Y32300D01*
X30267Y32367D01*
X30167Y32633D01*
X30333Y32833D01*
X30567D01*
G37*
%LPC*%
G36*
X28800Y33267D02*
X28367Y33200D01*
X28100Y32967D01*
X28000Y32733D01*
X28033Y32300D01*
X28067D01*
X28233Y32033D01*
X28300D01*
X28500Y31900D01*
X28667D01*
X28700Y31867D01*
X29067Y32000D01*
X29300Y32233D01*
X29367Y32733D01*
X29167Y33100D01*
X28967Y33233D01*
X28800Y33267D01*
G37*
%LPD*%
G36*
X28800Y32833D02*
X28933Y32700D01*
Y32433D01*
X28767Y32300D01*
X28500Y32367D01*
X28400Y32633D01*
X28567Y32833D01*
X28800D01*
G37*
%LPC*%
G36*
X27033Y33267D02*
X26600Y33200D01*
X26333Y32967D01*
X26233Y32733D01*
X26267Y32300D01*
X26300D01*
X26467Y32033D01*
X26533D01*
X26733Y31900D01*
X26900D01*
X26933Y31867D01*
X27300Y32000D01*
X27533Y32233D01*
X27600Y32733D01*
X27400Y33100D01*
X27200Y33233D01*
X27033Y33267D01*
G37*
%LPD*%
G36*
X27033Y32833D02*
X27167Y32700D01*
Y32433D01*
X27000Y32300D01*
X26733Y32367D01*
X26633Y32633D01*
X26800Y32833D01*
X27033D01*
G37*
%LPC*%
G36*
X31933Y45267D02*
X31633Y45200D01*
X31400Y44967D01*
Y44233D01*
X31433D01*
X31667Y43967D01*
X31733D01*
X31700Y43400D01*
X25000Y36700D01*
Y33233D01*
X24833Y33200D01*
X24567Y32967D01*
X24467Y32733D01*
X24500Y32300D01*
X24533D01*
X24700Y32033D01*
X24767D01*
X24967Y31900D01*
X25133D01*
X25167Y31867D01*
X25533Y32000D01*
X25767Y32233D01*
X25833Y32733D01*
X25633Y33100D01*
X25367Y33233D01*
X25400Y36600D01*
X32067Y43267D01*
X32133Y44033D01*
X32367Y44233D01*
Y44967D01*
X32100Y45233D01*
X31933Y45267D01*
G37*
%LPD*%
G36*
X25267Y32833D02*
X25400Y32700D01*
Y32433D01*
X25233Y32300D01*
X24967Y32367D01*
X24867Y32633D01*
X25033Y32833D01*
X25267D01*
G37*
%LPC*%
G36*
X30933Y46300D02*
X30567Y46233D01*
X30367Y46033D01*
X30300Y45533D01*
X30333D01*
X30400Y45233D01*
X30433D01*
X30600Y45033D01*
X30667D01*
X30633Y43400D01*
X23233Y36000D01*
Y33233D01*
X23067Y33200D01*
X22800Y32967D01*
X22700Y32733D01*
X22733Y32300D01*
X22767D01*
X22933Y32033D01*
X23000D01*
X23200Y31900D01*
X23367D01*
X23400Y31867D01*
X23767Y32000D01*
X24000Y32233D01*
X24067Y32733D01*
X23867Y33100D01*
X23600Y33233D01*
X23633Y35900D01*
X31000Y43233D01*
X31067Y45067D01*
X31300Y45267D01*
X31367Y45800D01*
X31200Y46167D01*
X30933Y46300D01*
G37*
%LPD*%
G36*
X23500Y32833D02*
X23633Y32700D01*
Y32433D01*
X23467Y32300D01*
X23200Y32367D01*
X23100Y32633D01*
X23267Y32833D01*
X23500D01*
G37*
%LPC*%
G36*
X29833Y45267D02*
X29500Y45167D01*
X29300Y44933D01*
Y44267D01*
X29333D01*
X29467Y44033D01*
X29533D01*
X29633Y43967D01*
X29600Y43433D01*
X21500Y35367D01*
X21467Y33233D01*
X21300Y33200D01*
X21033Y32967D01*
X20933Y32733D01*
X20967Y32300D01*
X21000D01*
X21167Y32033D01*
X21233D01*
X21433Y31900D01*
X21600D01*
X21633Y31867D01*
X22000Y32000D01*
X22233Y32233D01*
X22300Y32733D01*
X22100Y33100D01*
X21833Y33233D01*
X21867Y35200D01*
X29967Y43267D01*
X30000Y44000D01*
X30167Y44067D01*
X30300Y44300D01*
X30267Y44967D01*
X30000Y45233D01*
X29833Y45267D01*
G37*
%LPD*%
G36*
X21733Y32833D02*
X21867Y32700D01*
Y32433D01*
X21700Y32300D01*
X21433Y32367D01*
X21333Y32633D01*
X21500Y32833D01*
X21733D01*
G37*
%LPC*%
G36*
X28867Y46300D02*
X28467Y46233D01*
X28267Y46000D01*
Y45300D01*
X28300D01*
X28533Y45033D01*
X28600D01*
X28567Y43467D01*
X19733Y34667D01*
X19700Y33233D01*
X19533Y33200D01*
X19267Y32967D01*
X19167Y32733D01*
X19200Y32300D01*
X19233D01*
X19400Y32033D01*
X19467D01*
X19667Y31900D01*
X19833D01*
X19867Y31867D01*
X20233Y32000D01*
X20467Y32233D01*
X20533Y32733D01*
X20333Y33100D01*
X20067Y33233D01*
X20100Y34500D01*
X28933Y43300D01*
X28967Y45067D01*
X29133Y45133D01*
X29267Y45400D01*
X29233Y46000D01*
X29033Y46233D01*
X28867Y46300D01*
G37*
%LPD*%
G36*
X19967Y32833D02*
X20100Y32700D01*
Y32433D01*
X19933Y32300D01*
X19667Y32367D01*
X19567Y32633D01*
X19733Y32833D01*
X19967D01*
G37*
%LPC*%
G36*
X27767Y45267D02*
X27467Y45200D01*
X27233Y44967D01*
Y44233D01*
X27267D01*
X27333Y44067D01*
X27400D01*
X27567Y43967D01*
X27533Y43500D01*
X17967Y33933D01*
X17933Y33233D01*
X17767Y33200D01*
X17500Y32967D01*
X17400Y32733D01*
X17433Y32300D01*
X17467D01*
X17633Y32033D01*
X17700D01*
X17900Y31900D01*
X18067D01*
X18100Y31867D01*
X18467Y32000D01*
X18700Y32233D01*
X18767Y32733D01*
X18567Y33100D01*
X18300Y33233D01*
X18333Y33767D01*
X27900Y43367D01*
X27967Y44033D01*
X28200Y44233D01*
Y44933D01*
X27967Y45200D01*
X27767Y45267D01*
G37*
%LPD*%
G36*
X18200Y32833D02*
X18333Y32700D01*
Y32433D01*
X18167Y32300D01*
X17900Y32367D01*
X17800Y32633D01*
X17967Y32833D01*
X18200D01*
G37*
%LPC*%
G36*
X26767Y46300D02*
X26400Y46233D01*
X26167Y45967D01*
Y45333D01*
X26200D01*
X26333Y45100D01*
X26400D01*
X26500Y45033D01*
X26467Y43467D01*
X16200Y33233D01*
X16000Y33200D01*
X15733Y32967D01*
X15633Y32733D01*
X15667Y32300D01*
X15700D01*
X15867Y32033D01*
X15933D01*
X16133Y31900D01*
X16300D01*
X16333Y31867D01*
X16700Y32000D01*
X16933Y32233D01*
X17000Y32733D01*
X16800Y33100D01*
X16700Y33200D01*
X26833Y43300D01*
X26900Y45067D01*
X27133Y45267D01*
X27200Y45800D01*
X27033Y46167D01*
X26767Y46300D01*
G37*
%LPD*%
G36*
X16433Y32833D02*
X16567Y32700D01*
Y32433D01*
X16400Y32300D01*
X16133Y32367D01*
X16033Y32633D01*
X16200Y32833D01*
X16433D01*
G37*
%LPC*%
G36*
X25667Y45267D02*
X25333Y45167D01*
X25133Y44933D01*
Y44267D01*
X25167D01*
X25300Y44033D01*
X25367D01*
X25467Y43967D01*
X25433Y43500D01*
X16467Y34533D01*
X15533Y34500D01*
X14433Y33433D01*
X14400Y33233D01*
X14233Y33200D01*
X13967Y32967D01*
X13867Y32733D01*
X13900Y32300D01*
X13933D01*
X14100Y32033D01*
X14167D01*
X14367Y31900D01*
X14533D01*
X14567Y31867D01*
X14933Y32000D01*
X15167Y32233D01*
X15233Y32733D01*
X15033Y33100D01*
X14800Y33267D01*
X15700Y34167D01*
X16667Y34200D01*
X25800Y43333D01*
X25833Y44000D01*
X26000Y44067D01*
X26133Y44333D01*
X26100Y44967D01*
X25833Y45233D01*
X25667Y45267D01*
G37*
%LPD*%
G36*
X14667Y32833D02*
X14800Y32700D01*
Y32433D01*
X14633Y32300D01*
X14367Y32367D01*
X14267Y32633D01*
X14433Y32833D01*
X14667D01*
G37*
%LPC*%
G36*
X24667Y46300D02*
X24300Y46233D01*
X24100Y46000D01*
Y45300D01*
X24133D01*
X24200Y45133D01*
X24267D01*
X24433Y45033D01*
X24400Y43533D01*
X16433Y35567D01*
X14767Y35533D01*
X12667Y33433D01*
X12633Y33233D01*
X12467Y33200D01*
X12200Y32967D01*
X12100Y32733D01*
X12133Y32300D01*
X12167D01*
X12333Y32033D01*
X12400D01*
X12600Y31900D01*
X12767D01*
X12800Y31867D01*
X13167Y32000D01*
X13400Y32233D01*
X13467Y32733D01*
X13267Y33100D01*
X13033Y33267D01*
X14967Y35200D01*
X16600Y35233D01*
X24767Y43400D01*
X24800Y45067D01*
X25067Y45300D01*
Y46000D01*
X24800Y46267D01*
X24667Y46300D01*
G37*
%LPD*%
G36*
X12900Y32833D02*
X13033Y32700D01*
Y32433D01*
X12867Y32300D01*
X12600Y32367D01*
X12500Y32633D01*
X12667Y32833D01*
X12900D01*
G37*
%LPC*%
G36*
X12200Y35033D02*
X11733Y34967D01*
X11467Y34700D01*
X11400Y34300D01*
X11367Y34100D01*
X10733Y33467D01*
X10700Y33167D01*
X10500Y33067D01*
X10367Y32867D01*
Y32300D01*
X10400D01*
X10567Y32033D01*
X10633D01*
X10833Y31900D01*
X11000D01*
X11033Y31867D01*
X11400Y32000D01*
X11633Y32233D01*
X11700Y32733D01*
X11500Y33100D01*
X11433Y33167D01*
X11900Y33667D01*
X12067D01*
X12100Y33633D01*
X12467Y33767D01*
X12733Y34067D01*
Y34633D01*
X12467Y34933D01*
X12200Y35033D01*
G37*
%LPD*%
G36*
X11133Y32833D02*
X11267Y32700D01*
Y32433D01*
X11100Y32300D01*
X10833Y32367D01*
X10733Y32633D01*
X10900Y32833D01*
X11133D01*
G37*
%LPD*%
G36*
X12100Y34633D02*
X12333Y34467D01*
X12300Y34167D01*
X12000Y34067D01*
X11800Y34267D01*
X11867Y34533D01*
X12100Y34633D01*
G37*
%LPD*%
G36*
X1433Y34600D02*
X1567Y34467D01*
X1533Y34200D01*
X1367Y34067D01*
X1100Y34133D01*
X1033Y34467D01*
X1167Y34600D01*
X1433D01*
G37*
%LPC*%
G36*
X31900Y42033D02*
X26133Y36300D01*
X26167Y33900D01*
X43433D01*
Y35100D01*
X42000Y36533D01*
X37367Y36567D01*
X31900Y42033D01*
G37*
%LPD*%
G36*
X42333Y44867D02*
X42533Y44767D01*
Y44433D01*
X42267Y44333D01*
X42067Y44500D01*
X42100Y44733D01*
X42333Y44867D01*
G37*
%LPD*%
G36*
X40267Y44867D02*
X40467Y44733D01*
Y44467D01*
X40200Y44333D01*
X40000Y44467D01*
Y44733D01*
X40267Y44867D01*
G37*
%LPD*%
G36*
X38167Y44867D02*
X38367Y44733D01*
Y44467D01*
X38100Y44333D01*
X37900Y44467D01*
Y44733D01*
X38167Y44867D01*
G37*
%LPD*%
G36*
X36067Y44867D02*
X36233Y44800D01*
X36300Y44500D01*
X36100Y44333D01*
X35867Y44400D01*
X35800Y44700D01*
X35933Y44833D01*
X36067Y44867D01*
G37*
%LPD*%
G36*
X33967Y44867D02*
X34200Y44733D01*
X34167Y44433D01*
X33933Y44333D01*
X33767Y44400D01*
X33733Y44633D01*
X33800Y44800D01*
X33967Y44867D01*
G37*
%LPD*%
G36*
X31900Y44867D02*
X32067Y44800D01*
X32133Y44500D01*
X31933Y44333D01*
X31700Y44400D01*
X31633Y44700D01*
X31767Y44833D01*
X31900Y44867D01*
G37*
%LPD*%
G36*
X29800Y44867D02*
X30000Y44767D01*
Y44433D01*
X29767Y44333D01*
X29600Y44400D01*
X29533Y44667D01*
X29667Y44833D01*
X29800Y44867D01*
G37*
%LPD*%
G36*
X27733Y44867D02*
X27900Y44800D01*
X27967Y44533D01*
X27833Y44367D01*
X27567D01*
X27467Y44500D01*
X27500Y44767D01*
X27733Y44867D01*
G37*
%LPD*%
G36*
X25633Y44867D02*
X25833Y44767D01*
Y44433D01*
X25600Y44333D01*
X25433Y44400D01*
X25367Y44667D01*
X25500Y44833D01*
X25633Y44867D01*
G37*
%LPD*%
G36*
X23567Y44867D02*
X23800Y44667D01*
X23733Y44400D01*
X23500Y44367D01*
X23333Y44433D01*
Y44767D01*
X23567Y44867D01*
G37*
%LPD*%
G36*
X21467Y44867D02*
X21667Y44767D01*
Y44433D01*
X21400Y44333D01*
X21233Y44467D01*
Y44733D01*
X21467Y44867D01*
G37*
%LPD*%
G36*
X19367Y44867D02*
X19567Y44767D01*
Y44433D01*
X19300Y44333D01*
X19100Y44500D01*
X19133Y44733D01*
X19367Y44867D01*
G37*
%LPD*%
G36*
X17300Y44867D02*
X17500Y44733D01*
Y44467D01*
X17233Y44333D01*
X17033Y44467D01*
Y44733D01*
X17300Y44867D01*
G37*
%LPD*%
G36*
X15200Y44867D02*
X15400Y44767D01*
Y44433D01*
X15133Y44333D01*
X14933Y44500D01*
X14967Y44767D01*
X15200Y44867D01*
G37*
%LPD*%
G36*
X13133Y44867D02*
X13333Y44733D01*
Y44467D01*
X13067Y44333D01*
X12867Y44467D01*
Y44733D01*
X13133Y44867D01*
G37*
%LPD*%
G36*
X11033Y44867D02*
X11200Y44800D01*
X11267Y44500D01*
X11067Y44333D01*
X10833Y44400D01*
X10767Y44700D01*
X10900Y44833D01*
X11033Y44867D01*
G37*
%LPD*%
G36*
X43433Y45900D02*
X43600Y45767D01*
X43567Y45467D01*
X43233Y45400D01*
X43100Y45600D01*
X43167Y45833D01*
X43433Y45900D01*
G37*
%LPD*%
G36*
X41333Y45900D02*
X41533Y45733D01*
X41467Y45467D01*
X41400Y45400D01*
X41100Y45433D01*
X41033Y45767D01*
X41233Y45900D01*
X41333D01*
G37*
%LPD*%
G36*
X39233Y45900D02*
X39400Y45767D01*
Y45500D01*
X39300Y45400D01*
X39000Y45433D01*
X38933Y45767D01*
X39100Y45900D01*
X39233D01*
G37*
%LPD*%
G36*
X37133Y45900D02*
X37333Y45767D01*
X37300Y45467D01*
X36967Y45400D01*
X36833Y45567D01*
X36867Y45767D01*
X37133Y45900D01*
G37*
%LPD*%
G36*
X35067Y45900D02*
X35233Y45767D01*
Y45500D01*
X35133Y45400D01*
X34833Y45433D01*
X34767Y45767D01*
X34933Y45900D01*
X35067D01*
G37*
%LPD*%
G36*
X32967Y45900D02*
X33167Y45733D01*
X33133Y45467D01*
X32800Y45400D01*
X32667Y45567D01*
X32733Y45833D01*
X32967Y45900D01*
G37*
%LPD*%
G36*
X30900Y45900D02*
X31067Y45767D01*
Y45500D01*
X30967Y45400D01*
X30667Y45433D01*
X30600Y45767D01*
X30767Y45900D01*
X30900D01*
G37*
%LPD*%
G36*
X28800Y45900D02*
X29000Y45733D01*
X28967Y45500D01*
X28867Y45400D01*
X28567Y45433D01*
X28500Y45733D01*
X28600Y45867D01*
X28800Y45900D01*
G37*
%LPD*%
G36*
X26733Y45900D02*
X26900Y45767D01*
Y45500D01*
X26800Y45400D01*
X26500Y45433D01*
X26400Y45667D01*
X26467Y45833D01*
X26733Y45900D01*
G37*
%LPD*%
G36*
X24633Y45900D02*
X24833Y45733D01*
X24800Y45500D01*
X24700Y45400D01*
X24400Y45433D01*
X24333Y45733D01*
X24433Y45867D01*
X24633Y45900D01*
G37*
%LPD*%
G36*
X22567Y45900D02*
X22733Y45767D01*
Y45500D01*
X22600Y45400D01*
X22333Y45433D01*
X22233Y45667D01*
X22300Y45833D01*
X22567Y45900D01*
G37*
%LPD*%
G36*
X20467Y45900D02*
X20633Y45767D01*
X20600Y45467D01*
X20267Y45400D01*
X20133Y45600D01*
X20200Y45833D01*
X20467Y45900D01*
G37*
%LPD*%
G36*
X18367Y45900D02*
X18567Y45733D01*
X18500Y45467D01*
X18433Y45400D01*
X18133Y45433D01*
X18067Y45767D01*
X18267Y45900D01*
X18367D01*
G37*
%LPD*%
G36*
X16300Y45900D02*
X16467Y45767D01*
X16433Y45467D01*
X16100Y45400D01*
X15967Y45567D01*
X16033Y45833D01*
X16300Y45900D01*
G37*
%LPD*%
G36*
X14200Y45900D02*
X14367Y45767D01*
Y45500D01*
X14267Y45400D01*
X13967Y45433D01*
X13900Y45767D01*
X14067Y45900D01*
X14200D01*
G37*
%LPC*%
G36*
X12167Y46300D02*
X11800Y46233D01*
X11567Y46000D01*
Y45300D01*
X11600D01*
X11833Y45033D01*
X11967D01*
X12167Y45000D01*
X12433Y45133D01*
X12567Y45367D01*
X12533Y46000D01*
X12333Y46233D01*
X12167Y46300D01*
G37*
%LPD*%
G36*
X12100Y45900D02*
X12300Y45767D01*
X12267Y45467D01*
X11933Y45400D01*
X11800Y45567D01*
X11833Y45767D01*
X12100Y45900D01*
G37*
%LPD*%
G36*
X49100Y47733D02*
X49600Y47567D01*
X49967Y47300D01*
X50233Y46900D01*
X50333Y46200D01*
X50167Y45667D01*
X49867Y45267D01*
X49400Y45000D01*
X48700Y44933D01*
X48133Y45167D01*
X47733Y45567D01*
X47533Y46067D01*
X47567Y46700D01*
X47800Y47167D01*
X48167Y47533D01*
X48733Y47733D01*
X49100D01*
G37*
%LPD*%
G36*
X5633Y47733D02*
X6267Y47500D01*
X6633Y47100D01*
X6833Y46633D01*
Y46033D01*
X6567Y45467D01*
X6200Y45133D01*
X5700Y44933D01*
X5067Y44967D01*
X4567Y45233D01*
X4233Y45600D01*
X4067Y46033D01*
Y46633D01*
X4333Y47200D01*
X4700Y47533D01*
X5267Y47733D01*
X5633D01*
G37*
%LPD*%
G36*
X49133Y51900D02*
X49600Y51667D01*
X49833Y51400D01*
X49967Y51100D01*
X49933Y50500D01*
X49700Y50133D01*
X49333Y49867D01*
X48800Y49800D01*
X48300Y50000D01*
X48000Y50333D01*
X47867Y50933D01*
X48033Y51433D01*
X48367Y51767D01*
X48700Y51900D01*
X49133D01*
G37*
%LPD*%
G36*
X5667Y51900D02*
X6133Y51667D01*
X6433Y51267D01*
X6500Y50700D01*
X6400Y50400D01*
X6133Y50033D01*
X5733Y49833D01*
X5167D01*
X4700Y50100D01*
X4467Y50433D01*
X4400Y51033D01*
X4633Y51533D01*
X4900Y51767D01*
X5233Y51900D01*
X5667D01*
G37*
%LPD*%
G36*
X49067Y56067D02*
X49433Y55867D01*
X49600Y55600D01*
Y55167D01*
X49367Y54833D01*
X49100Y54700D01*
X48600Y54767D01*
X48333Y55000D01*
X48233Y55500D01*
X48367Y55800D01*
X48633Y56033D01*
X49067Y56067D01*
G37*
%LPD*%
G36*
X5600Y56067D02*
X5867Y55933D01*
X6100Y55667D01*
Y55100D01*
X5800Y54767D01*
X5267Y54700D01*
X4900Y54933D01*
X4767Y55233D01*
X4833Y55733D01*
X5167Y56033D01*
X5600Y56067D01*
G37*
%LPD*%
G36*
X54200Y58433D02*
Y58400D01*
X54167D01*
Y58433D01*
X54200D01*
G37*
%LPD*%
G36*
X67Y58433D02*
Y58400D01*
X33D01*
Y58433D01*
X67D01*
G37*
D02M02*
