G04 Created by reaConverter (www.reaconverter.com)*
%FSLAX44Y44*%
%MOIN*%
%ADD10C,0.001*%
%LNEXPORT*%
D02*
D10*
%LPD*%
G36*
X63750Y68750D02*
Y208D01*
X104D01*
Y68750D01*
X63750D01*
G37*
%LPC*%
G36*
X62708Y67604D02*
X1250D01*
Y46667D01*
X10000Y55312D01*
X12396D01*
X12292Y54271D01*
X9896Y54062D01*
X1146Y45208D01*
X1042Y19375D01*
Y18542D01*
X1146D01*
Y1042D01*
X48854D01*
X49583Y938D01*
X62396Y1146D01*
X62500Y11458D01*
X62708Y11562D01*
X62604Y12396D01*
X62396Y12500D01*
X62292Y18021D01*
X58646Y21562D01*
X58750Y23333D01*
X58958Y23438D01*
X58854Y24271D01*
X58542Y24583D01*
X57604Y24479D01*
X57292Y23646D01*
X57396D01*
X54896Y21042D01*
X52292Y20938D01*
X51250Y19896D01*
Y2917D01*
X36354Y3021D01*
X36250Y7500D01*
X37188D01*
Y5312D01*
X37500D01*
Y7500D01*
X38229Y7604D01*
Y15417D01*
X38542Y15729D01*
X39479Y15833D01*
X39792Y16146D01*
X39688Y16979D01*
X39375Y17292D01*
X38542Y17188D01*
X38229Y16875D01*
Y15938D01*
X37812Y15625D01*
Y12708D01*
X34896D01*
Y14896D01*
X34583D01*
Y12708D01*
X30833Y12500D01*
X30938Y12188D01*
X33229D01*
Y7500D01*
X35833D01*
X35729Y3021D01*
X26875D01*
X22083Y7917D01*
X20521Y8125D01*
X20208Y8542D01*
X19167D01*
X18750Y7917D01*
X14375D01*
Y9688D01*
X13646Y9792D01*
X12188Y9688D01*
X12292Y13646D01*
X12500Y13854D01*
X12396Y14688D01*
X12083Y15000D01*
X11250Y14896D01*
X10938Y14583D01*
X11042Y13750D01*
X11146D01*
X11354Y13229D01*
X6771D01*
X6458Y14062D01*
X5417D01*
X5104Y13750D01*
Y13229D01*
X2396D01*
X2500Y18854D01*
X2396Y25417D01*
X3646D01*
X3854Y25104D01*
X4792Y25208D01*
X4896Y25417D01*
X6562D01*
X6771Y25104D01*
X7708Y25208D01*
X7812Y25417D01*
X10729D01*
X10938Y25104D01*
X11875Y25208D01*
X12083Y26250D01*
X11771Y26458D01*
X11667Y28854D01*
X6667Y29062D01*
X1979Y33750D01*
X2083Y45000D01*
X10417Y53333D01*
X12292D01*
X12500Y53021D01*
X13229Y53229D01*
Y55312D01*
X53646D01*
X62604Y46458D01*
X62708Y67604D01*
G37*
%LPD*%
G36*
X49271Y2083D02*
X49479Y1979D01*
Y1458D01*
X48958D01*
Y1979D01*
X49271Y2083D01*
G37*
%LPC*%
G36*
X49583Y13542D02*
X48646Y13438D01*
X48333Y12604D01*
X48438D01*
X48646Y12083D01*
X48854D01*
Y6562D01*
X48333Y6042D01*
X41250Y5938D01*
X40000Y4583D01*
X37083Y4688D01*
X36875Y4896D01*
Y6875D01*
X36562D01*
Y4688D01*
X36667D01*
X37188Y4167D01*
X40312Y4271D01*
X41562Y5625D01*
X48438D01*
X48854Y5104D01*
X49688Y5208D01*
X50000Y5521D01*
X49896Y6354D01*
X49583Y6562D01*
X49688Y12188D01*
X50000Y12396D01*
X49896Y13229D01*
X49583Y13542D01*
G37*
%LPD*%
G36*
X49271Y6250D02*
X49479Y6146D01*
Y5625D01*
X48958D01*
Y6146D01*
X49271Y6250D01*
G37*
%LPD*%
G36*
X60938Y4583D02*
X61667Y3854D01*
X61562Y2708D01*
X60938Y2188D01*
X59792Y2292D01*
X59271Y2812D01*
Y3958D01*
X59792Y4479D01*
X60938Y4583D01*
G37*
%LPD*%
G36*
X3854Y4583D02*
X4583Y3958D01*
Y2812D01*
X4062Y2292D01*
X2708D01*
X2188Y2917D01*
X2292Y4062D01*
X2917Y4583D01*
X3854D01*
G37*
%LPC*%
G36*
X22917Y18958D02*
X22083Y18854D01*
X21771Y18542D01*
X21875Y17604D01*
X21979D01*
X22188Y17396D01*
X23125Y17500D01*
X23438Y17812D01*
X23542D01*
X24062Y17188D01*
X23958Y15000D01*
X18438Y9479D01*
X16354Y9583D01*
X15938Y9896D01*
X15208Y9688D01*
X15104Y9167D01*
X15312Y8646D01*
X16354Y8750D01*
X16458Y9062D01*
X18750Y9167D01*
X24479Y15000D01*
X24375Y17500D01*
X22917Y18958D01*
G37*
%LPD*%
G36*
X15833Y9583D02*
X16042Y9479D01*
X15938Y8958D01*
X15521D01*
Y9479D01*
X15833Y9583D01*
G37*
%LPC*%
G36*
X32500Y9271D02*
X30833D01*
Y8958D01*
X32500D01*
Y9271D01*
G37*
%LPD*%
G36*
X13958Y9583D02*
X14062Y8958D01*
X13542Y9062D01*
Y9479D01*
X13958Y9583D01*
G37*
%LPC*%
G36*
X40521Y8646D02*
X38958D01*
Y8542D01*
X38854D01*
Y8333D01*
X40521D01*
Y8646D01*
G37*
%LPC*%
G36*
X32500Y8646D02*
X30938D01*
Y8542D01*
X30833D01*
Y8333D01*
X32500D01*
Y8646D01*
G37*
%LPC*%
G36*
X40521Y7917D02*
X38854D01*
X38958Y7604D01*
X40521Y7708D01*
Y7917D01*
G37*
%LPD*%
G36*
X19896Y7396D02*
X20104Y6771D01*
X19479Y6562D01*
X19375Y7083D01*
X19479Y7396D01*
X19896D01*
G37*
%LPD*%
G36*
X10104Y7396D02*
X10208Y6875D01*
X10104Y6562D01*
X9583Y6667D01*
Y7292D01*
X10104Y7396D01*
G37*
%LPC*%
G36*
X38125Y6875D02*
X37812D01*
Y5312D01*
X38125D01*
Y6875D01*
G37*
%LPC*%
G36*
X35521Y6875D02*
X35208D01*
Y5312D01*
X35521D01*
Y6875D01*
G37*
%LPD*%
G36*
X61979Y12292D02*
X62188Y12188D01*
Y11667D01*
X61667D01*
Y12188D01*
X61979Y12292D01*
G37*
%LPC*%
G36*
X50938Y53333D02*
X50312Y53021D01*
Y51979D01*
X50417D01*
X51042Y51771D01*
X51354Y52083D01*
X54375D01*
X61979Y44479D01*
Y41146D01*
X61562Y40833D01*
Y40000D01*
X61667D01*
X61979Y39688D01*
Y28438D01*
X61562Y28125D01*
Y27292D01*
X61667D01*
X61979Y26979D01*
Y25833D01*
X54688Y25729D01*
X52396Y23333D01*
X38438Y23229D01*
X36354Y21042D01*
X33542Y21146D01*
X33333Y21458D01*
X32500Y21354D01*
X32188Y20833D01*
X31042Y20729D01*
X29271Y18958D01*
Y12708D01*
X28646Y12292D01*
X28750Y11354D01*
X28854D01*
X29062Y11146D01*
X30000Y11250D01*
X30208Y12292D01*
X29688Y12708D01*
Y13750D01*
X31562Y13854D01*
X33438Y15833D01*
X34896D01*
X35208Y15521D01*
Y13333D01*
X35521D01*
Y15833D01*
X35000Y16250D01*
X33125Y16146D01*
X31250Y14167D01*
X29688D01*
X29792Y18854D01*
X31354Y20417D01*
X32188D01*
X32604Y19896D01*
X33542Y20000D01*
X33646Y20208D01*
X36875Y20312D01*
X37812Y21458D01*
X48438D01*
Y20625D01*
X48542D01*
X49062Y20312D01*
X48958Y17396D01*
X46667Y15208D01*
X46562Y11354D01*
X45208Y10000D01*
X38854Y9896D01*
X38958Y9583D01*
X39583D01*
Y9271D01*
X38854D01*
Y8958D01*
X40521D01*
Y9271D01*
X39896D01*
Y9583D01*
X45521Y9688D01*
X47083Y11354D01*
X47188Y15104D01*
X49479Y17396D01*
X49583Y20417D01*
X50000Y20729D01*
X50104Y21458D01*
X51146Y22500D01*
X53854Y22604D01*
X54167Y23021D01*
X54896Y23646D01*
X56042Y25000D01*
X61979D01*
Y23854D01*
X61562Y23542D01*
Y22708D01*
X61667D01*
X61979Y22396D01*
X62812Y22500D01*
X63125Y22812D01*
X63021Y23646D01*
X62812Y23750D01*
X62917Y27292D01*
X63125Y27396D01*
X63021Y28229D01*
X62812Y28333D01*
X62917Y40000D01*
X63125Y40104D01*
X63021Y40938D01*
X62812Y41042D01*
X62708Y44896D01*
X54688Y52917D01*
X51354Y53021D01*
X50938Y53333D01*
G37*
%LPD*%
G36*
X29479Y12292D02*
X29792Y12083D01*
X29583Y11562D01*
X29062Y11771D01*
X29271Y12292D01*
X29479D01*
G37*
%LPC*%
G36*
X32500Y11875D02*
X30833D01*
X30938Y11562D01*
X32500Y11667D01*
Y11875D01*
G37*
%LPC*%
G36*
X25417Y12708D02*
X24583Y12604D01*
X24271Y12292D01*
X24375Y11354D01*
X24479D01*
X24896Y11146D01*
X25000Y8333D01*
X25104D01*
X28958Y4375D01*
X33750Y4479D01*
X34271Y5000D01*
X34167Y6875D01*
X33854D01*
X33750Y4896D01*
X28958D01*
X25312Y8542D01*
X25417Y11250D01*
X25833Y11562D01*
X25729Y12396D01*
X25417Y12708D01*
G37*
%LPD*%
G36*
X25208Y12292D02*
X25417Y11771D01*
X24896Y11562D01*
X24688Y12083D01*
X25208Y12292D01*
G37*
%LPC*%
G36*
X32500Y11250D02*
X30938D01*
Y11146D01*
X30833D01*
Y10938D01*
X32500D01*
Y11250D01*
G37*
%LPC*%
G36*
X22917Y16458D02*
X22083Y16354D01*
X21771Y16042D01*
Y15104D01*
X17708Y11042D01*
X16354Y11146D01*
X16146Y11458D01*
X15208Y11354D01*
X15104Y10729D01*
X15312Y10312D01*
X16354Y10417D01*
Y10625D01*
X18021Y10729D01*
X22083Y14896D01*
X23125Y15000D01*
X23333Y16042D01*
X22917Y16458D01*
G37*
%LPD*%
G36*
X15938Y11146D02*
X16042Y10625D01*
X15417Y10729D01*
X15521Y11146D01*
X15938D01*
G37*
%LPC*%
G36*
X6250Y19792D02*
X5417Y19688D01*
X5104Y19375D01*
X5208Y18542D01*
X5312D01*
X5521Y18333D01*
X5417Y16042D01*
X5104Y15833D01*
X5208Y15000D01*
X5312D01*
X5521Y14688D01*
X6458Y14792D01*
X6771Y15521D01*
X6354Y16146D01*
Y16875D01*
X10104D01*
X10312Y16562D01*
X11250Y16667D01*
X11354Y16875D01*
X12708D01*
X13438Y16146D01*
Y11354D01*
X13125Y11146D01*
X13229Y10417D01*
X13438D01*
X14167Y10312D01*
X14479Y10625D01*
X14271Y11354D01*
X14167Y16562D01*
X13021Y17708D01*
X11250Y17812D01*
X11042Y18125D01*
X10208Y18021D01*
X10000Y17708D01*
X6354D01*
X6458Y18438D01*
X6771Y19062D01*
X6458Y19688D01*
X6250Y19792D01*
G37*
%LPD*%
G36*
X14062Y11146D02*
Y10625D01*
X13542D01*
Y11042D01*
X13646D01*
Y11146D01*
X14062D01*
G37*
%LPC*%
G36*
X32500Y10625D02*
X30938D01*
Y10521D01*
X30833D01*
Y10312D01*
X32500D01*
Y10625D01*
G37*
%LPC*%
G36*
X29792Y10417D02*
X28958Y10312D01*
X28646Y10000D01*
X28750Y9062D01*
X28854D01*
X29271Y8854D01*
X29375Y8333D01*
X29479D01*
X30104Y7604D01*
X32500Y7708D01*
Y7917D01*
X30104Y8125D01*
X29688Y8542D01*
X29792Y8958D01*
X30208Y9271D01*
X30104Y10104D01*
X29792Y10417D01*
G37*
%LPD*%
G36*
X29479Y10000D02*
X29792Y9792D01*
X29583Y9271D01*
X29062Y9479D01*
X29271Y10000D01*
X29479D01*
G37*
%LPC*%
G36*
X30417Y26667D02*
X29583Y26562D01*
X29271Y26250D01*
X29375Y25312D01*
X29479D01*
X29896Y25104D01*
X29792Y22500D01*
X26354Y19167D01*
Y10417D01*
X25729Y10000D01*
X25833Y9062D01*
X25938D01*
X26146Y8854D01*
X27083Y8958D01*
X27292Y10000D01*
X26771Y10417D01*
X26875Y19062D01*
X30312Y22500D01*
X30417Y25208D01*
X30833Y25521D01*
X30729Y26354D01*
X30417Y26667D01*
G37*
%LPD*%
G36*
X26562Y10000D02*
X26875Y9792D01*
X26667Y9271D01*
X26146Y9479D01*
X26354Y10000D01*
X26562D01*
G37*
%LPC*%
G36*
X32500Y9896D02*
X30833D01*
X30938Y9583D01*
X32500Y9688D01*
Y9896D01*
G37*
%LPC*%
G36*
X40208Y18333D02*
X38125Y18229D01*
X37917Y17917D01*
X32708Y17812D01*
X31250Y16458D01*
X30417Y16354D01*
X30104Y16042D01*
X30208Y15104D01*
X30312D01*
X30521Y14896D01*
X31458Y15000D01*
X31667Y15312D01*
X31771Y16250D01*
X33021Y17500D01*
X38229Y17604D01*
X38438Y17917D01*
X40104D01*
X40521Y17396D01*
X40417Y15000D01*
X39479Y13958D01*
X39583D01*
X39479Y12500D01*
X38854D01*
X38958Y12188D01*
X40521Y12292D01*
Y12500D01*
X39896D01*
X40000Y14062D01*
X40938Y15000D01*
X40833Y17708D01*
X40208Y18333D01*
G37*
%LPD*%
G36*
X30938Y16042D02*
X31250Y15833D01*
X31042Y15312D01*
X30521Y15521D01*
X30729Y16042D01*
X30938D01*
G37*
%LPD*%
G36*
X22708Y16042D02*
X22917Y15521D01*
X22396Y15312D01*
X22188Y15833D01*
X22708Y16042D01*
G37*
%LPD*%
G36*
X6042Y15833D02*
X6250Y15312D01*
X5833Y15104D01*
X5625Y15208D01*
Y15729D01*
X6042Y15833D01*
G37*
%LPC*%
G36*
X24167Y21458D02*
X23333Y21354D01*
X23125Y21042D01*
X21979Y20938D01*
X19271Y18125D01*
X18542Y18021D01*
X18229Y17708D01*
X18125Y16979D01*
X16250Y15000D01*
X15417Y14896D01*
X15104Y14583D01*
X15208Y13750D01*
X15312D01*
X15521Y13438D01*
X16458Y13542D01*
X16771Y14479D01*
X18854Y16562D01*
X19688Y16771D01*
X19896Y17604D01*
X22396Y20208D01*
X23125D01*
X23438Y19896D01*
X24375Y20000D01*
X24583Y21042D01*
X24167Y21458D01*
G37*
%LPD*%
G36*
X16042Y14583D02*
X16250Y14062D01*
X15729Y13854D01*
X15521Y14271D01*
X16042Y14583D01*
G37*
%LPD*%
G36*
X11875Y14583D02*
X12083Y14062D01*
X11562Y13854D01*
X11354Y14271D01*
X11875Y14583D01*
G37*
%LPC*%
G36*
X37500Y14896D02*
X37188D01*
Y13333D01*
X37500D01*
Y14896D01*
G37*
%LPC*%
G36*
X36875Y14896D02*
X36562D01*
Y13333D01*
X36875D01*
Y14896D01*
G37*
%LPC*%
G36*
X36146Y14896D02*
X35833D01*
Y13333D01*
X36146D01*
Y14896D01*
G37*
%LPC*%
G36*
X34167Y14896D02*
X33854D01*
Y13333D01*
X34167D01*
Y14896D01*
G37*
%LPC*%
G36*
X33542Y14896D02*
X33229D01*
Y13333D01*
X33542D01*
Y14896D01*
G37*
%LPD*%
G36*
X49271Y13125D02*
X49479Y13021D01*
Y12500D01*
X48958D01*
Y13021D01*
X49271Y13125D01*
G37*
%LPD*%
G36*
X6042Y13750D02*
X6250Y13229D01*
X5833Y13021D01*
X5625Y13125D01*
Y13646D01*
X6042Y13750D01*
G37*
%LPD*%
G36*
X6042Y19375D02*
X6250Y18854D01*
X5833Y18646D01*
X5625Y18750D01*
Y19271D01*
X6042Y19375D01*
G37*
%LPD*%
G36*
X1875Y19375D02*
X2083Y18854D01*
X1667Y18646D01*
X1458Y18750D01*
Y19271D01*
X1875Y19375D01*
G37*
%LPC*%
G36*
X38750Y20625D02*
X37917Y20521D01*
X37604Y20208D01*
Y19271D01*
X31458Y19062D01*
X31250Y18958D01*
X30417Y18854D01*
X30104Y18542D01*
X30208Y17604D01*
X30312D01*
X30521Y17396D01*
X31458Y17500D01*
X31667Y17812D01*
X31771Y18750D01*
X37812Y18854D01*
X37917Y19062D01*
X38854Y19167D01*
X39167Y19583D01*
X40729D01*
X41354Y18854D01*
X41250Y11979D01*
X38854Y11875D01*
X38958Y11562D01*
X41354Y11667D01*
X41771Y12083D01*
X41667Y19167D01*
X40833Y20000D01*
X39167D01*
X38750Y20625D01*
G37*
%LPD*%
G36*
X30938Y18542D02*
X31250Y18333D01*
X31042Y17812D01*
X30521Y18021D01*
X30729Y18542D01*
X30938D01*
G37*
%LPD*%
G36*
X22708Y18542D02*
X22917Y18021D01*
X22396Y17812D01*
X22188Y18333D01*
X22708Y18542D01*
G37*
%LPD*%
G36*
X19167Y17708D02*
X19375Y17188D01*
X18854Y16979D01*
X18646Y17500D01*
X19167Y17708D01*
G37*
%LPD*%
G36*
X10833Y17708D02*
X11042Y17188D01*
X10521Y16979D01*
X10312Y17396D01*
X10833Y17708D01*
G37*
%LPC*%
G36*
X43542Y17292D02*
X42708Y17188D01*
X42396Y16875D01*
X42500Y15938D01*
X42604D01*
X43021Y15729D01*
X42917Y11771D01*
X42396Y11250D01*
X38854Y11146D01*
Y10938D01*
X42604Y11042D01*
X43438Y11875D01*
X43542Y15833D01*
X43958Y16146D01*
X43854Y16979D01*
X43542Y17292D01*
G37*
%LPD*%
G36*
X43229Y16875D02*
X43542Y16354D01*
X43021Y16146D01*
X42812Y16667D01*
X43229Y16875D01*
G37*
%LPD*%
G36*
X39062Y16875D02*
X39375Y16354D01*
X38854Y16146D01*
X38646Y16667D01*
X39062Y16875D01*
G37*
%LPC*%
G36*
X15833Y26667D02*
X15000Y26562D01*
X14688Y26250D01*
X14792Y25417D01*
X14896D01*
X15208Y25104D01*
X15104Y22396D01*
X14688Y22083D01*
X14583Y21146D01*
X13542Y20104D01*
X9062Y20208D01*
X7917Y21562D01*
X7812Y22292D01*
X6771Y22500D01*
X6354Y22083D01*
X6458Y21250D01*
X6562D01*
X6771Y20938D01*
X7604D01*
X8958Y19479D01*
X13854Y19583D01*
X15104Y20938D01*
X16042Y21042D01*
X16250Y21458D01*
X19062Y21562D01*
X19792Y22396D01*
X25000D01*
X25729Y21562D01*
X25625Y20000D01*
X25104Y19583D01*
X25000Y14375D01*
X23021Y12500D01*
X23125Y7917D01*
X23229D01*
X27500Y3542D01*
X34167Y3646D01*
X34896Y4375D01*
Y6875D01*
X34583D01*
X34479Y4375D01*
X34062Y3958D01*
X27500Y4062D01*
X23438Y8125D01*
X23542Y12396D01*
X25521Y14375D01*
X25625Y19479D01*
X26146Y20000D01*
X26042Y21875D01*
X25104Y22812D01*
X19479Y22708D01*
X18750Y21875D01*
X16250D01*
X15833Y22396D01*
Y25208D01*
X16250Y25521D01*
X16146Y26354D01*
X15833Y26667D01*
G37*
%LPD*%
G36*
X15625Y21979D02*
X15729Y21458D01*
X15208Y21562D01*
X15312Y21979D01*
X15625D01*
G37*
%LPC*%
G36*
X13750Y26667D02*
X12917Y26562D01*
X12604Y26250D01*
X12708Y25417D01*
X12812D01*
X13125Y25104D01*
X13021Y24375D01*
X12708Y24062D01*
X4792Y23958D01*
X3958Y23125D01*
X3854Y22396D01*
X3438Y22083D01*
X3542Y21250D01*
X3646D01*
X3854Y20938D01*
X4792Y21042D01*
X5104Y21771D01*
X4792Y22396D01*
X4583D01*
X4688Y23021D01*
X5104Y23438D01*
X11042D01*
X10938Y22396D01*
X10521Y22083D01*
X10625Y21250D01*
X10729D01*
X10938Y20938D01*
X11875Y21042D01*
X12083Y22083D01*
X11667Y22396D01*
Y23438D01*
X13021Y23542D01*
X13750Y24271D01*
Y25208D01*
X14167Y25521D01*
X14062Y26354D01*
X13750Y26667D01*
G37*
%LPD*%
G36*
X11458Y21979D02*
X11562Y21458D01*
X11042Y21562D01*
X11146Y21979D01*
X11458D01*
G37*
%LPD*%
G36*
X49271Y21458D02*
X49479Y21354D01*
Y20833D01*
X48958D01*
Y21354D01*
X49271Y21458D01*
G37*
%LPD*%
G36*
X7292Y22083D02*
X7500Y21562D01*
X7083Y21354D01*
X6875Y21458D01*
Y21979D01*
X7292Y22083D01*
G37*
%LPD*%
G36*
X4375Y22083D02*
X4583Y21562D01*
X4167Y21354D01*
X3958Y21458D01*
Y21979D01*
X4375Y22083D01*
G37*
%LPD*%
G36*
X33021Y21042D02*
X33333Y20833D01*
X33125Y20312D01*
X32604Y20521D01*
X32812Y21042D01*
X33021D01*
G37*
%LPC*%
G36*
X60625Y23958D02*
X59688Y23854D01*
X59375Y23021D01*
X59479D01*
X59688Y22500D01*
X59896D01*
X60104Y21562D01*
X60208D01*
X61146Y20417D01*
Y19792D01*
X61250D01*
X61562Y19479D01*
X62396Y19583D01*
X62708Y19896D01*
X62604Y20729D01*
X62292Y21042D01*
X61458Y21146D01*
X60625Y21979D01*
X60729Y22604D01*
X61042Y22812D01*
X60938Y23646D01*
X60625Y23958D01*
G37*
%LPD*%
G36*
X61979Y20625D02*
X62188Y20521D01*
Y20000D01*
X61667D01*
Y20521D01*
X61979Y20625D01*
G37*
%LPD*%
G36*
X23958Y21042D02*
X24167Y20521D01*
X23646Y20312D01*
X23438Y20833D01*
X23958Y21042D01*
G37*
%LPC*%
G36*
X47083Y20625D02*
X46146Y20521D01*
X45833Y19688D01*
X45938D01*
X46146Y19167D01*
X46354D01*
X46562Y19062D01*
X46458Y17708D01*
X45104Y16458D01*
X45000Y11875D01*
X43750Y10625D01*
X38854Y10521D01*
Y10312D01*
X43958Y10417D01*
X45521Y11979D01*
X45625Y16354D01*
X46979Y17708D01*
X47083Y19167D01*
X47500Y19479D01*
X47396Y20312D01*
X47083Y20625D01*
G37*
%LPD*%
G36*
X46771Y20208D02*
X46979Y20104D01*
Y19583D01*
X46458D01*
Y20104D01*
X46771Y20208D01*
G37*
%LPD*%
G36*
X38438Y20208D02*
X38750Y19688D01*
X38229Y19479D01*
X38021Y20000D01*
X38438Y20208D01*
G37*
%LPC*%
G36*
X44792Y54583D02*
X44167Y54271D01*
X44271Y53229D01*
X44375D01*
X44583Y53021D01*
X44688Y51146D01*
X44792D01*
X47708Y48125D01*
X52812D01*
X58229Y42604D01*
X58125Y34583D01*
X50729Y27292D01*
Y26667D01*
X50208Y26458D01*
X50104Y25729D01*
X50312Y25208D01*
X50521D01*
X51250Y25104D01*
X51667Y25521D01*
X51562Y26354D01*
X51146Y26667D01*
X51250Y27188D01*
X58646Y34583D01*
X58542Y42917D01*
X52917Y48542D01*
X47708Y48646D01*
X45000Y51354D01*
X45104Y53229D01*
X45312Y53333D01*
X45208Y54375D01*
X44792Y54583D01*
G37*
%LPD*%
G36*
X50938Y26250D02*
X51146Y26146D01*
Y25625D01*
X50625D01*
Y26146D01*
X50938Y26250D01*
G37*
%LPC*%
G36*
X43646Y53333D02*
X42917Y53021D01*
X43021Y51979D01*
X43125D01*
X43542Y51042D01*
X43646D01*
X47292Y47292D01*
X52396D01*
X57396Y42188D01*
X57292Y35000D01*
X50000Y27708D01*
X48958Y27604D01*
X48646Y27292D01*
Y26667D01*
X48125Y26458D01*
X48021Y25729D01*
X48229Y25208D01*
X48438D01*
X49167Y25104D01*
X49583Y25521D01*
X49479Y26354D01*
X49062Y26667D01*
X49167Y27188D01*
X50417Y27500D01*
X57812Y35000D01*
X57708Y42500D01*
X52500Y47708D01*
X47292Y47812D01*
X43750Y51354D01*
Y51875D01*
X44062Y52083D01*
Y53021D01*
X43646Y53333D01*
G37*
%LPD*%
G36*
X48854Y26250D02*
X49062Y26146D01*
Y25625D01*
X48542D01*
Y26146D01*
X48854Y26250D01*
G37*
%LPC*%
G36*
X42396Y54583D02*
X41771Y54375D01*
Y53229D01*
X41875D01*
X42083Y53125D01*
X42188Y51146D01*
X42292D01*
X46875Y46458D01*
X51979D01*
X56562Y41771D01*
X56458Y35417D01*
X49583Y28542D01*
X47708Y28438D01*
X46562Y27292D01*
Y26667D01*
X46042Y26458D01*
X45938Y25729D01*
X46146Y25208D01*
X46354D01*
X47083Y25104D01*
X47500Y25521D01*
X47396Y26354D01*
X46979Y26667D01*
X47083Y27188D01*
X48021Y28125D01*
X49896Y28229D01*
X56979Y35417D01*
X56875Y42083D01*
X52083Y46875D01*
X46875Y46979D01*
X42500Y51354D01*
Y53125D01*
X42812Y53333D01*
Y54271D01*
X42396Y54583D01*
G37*
%LPD*%
G36*
X46771Y26250D02*
X46979Y26146D01*
Y25625D01*
X46458D01*
Y26146D01*
X46771Y26250D01*
G37*
%LPC*%
G36*
X41146Y53333D02*
X40521Y53125D01*
Y51979D01*
X40625D01*
X40833Y51875D01*
X40938Y51146D01*
X41042D01*
X46458Y45625D01*
X51562D01*
X55729Y41354D01*
X55625Y35833D01*
X49167Y29375D01*
X46458Y29271D01*
X44479Y27292D01*
Y26667D01*
X43854Y26250D01*
X43958Y25312D01*
X44062D01*
X44271Y25104D01*
X45104Y25208D01*
X45417Y25521D01*
X45312Y26354D01*
X44896Y26667D01*
X45000Y27188D01*
X46771Y28958D01*
X49479Y29062D01*
X56146Y35833D01*
X56042Y41667D01*
X51667Y46042D01*
X46458Y46146D01*
X41250Y51354D01*
X41354Y51875D01*
X41667Y52188D01*
X41562Y53125D01*
X41146Y53333D01*
G37*
%LPD*%
G36*
X44688Y26250D02*
X45000Y25729D01*
X44479Y25521D01*
X44271Y26042D01*
X44688Y26250D01*
G37*
%LPC*%
G36*
X39896Y54583D02*
X39271Y54375D01*
Y53229D01*
X39375D01*
X39583Y53125D01*
X39688Y51146D01*
X39792D01*
X46042Y44792D01*
X51146D01*
X54896Y40938D01*
X54792Y36250D01*
X48750Y30208D01*
X45208Y30104D01*
X42396Y27292D01*
Y26667D01*
X41771Y26250D01*
X41875Y25312D01*
X41979D01*
X42188Y25104D01*
X43021Y25208D01*
X43333Y25521D01*
X43229Y26354D01*
X42812Y26667D01*
X42917Y27188D01*
X45521Y29792D01*
X49062Y29896D01*
X55312Y36250D01*
X55208Y41250D01*
X51250Y45208D01*
X46042Y45312D01*
X40000Y51354D01*
X40104Y53125D01*
X40417Y53438D01*
X40312Y54375D01*
X39896Y54583D01*
G37*
%LPD*%
G36*
X42604Y26250D02*
X42917Y25729D01*
X42396Y25521D01*
X42188Y26042D01*
X42604Y26250D01*
G37*
%LPC*%
G36*
X38646Y53333D02*
X38021Y53021D01*
Y51979D01*
X38125D01*
X38438Y51771D01*
X38542Y51042D01*
X38646D01*
X45625Y43958D01*
X50729D01*
X54062Y40521D01*
X53958Y36667D01*
X48333Y31042D01*
X43958Y30938D01*
X40312Y27292D01*
Y26667D01*
X39688Y26250D01*
X39792Y25312D01*
X39896D01*
X40104Y25104D01*
X40938Y25208D01*
X41250Y25521D01*
X41146Y26354D01*
X40729Y26667D01*
X40833Y27188D01*
X44271Y30625D01*
X48646Y30729D01*
X54479Y36667D01*
X54375Y40833D01*
X50833Y44375D01*
X45625Y44479D01*
X38854Y51354D01*
X38958Y51979D01*
X39167Y52188D01*
X39062Y53125D01*
X38646Y53333D01*
G37*
%LPD*%
G36*
X40521Y26250D02*
X40833Y25729D01*
X40312Y25521D01*
X40104Y26042D01*
X40521Y26250D01*
G37*
%LPC*%
G36*
X37396Y54583D02*
X36771Y54271D01*
X36875Y53229D01*
X36979D01*
X37188Y53021D01*
X37292Y51042D01*
X37396D01*
X45208Y43125D01*
X50312D01*
X53229Y40104D01*
X53125Y37083D01*
X47917Y31875D01*
X42708Y31771D01*
X38229Y27292D01*
Y26667D01*
X37604Y26250D01*
X37708Y25312D01*
X37812D01*
X38021Y25104D01*
X38854Y25208D01*
X39167Y25521D01*
X39062Y26354D01*
X38646Y26667D01*
X38750Y27188D01*
X43021Y31458D01*
X48229Y31562D01*
X53646Y37083D01*
X53542Y40417D01*
X50417Y43542D01*
X45208Y43646D01*
X37604Y51250D01*
X37708Y53229D01*
X37917Y53333D01*
X37812Y54375D01*
X37396Y54583D01*
G37*
%LPD*%
G36*
X38438Y26250D02*
X38750Y25729D01*
X38229Y25521D01*
X38021Y26042D01*
X38438Y26250D01*
G37*
%LPC*%
G36*
X36250Y53333D02*
X35521Y53021D01*
X35625Y51979D01*
X35729D01*
X35938Y51771D01*
X36042Y51042D01*
X36146D01*
X44792Y42292D01*
X49896D01*
X52396Y39688D01*
X52292Y37500D01*
X47500Y32708D01*
X41458Y32604D01*
X36146Y27292D01*
Y26667D01*
X35521Y26250D01*
X35625Y25312D01*
X35729D01*
X35938Y25104D01*
X36771Y25208D01*
X37083Y25521D01*
X36979Y26354D01*
X36562Y26667D01*
X36667Y27188D01*
X41771Y32292D01*
X47812Y32396D01*
X52812Y37500D01*
X52708Y40000D01*
X50000Y42708D01*
X44792Y42812D01*
X36354Y51250D01*
Y51875D01*
X36667Y52083D01*
Y53021D01*
X36250Y53333D01*
G37*
%LPD*%
G36*
X36354Y26250D02*
X36667Y26042D01*
X36458Y25521D01*
X35938Y25729D01*
X36146Y26250D01*
X36354D01*
G37*
%LPC*%
G36*
X34583Y26667D02*
X33750Y26562D01*
X33438Y26250D01*
X33542Y25312D01*
X33646D01*
X33854Y25104D01*
X34792Y25208D01*
X35000Y26250D01*
X34583Y26667D01*
G37*
%LPD*%
G36*
X34271Y26250D02*
X34583Y26042D01*
X34375Y25521D01*
X33854Y25729D01*
X34062Y26250D01*
X34271D01*
G37*
%LPC*%
G36*
X32500Y26667D02*
X31667Y26562D01*
X31354Y26250D01*
X31458Y25312D01*
X31562D01*
X31979Y25104D01*
X31875Y22917D01*
X27812Y18958D01*
X27917Y7708D01*
X28021D01*
X29688Y5938D01*
X33229D01*
Y5312D01*
X33542D01*
Y6875D01*
X33229D01*
Y6250D01*
X29792Y6458D01*
X28229Y7917D01*
X28333Y18854D01*
X32396Y22917D01*
X32500Y25208D01*
X32917Y25521D01*
X32812Y26354D01*
X32500Y26667D01*
G37*
%LPD*%
G36*
X32188Y26250D02*
X32500Y26042D01*
X32292Y25521D01*
X31771Y25729D01*
X31979Y26250D01*
X32188D01*
G37*
%LPD*%
G36*
X30104Y26250D02*
X30417Y26042D01*
X30208Y25521D01*
X29688Y25729D01*
X29896Y26250D01*
X30104D01*
G37*
%LPC*%
G36*
X28333Y26667D02*
X27500Y26562D01*
X27188Y26250D01*
X27292Y25312D01*
X27396D01*
X27708Y25104D01*
X27604Y23854D01*
X27188Y23542D01*
X27292Y22604D01*
X27396D01*
X27604Y22396D01*
X28542Y22500D01*
X28750Y23542D01*
X28333Y23854D01*
Y25208D01*
X28750Y25521D01*
X28646Y26354D01*
X28333Y26667D01*
G37*
%LPD*%
G36*
X28021Y26250D02*
X28333Y26042D01*
X28125Y25521D01*
X27604Y25729D01*
X27812Y26250D01*
X28021D01*
G37*
%LPC*%
G36*
X36042Y29792D02*
X35208Y29688D01*
X34896Y29167D01*
X26875Y29062D01*
X25729Y27917D01*
Y26667D01*
X25104Y26250D01*
X25208Y25312D01*
X25312D01*
X25521Y25104D01*
X26458Y25208D01*
X26667Y26250D01*
X26146Y26667D01*
X26250Y27812D01*
X27188Y28750D01*
X34896D01*
X35312Y28229D01*
X36146Y28333D01*
X36458Y28646D01*
X36354Y29479D01*
X36042Y29792D01*
G37*
%LPD*%
G36*
X25938Y26250D02*
X26250Y26042D01*
X26042Y25521D01*
X25521Y25729D01*
X25729Y26250D01*
X25938D01*
G37*
%LPC*%
G36*
X37708Y31458D02*
X36875Y31354D01*
X36562Y30833D01*
X26458Y30729D01*
X23646Y27917D01*
Y26667D01*
X23021Y26250D01*
X23125Y25312D01*
X23229D01*
X23438Y25104D01*
X24375Y25208D01*
X24583Y26250D01*
X24062Y26667D01*
X24167Y27812D01*
X26771Y30417D01*
X36562D01*
X36979Y29896D01*
X37812Y30000D01*
X38125Y30312D01*
X38021Y31146D01*
X37708Y31458D01*
G37*
%LPD*%
G36*
X23958Y26250D02*
X24167Y25729D01*
X23646Y25521D01*
X23438Y26042D01*
X23958Y26250D01*
G37*
%LPC*%
G36*
X39375Y33125D02*
X38542Y33021D01*
X38229Y32500D01*
X26042Y32396D01*
X21562Y27917D01*
Y26667D01*
X20938Y26250D01*
X21042Y25312D01*
X21146D01*
X21354Y25104D01*
X22292Y25208D01*
X22500Y26250D01*
X21979Y26667D01*
X22083Y27812D01*
X26354Y32083D01*
X38229D01*
X38646Y31562D01*
X39479Y31667D01*
X39792Y31979D01*
X39688Y32812D01*
X39375Y33125D01*
G37*
%LPD*%
G36*
X21875Y26250D02*
X22083Y25729D01*
X21562Y25521D01*
X21354Y26042D01*
X21875Y26250D01*
G37*
%LPC*%
G36*
X15312Y54583D02*
X14688Y54375D01*
Y53229D01*
X14792D01*
X15000Y53125D01*
X14896Y51562D01*
X14583Y51250D01*
X10417Y51146D01*
X3646Y44375D01*
X3750Y34375D01*
X3854D01*
X7604Y30625D01*
X18021D01*
X19479Y29167D01*
Y26667D01*
X18854Y26250D01*
X18958Y25312D01*
X19062D01*
X19271Y25104D01*
X20208Y25208D01*
X20417Y26250D01*
X19896Y26667D01*
X19792Y29479D01*
X18229Y31042D01*
X7604Y31146D01*
X4062Y34688D01*
X4167Y44271D01*
X10729Y50833D01*
X14896Y50938D01*
X15417Y51458D01*
X15521Y53125D01*
X15833Y53438D01*
X15729Y54375D01*
X15312Y54583D01*
G37*
%LPD*%
G36*
X19792Y26250D02*
X20000Y25729D01*
X19479Y25521D01*
X19271Y26042D01*
X19792Y26250D01*
G37*
%LPC*%
G36*
X14062Y53333D02*
X13438Y53021D01*
X13333Y52292D01*
X10208Y52188D01*
X2812Y44792D01*
X2917Y33958D01*
X3021D01*
X7188Y29792D01*
X16771D01*
X17396Y29167D01*
Y26667D01*
X16771Y26250D01*
X16875Y25417D01*
X16979D01*
X17188Y25104D01*
X18125Y25208D01*
X18333Y26250D01*
X17812Y26667D01*
X17708Y29479D01*
X16979Y30208D01*
X7188Y30312D01*
X3229Y34271D01*
X3333Y44688D01*
X10521Y51875D01*
X13750D01*
X14167Y51771D01*
X14583Y52188D01*
X14479Y53125D01*
X14062Y53333D01*
G37*
%LPD*%
G36*
X17708Y26250D02*
X17917Y25729D01*
X17396Y25521D01*
X17188Y26042D01*
X17708Y26250D01*
G37*
%LPD*%
G36*
X15625Y26250D02*
X15833Y25729D01*
X15312Y25521D01*
X15104Y25938D01*
X15625Y26250D01*
G37*
%LPD*%
G36*
X13542Y26250D02*
X13750Y25729D01*
X13229Y25521D01*
X13021Y25938D01*
X13542Y26250D01*
G37*
%LPD*%
G36*
X11458Y26250D02*
X11667Y25729D01*
X11146Y25521D01*
X10938Y25938D01*
X11458Y26250D01*
G37*
%LPD*%
G36*
X7292Y26250D02*
X7500Y25729D01*
X7083Y25521D01*
X6875Y25625D01*
Y26146D01*
X7292Y26250D01*
G37*
%LPD*%
G36*
X4375Y26250D02*
X4583Y25729D01*
X4167Y25521D01*
X3958Y25625D01*
Y26146D01*
X4375Y26250D01*
G37*
%LPD*%
G36*
X58229Y24167D02*
X58438Y24062D01*
Y23542D01*
X57917D01*
Y24062D01*
X58229Y24167D01*
G37*
%LPD*%
G36*
X54062Y24167D02*
X54271Y24062D01*
Y23542D01*
X53750D01*
Y24062D01*
X54062Y24167D01*
G37*
%LPD*%
G36*
X62396Y23542D02*
X62604Y23438D01*
Y22917D01*
X62083D01*
Y23438D01*
X62396Y23542D01*
G37*
%LPD*%
G36*
X60312Y23542D02*
X60521Y23438D01*
Y22917D01*
X60000D01*
Y23438D01*
X60312Y23542D01*
G37*
%LPC*%
G36*
X60625Y28542D02*
X59688Y28438D01*
X59375Y27604D01*
X59479D01*
X59271Y27083D01*
X54167Y26875D01*
X51771Y24479D01*
X37083Y24375D01*
X36771Y23958D01*
X35833Y23854D01*
X35521Y23542D01*
X35625Y22604D01*
X35729D01*
X35938Y22396D01*
X36771Y22500D01*
X37083Y22812D01*
X37188Y23646D01*
X37396Y23854D01*
X52188Y23958D01*
X54479Y26354D01*
X59479Y26458D01*
X59896Y26979D01*
X60729Y27083D01*
X61042Y27396D01*
X60938Y28229D01*
X60625Y28542D01*
G37*
%LPD*%
G36*
X36354Y23542D02*
X36667Y23333D01*
X36458Y22812D01*
X35938Y23021D01*
X36146Y23542D01*
X36354D01*
G37*
%LPD*%
G36*
X28021Y23542D02*
X28333Y23333D01*
X28125Y22812D01*
X27604Y23021D01*
X27812Y23542D01*
X28021D01*
G37*
%LPC*%
G36*
X48542Y53333D02*
X47917Y53125D01*
Y51979D01*
X48021D01*
X48229Y51875D01*
X48333Y51250D01*
X48438D01*
X48958Y50625D01*
X54062D01*
X60729Y43854D01*
X60625Y30833D01*
X58958Y29167D01*
X55833D01*
X55417Y29792D01*
X54479Y29688D01*
X54167Y28854D01*
X54271D01*
X54479Y28333D01*
X54688D01*
X55417Y28229D01*
X55833Y28750D01*
X59271Y28854D01*
X61146Y30833D01*
X61042Y44167D01*
X54167Y51042D01*
X48958Y51146D01*
X48646Y51458D01*
Y51875D01*
X48958Y52083D01*
Y53021D01*
X48542Y53333D01*
G37*
%LPD*%
G36*
X55104Y29375D02*
X55312Y29271D01*
Y28750D01*
X54792D01*
Y29271D01*
X55104Y29375D01*
G37*
%LPD*%
G36*
X35729Y29375D02*
X36042Y29167D01*
X35833Y28646D01*
X35312Y28854D01*
X35521Y29375D01*
X35729D01*
G37*
%LPD*%
G36*
X62396Y28125D02*
X62604Y28021D01*
Y27500D01*
X62083D01*
Y28021D01*
X62396Y28125D01*
G37*
%LPD*%
G36*
X60312Y28125D02*
X60521Y28021D01*
Y27500D01*
X60000D01*
Y28021D01*
X60312Y28125D01*
G37*
%LPC*%
G36*
X46042Y53333D02*
X45417Y53021D01*
Y51979D01*
X45521D01*
X45729Y51875D01*
X45833Y51250D01*
X45938D01*
X48125Y48958D01*
X53229D01*
X59062Y43021D01*
X58958Y33125D01*
X57812Y33021D01*
X57500Y32188D01*
X57604D01*
X57812Y31667D01*
X58021D01*
X58750Y31562D01*
X59167Y31979D01*
X59271Y32917D01*
X59479Y33125D01*
X59375Y43333D01*
X53333Y49375D01*
X48125Y49479D01*
X46146Y51458D01*
X46354Y51979D01*
X46562Y52188D01*
X46458Y53125D01*
X46042Y53333D01*
G37*
%LPD*%
G36*
X58438Y32708D02*
X58646Y32604D01*
Y32083D01*
X58125D01*
Y32604D01*
X58438Y32708D01*
G37*
%LPD*%
G36*
X39062Y32708D02*
X39375Y32188D01*
X38854Y31979D01*
X38646Y32500D01*
X39062Y32708D01*
G37*
%LPC*%
G36*
X47292Y54583D02*
X46667Y54375D01*
Y53229D01*
X46771D01*
X46979Y53125D01*
X47083Y51250D01*
X47188D01*
X48542Y49792D01*
X53646D01*
X59896Y43438D01*
X59792Y31667D01*
X58958Y30833D01*
X57500D01*
X57083Y31458D01*
X56146Y31354D01*
X55833Y30521D01*
X55938D01*
X56146Y30000D01*
X56354D01*
X57083Y29896D01*
X57500Y30417D01*
X59271Y30521D01*
X60312Y31667D01*
X60208Y43750D01*
X53750Y50208D01*
X48542Y50312D01*
X47396Y51458D01*
X47500Y53125D01*
X47812Y53438D01*
X47708Y54375D01*
X47292Y54583D01*
G37*
%LPD*%
G36*
X56771Y31042D02*
X56979Y30938D01*
Y30417D01*
X56458D01*
Y30938D01*
X56771Y31042D01*
G37*
%LPD*%
G36*
X37396Y31042D02*
X37708Y30521D01*
X37188Y30312D01*
X36979Y30833D01*
X37396Y31042D01*
G37*
%LPC*%
G36*
X44896Y35521D02*
X44167Y35417D01*
X44375Y35208D01*
X44792Y35312D01*
X44583Y34792D01*
X44167Y34583D01*
Y34271D01*
X45000Y34375D01*
X44583Y34583D01*
X45000Y35000D01*
X44896Y35521D01*
G37*
%LPC*%
G36*
X30729Y35208D02*
X30104D01*
Y34271D01*
X30312Y34375D01*
X30417Y34896D01*
X30729Y35208D01*
G37*
%LPC*%
G36*
X40833Y35208D02*
X40312Y35000D01*
X40208Y35104D01*
Y34271D01*
X40521Y35000D01*
X40833D01*
Y35208D01*
G37*
%LPC*%
G36*
X38750Y35208D02*
X38229Y35000D01*
X38125Y35104D01*
Y34271D01*
X38438Y35000D01*
X38750D01*
Y35208D01*
G37*
%LPC*%
G36*
X27708Y35521D02*
X26979D01*
Y34271D01*
X27708Y34375D01*
Y35521D01*
G37*
%LPD*%
G36*
X27604Y35312D02*
Y35104D01*
X27500D01*
Y35000D01*
X27188D01*
Y35312D01*
X27604D01*
G37*
%LPC*%
G36*
X41875Y35208D02*
X41250Y35104D01*
X41146Y34479D01*
X41354D01*
Y34271D01*
X41875Y34375D01*
X41458Y34479D01*
Y34688D01*
X42083D01*
X41875Y35208D01*
G37*
%LPD*%
G36*
X41875Y35000D02*
Y34896D01*
X41458D01*
Y35000D01*
X41875D01*
G37*
%LPC*%
G36*
X37708Y35208D02*
X37083Y35104D01*
X36979Y34479D01*
X37188D01*
Y34271D01*
X37708Y34375D01*
X37292Y34479D01*
Y34688D01*
X37917D01*
X37708Y35208D01*
G37*
%LPD*%
G36*
X37708Y35000D02*
Y34896D01*
X37292D01*
Y35000D01*
X37708D01*
G37*
%LPC*%
G36*
X43125Y35208D02*
X42812Y35000D01*
X42604Y34688D01*
X42292Y35208D01*
X42604Y34271D01*
X43125Y35208D01*
G37*
%LPC*%
G36*
X35833Y35208D02*
X35000Y35104D01*
Y34792D01*
X35104D01*
X35521Y34688D01*
Y34479D01*
X35000D01*
Y34271D01*
X35729Y34375D01*
Y34792D01*
X35208Y35000D01*
X35833D01*
Y35208D01*
G37*
%LPC*%
G36*
X47917Y35208D02*
X47812Y34479D01*
X47292Y34583D01*
Y35208D01*
X47083D01*
X47188Y34375D01*
X47292D01*
X47917Y34271D01*
Y35208D01*
G37*
%LPC*%
G36*
X46771Y35521D02*
X46042Y35417D01*
X46146Y34375D01*
X46250D01*
X46771Y34271D01*
X46979Y34479D01*
X46875Y35417D01*
X46771Y35521D01*
G37*
%LPD*%
G36*
X46667Y35312D02*
Y34479D01*
X46250Y34583D01*
Y35312D01*
X46667D01*
G37*
%LPC*%
G36*
X34583Y35208D02*
X34062D01*
Y35000D01*
X34583D01*
X34062Y34896D01*
X33854Y34479D01*
X34062D01*
Y34271D01*
X34792Y34375D01*
X34688Y35104D01*
X34583Y35208D01*
G37*
%LPD*%
G36*
X34583Y34688D02*
Y34479D01*
X34167D01*
Y34688D01*
X34583D01*
G37*
%LPC*%
G36*
X31458Y35312D02*
X31146Y35000D01*
X31250D01*
Y34479D01*
X31458D01*
X31667Y34375D01*
X31458Y35000D01*
X31667Y35208D01*
X31458Y35312D01*
G37*
%LPC*%
G36*
X29792Y35208D02*
X29271D01*
Y35000D01*
X29688D01*
X29062Y34688D01*
X29271Y34271D01*
X29896D01*
X29792Y35208D01*
G37*
%LPD*%
G36*
X29688Y34688D02*
Y34479D01*
X29375D01*
Y34688D01*
X29688D01*
G37*
%LPD*%
G36*
X27604Y34792D02*
Y34583D01*
X27500D01*
Y34479D01*
X27188D01*
Y34792D01*
X27604D01*
G37*
%LPC*%
G36*
X32812Y35521D02*
X31979D01*
Y34375D01*
X32188D01*
Y34792D01*
X32500D01*
X32188Y35312D01*
X32812D01*
Y35521D01*
G37*
%LPC*%
G36*
X45521Y34688D02*
X45208D01*
Y34271D01*
X45521D01*
Y34688D01*
G37*
%LPC*%
G36*
X43646Y34688D02*
X43229D01*
X43333Y34271D01*
X43646Y34375D01*
Y34688D01*
G37*
%LPC*%
G36*
X36146Y35521D02*
X35938Y35417D01*
X36042Y34271D01*
X36250Y35000D01*
X36667D01*
Y34375D01*
X36875D01*
X36771Y35104D01*
X36146Y35208D01*
Y35521D01*
G37*
%LPC*%
G36*
X33438Y35521D02*
X33125Y35417D01*
X33229Y34479D01*
X33125Y34375D01*
X33542Y34271D01*
X33438Y35521D01*
G37*
%LPC*%
G36*
X28750Y35521D02*
X28021Y35417D01*
X28125Y34375D01*
X28229D01*
X28646Y34271D01*
X28854Y34688D01*
X28333Y34583D01*
X28229Y35312D01*
X28646D01*
X28854Y35208D01*
X28750Y35521D01*
G37*
%LPC*%
G36*
X26667Y35521D02*
X25938Y35417D01*
X26042Y34375D01*
X26146D01*
X26562Y34271D01*
X26771Y35000D01*
X26354D01*
X26562Y34583D01*
X26146D01*
Y35312D01*
X26562D01*
X26771Y35208D01*
X26667Y35521D01*
G37*
%LPC*%
G36*
X50000Y41250D02*
X49062Y41146D01*
X48750Y40312D01*
X48854D01*
X49062Y39792D01*
X49271D01*
X50000Y39583D01*
X50312Y39062D01*
X50000Y38229D01*
X50104D01*
X50312Y37708D01*
X50521D01*
X51250Y37604D01*
X51667Y38021D01*
X51562Y38854D01*
X50729Y40000D01*
X50417Y40208D01*
X50312Y40938D01*
X50000Y41250D01*
G37*
%LPD*%
G36*
X50938Y38750D02*
X51146Y38646D01*
Y38125D01*
X50625D01*
Y38646D01*
X50938Y38750D01*
G37*
%LPC*%
G36*
X35000Y54583D02*
X34375Y54375D01*
Y53229D01*
X34479D01*
X34688Y53125D01*
X34792Y51042D01*
X34896D01*
X44375Y41458D01*
X46354D01*
X48438Y39167D01*
X47917Y38542D01*
X48125Y37812D01*
X48229D01*
X48438Y37604D01*
X49271Y37708D01*
X49583Y38021D01*
X49479Y38854D01*
X46458Y41875D01*
X44375Y41979D01*
X35104Y51250D01*
Y53125D01*
X35417Y53333D01*
Y54271D01*
X35000Y54583D01*
G37*
%LPD*%
G36*
X48854Y38750D02*
X49062Y38646D01*
Y38125D01*
X48542D01*
Y38646D01*
X48854Y38750D01*
G37*
%LPC*%
G36*
X33750Y53333D02*
X33125Y53125D01*
Y51979D01*
X33229D01*
X33438Y51875D01*
X33542Y51042D01*
X33646D01*
X44375Y40208D01*
X45521D01*
X46354Y39167D01*
X45833Y38542D01*
X46042Y37812D01*
X46146D01*
X46354Y37604D01*
X47188Y37708D01*
X47500Y38021D01*
X47396Y38854D01*
X45625Y40625D01*
X44375Y40729D01*
X33854Y51250D01*
X33958Y51875D01*
X34271Y52188D01*
X34167Y53125D01*
X33750Y53333D01*
G37*
%LPD*%
G36*
X46771Y38750D02*
X46979Y38646D01*
Y38125D01*
X46458D01*
Y38646D01*
X46771Y38750D01*
G37*
%LPC*%
G36*
X32500Y54583D02*
X31875Y54271D01*
Y53229D01*
X31979D01*
X32292Y53021D01*
X32396Y50938D01*
X32500D01*
X44167Y39062D01*
X43854Y38750D01*
X43958Y37812D01*
X44062D01*
X44271Y37604D01*
X45104Y37708D01*
X45417Y38021D01*
X45312Y38854D01*
X44167Y39688D01*
X32708Y51250D01*
X32812Y53229D01*
X33021Y53438D01*
X32917Y54375D01*
X32500Y54583D01*
G37*
%LPD*%
G36*
X44688Y38750D02*
X45000Y38229D01*
X44479Y38021D01*
X44271Y38542D01*
X44688Y38750D01*
G37*
%LPC*%
G36*
X31250Y53333D02*
X30625Y53021D01*
X30729Y51979D01*
X30833D01*
X31042Y51771D01*
X31146Y50938D01*
X31250D01*
X42396Y39688D01*
Y39167D01*
X41771Y38750D01*
X41875Y37812D01*
X41979D01*
X42188Y37604D01*
X43021Y37708D01*
X43333Y38021D01*
X43229Y38854D01*
X42812Y39167D01*
X42708Y40000D01*
X31458Y51146D01*
X31562Y51979D01*
X31771Y52083D01*
X31667Y53125D01*
X31250Y53333D01*
G37*
%LPD*%
G36*
X42604Y38750D02*
X42917Y38229D01*
X42396Y38021D01*
X42188Y38542D01*
X42604Y38750D01*
G37*
%LPC*%
G36*
X30104Y54583D02*
X29375Y54271D01*
X29479Y53229D01*
X29583D01*
X29792Y53021D01*
X29896Y50938D01*
X30000D01*
X40312Y40521D01*
Y39167D01*
X39688Y38750D01*
X39792Y37812D01*
X39896D01*
X40104Y37604D01*
X40938Y37708D01*
X41250Y38021D01*
X41146Y38854D01*
X40729Y39167D01*
X40625Y40833D01*
X30208Y51146D01*
Y53125D01*
X30521Y53333D01*
Y54271D01*
X30104Y54583D01*
G37*
%LPD*%
G36*
X40521Y38750D02*
X40833Y38229D01*
X40312Y38021D01*
X40104Y38542D01*
X40521Y38750D01*
G37*
%LPC*%
G36*
X28854Y53333D02*
X28229Y53125D01*
Y51979D01*
X28333D01*
X28542Y51875D01*
X28646Y50938D01*
X28750D01*
X38229Y41354D01*
Y39167D01*
X37604Y38750D01*
X37708Y37812D01*
X37812D01*
X38021Y37604D01*
X38854Y37708D01*
X39167Y38021D01*
X39062Y38854D01*
X38646Y39167D01*
X38542Y41667D01*
X28958Y51250D01*
Y51875D01*
X29271Y52083D01*
Y53021D01*
X28854Y53333D01*
G37*
%LPD*%
G36*
X38438Y38750D02*
X38750Y38229D01*
X38229Y38021D01*
X38021Y38542D01*
X38438Y38750D01*
G37*
%LPC*%
G36*
X27604Y54583D02*
X26979Y54271D01*
Y53229D01*
X27083D01*
X27292Y53125D01*
X27396Y50938D01*
X27500D01*
X36146Y42188D01*
Y39167D01*
X35521Y38750D01*
X35625Y37812D01*
X35729D01*
X35938Y37604D01*
X36771Y37708D01*
X37083Y38021D01*
X36979Y38854D01*
X36562Y39167D01*
X36458Y42500D01*
X27708Y51146D01*
X27812Y53125D01*
X28125Y53438D01*
X28021Y54375D01*
X27604Y54583D01*
G37*
%LPD*%
G36*
X36354Y38750D02*
X36667Y38542D01*
X36458Y38021D01*
X35938Y38229D01*
X36146Y38750D01*
X36354D01*
G37*
%LPC*%
G36*
X26354Y53333D02*
X25729Y53021D01*
Y51979D01*
X25833D01*
X26146Y51771D01*
X26250Y50833D01*
X26354D01*
X34062Y43021D01*
Y39167D01*
X33438Y38750D01*
X33542Y37812D01*
X33646D01*
X33854Y37604D01*
X34792Y37708D01*
X35000Y38750D01*
X34479Y39167D01*
X34375Y43333D01*
X26562Y51146D01*
X26667Y51979D01*
X26875Y52083D01*
X26771Y53125D01*
X26354Y53333D01*
G37*
%LPD*%
G36*
X34271Y38750D02*
X34583Y38542D01*
X34375Y38021D01*
X33854Y38229D01*
X34062Y38750D01*
X34271D01*
G37*
%LPC*%
G36*
X32500Y39167D02*
X31667Y39062D01*
X31354Y38750D01*
X31458Y37812D01*
X31562D01*
X31771Y37604D01*
X32708Y37708D01*
X32917Y38750D01*
X32500Y39167D01*
G37*
%LPD*%
G36*
X32188Y38750D02*
X32500Y38542D01*
X32292Y38021D01*
X31771Y38229D01*
X31979Y38750D01*
X32188D01*
G37*
%LPC*%
G36*
X30417Y39167D02*
X29583Y39062D01*
X29271Y38750D01*
X29375Y37812D01*
X29479D01*
X29688Y37604D01*
X30625Y37708D01*
X30833Y38750D01*
X30417Y39167D01*
G37*
%LPD*%
G36*
X30104Y38750D02*
X30417Y38542D01*
X30208Y38021D01*
X29688Y38229D01*
X29896Y38750D01*
X30104D01*
G37*
%LPC*%
G36*
X28333Y39167D02*
X27500Y39062D01*
X27188Y38750D01*
X27292Y37812D01*
X27396D01*
X27604Y37604D01*
X28542Y37708D01*
X28750Y38750D01*
X28333Y39167D01*
G37*
%LPD*%
G36*
X28021Y38750D02*
X28333Y38542D01*
X28125Y38021D01*
X27604Y38229D01*
X27812Y38750D01*
X28021D01*
G37*
%LPC*%
G36*
X16562Y53333D02*
X15938Y53125D01*
Y51979D01*
X16042D01*
X16250Y51875D01*
X16146Y51354D01*
X15208Y50417D01*
X10833Y50312D01*
X4479Y43958D01*
X4583Y34792D01*
X4688D01*
X8021Y31458D01*
X20938Y31562D01*
X26146Y36875D01*
X26250Y37708D01*
X26667Y38021D01*
X26562Y38854D01*
X26250Y39167D01*
X25417Y39062D01*
X25104Y38750D01*
X25208Y37812D01*
X25312D01*
X25729Y37604D01*
X25625Y36875D01*
X20625Y31875D01*
X8021Y31979D01*
X4896Y35104D01*
X5000Y43854D01*
X11146Y50000D01*
X15521Y50104D01*
X16667Y51250D01*
Y51875D01*
X16979Y52083D01*
Y53021D01*
X16562Y53333D01*
G37*
%LPD*%
G36*
X25938Y38750D02*
X26250Y38542D01*
X26042Y38021D01*
X25521Y38229D01*
X25729Y38750D01*
X25938D01*
G37*
%LPC*%
G36*
X17812Y54583D02*
X17188Y54375D01*
Y53229D01*
X17292D01*
X17500Y53125D01*
X17396Y51146D01*
X15833Y49583D01*
X11250Y49479D01*
X5312Y43542D01*
X5417Y35208D01*
X5521D01*
X8438Y32292D01*
X19688Y32396D01*
X24062Y36875D01*
X24167Y37708D01*
X24583Y38021D01*
X24479Y38854D01*
X24167Y39167D01*
X23333Y39062D01*
X23021Y38750D01*
X23125Y37812D01*
X23229D01*
X23646Y37604D01*
X23542Y36875D01*
X19375Y32708D01*
X8438Y32812D01*
X5729Y35521D01*
X5833Y43438D01*
X11562Y49167D01*
X16146Y49271D01*
X17917Y51042D01*
Y53125D01*
X18229Y53333D01*
Y54271D01*
X17812Y54583D01*
G37*
%LPD*%
G36*
X23958Y38750D02*
X24167Y38229D01*
X23646Y38021D01*
X23438Y38542D01*
X23958Y38750D01*
G37*
%LPC*%
G36*
X19062Y53333D02*
X18333Y53021D01*
X18438Y51979D01*
X18542D01*
X18750Y51771D01*
X18646Y50938D01*
X16458Y48750D01*
X11667Y48646D01*
X6146Y43125D01*
X6250Y35625D01*
X6354D01*
X8854Y33125D01*
X18438Y33229D01*
X21979Y36875D01*
X22083Y37708D01*
X22500Y38021D01*
X22396Y38854D01*
X22083Y39167D01*
X21250Y39062D01*
X20938Y38750D01*
X21042Y37812D01*
X21146D01*
X21562Y37604D01*
X21458Y36875D01*
X18125Y33542D01*
X8854Y33646D01*
X6562Y35938D01*
X6667Y43021D01*
X11979Y48333D01*
X16771Y48438D01*
X19167Y50833D01*
X19271Y51979D01*
X19479Y52083D01*
X19375Y53125D01*
X19062Y53333D01*
G37*
%LPD*%
G36*
X21875Y38750D02*
X22083Y38229D01*
X21562Y38021D01*
X21354Y38542D01*
X21875Y38750D01*
G37*
%LPC*%
G36*
X20208Y54583D02*
X19583Y54271D01*
Y53229D01*
X19688D01*
X20000Y53021D01*
X19896Y50729D01*
X17083Y47917D01*
X12083Y47812D01*
X6979Y42708D01*
X7083Y36042D01*
X7188D01*
X9271Y33958D01*
X17188Y34062D01*
X19896Y36771D01*
X20000Y37708D01*
X20417Y38021D01*
X20312Y38854D01*
X20000Y39167D01*
X19167Y39062D01*
X18854Y38750D01*
X18958Y37812D01*
X19062D01*
X19479Y37604D01*
X19375Y36875D01*
X16875Y34375D01*
X9271Y34479D01*
X7396Y36354D01*
X7500Y42604D01*
X12396Y47500D01*
X17396Y47604D01*
X20417Y50625D01*
X20521Y53229D01*
X20729Y53333D01*
X20625Y54375D01*
X20208Y54583D01*
G37*
%LPD*%
G36*
X19792Y38750D02*
X20000Y38229D01*
X19479Y38021D01*
X19271Y38542D01*
X19792Y38750D01*
G37*
%LPC*%
G36*
X21458Y53333D02*
X20833Y53021D01*
Y51979D01*
X20938D01*
X21146Y51875D01*
X21042Y50417D01*
X17708Y47083D01*
X12500Y46979D01*
X7812Y42292D01*
X7917Y36458D01*
X8021D01*
X9688Y34792D01*
X15938Y34896D01*
X17812Y36771D01*
X17917Y37708D01*
X18333Y38021D01*
X18229Y38854D01*
X17917Y39167D01*
X17083Y39062D01*
X16771Y38750D01*
X16875Y37917D01*
X16979D01*
X17396Y37604D01*
X17292Y36875D01*
X15625Y35208D01*
X9688Y35312D01*
X8229Y36771D01*
X8333Y42188D01*
X12812Y46667D01*
X18021Y46771D01*
X21562Y50312D01*
X21667Y51875D01*
X21979Y52188D01*
X21875Y53125D01*
X21458Y53333D01*
G37*
%LPD*%
G36*
X17708Y38750D02*
X17917Y38229D01*
X17396Y38021D01*
X17188Y38542D01*
X17708Y38750D01*
G37*
%LPC*%
G36*
X22708Y54583D02*
X22083Y54375D01*
Y53229D01*
X22188D01*
X22396Y53125D01*
X22292Y50208D01*
X18333Y46250D01*
X12917Y46146D01*
X8646Y41875D01*
X8750Y36875D01*
X8854D01*
X10104Y35625D01*
X14688Y35729D01*
X15729Y36771D01*
X15833Y37708D01*
X16250Y38021D01*
X16146Y38854D01*
X15833Y39167D01*
X15000Y39062D01*
X14688Y38750D01*
X14792Y37917D01*
X14896D01*
X15312Y37604D01*
X15208Y36875D01*
X14375Y36042D01*
X10104Y36146D01*
X9062Y37188D01*
X9167Y41771D01*
X13229Y45833D01*
X18646Y45938D01*
X22812Y50104D01*
X22917Y53125D01*
X23229Y53542D01*
X23021Y54375D01*
X22708Y54583D01*
G37*
%LPD*%
G36*
X15625Y38750D02*
X15833Y38229D01*
X15312Y38021D01*
X15104Y38438D01*
X15625Y38750D01*
G37*
%LPC*%
G36*
X23958Y53333D02*
X23229Y53021D01*
X23333Y51979D01*
X23438D01*
X23646Y51771D01*
X23542Y50000D01*
X18958Y45417D01*
X13333Y45312D01*
X9479Y41458D01*
X9583Y37292D01*
X9688D01*
X10521Y36458D01*
X13438Y36562D01*
X13646Y36771D01*
X13750Y37708D01*
X14167Y38021D01*
X14062Y38854D01*
X13750Y39167D01*
X12917Y39062D01*
X12604Y38750D01*
X12708Y37917D01*
X12812D01*
X13229Y37604D01*
X13125Y36875D01*
X10521Y36979D01*
X9896Y37604D01*
X10000Y41354D01*
X13646Y45000D01*
X19271Y45104D01*
X24062Y49896D01*
Y51875D01*
X24375Y52083D01*
Y53021D01*
X23958Y53333D01*
G37*
%LPD*%
G36*
X13542Y38750D02*
X13750Y38229D01*
X13229Y38021D01*
X13021Y38438D01*
X13542Y38750D01*
G37*
%LPC*%
G36*
X25208Y54583D02*
X24479Y54271D01*
X24583Y53229D01*
X24688D01*
X24896Y53021D01*
X24792Y49792D01*
X19583Y44583D01*
X13750Y44479D01*
X11146Y41875D01*
Y39167D01*
X10521Y38750D01*
X10625Y37917D01*
X10729D01*
X10938Y37604D01*
X11875Y37708D01*
X12083Y38750D01*
X11562Y39167D01*
X11667Y41771D01*
X14062Y44167D01*
X19896Y44271D01*
X25312Y49792D01*
X25417Y53229D01*
X25625Y53333D01*
X25521Y54375D01*
X25208Y54583D01*
G37*
%LPD*%
G36*
X11458Y38750D02*
X11667Y38229D01*
X11146Y38021D01*
X10938Y38438D01*
X11458Y38750D01*
G37*
%LPD*%
G36*
X62396Y40833D02*
X62604Y40729D01*
Y40208D01*
X62083D01*
Y40729D01*
X62396Y40833D01*
G37*
%LPD*%
G36*
X49688Y40833D02*
X49896Y40729D01*
Y40208D01*
X49375D01*
Y40729D01*
X49688Y40833D01*
G37*
%LPC*%
G36*
X26458Y49479D02*
X26042Y49375D01*
X19896Y43021D01*
X14271Y42917D01*
X12708Y41354D01*
X12812Y39896D01*
X33125Y40000D01*
X33021Y42917D01*
X26458Y49479D01*
G37*
%LPD*%
G36*
X51042Y52812D02*
Y52292D01*
X50521Y52396D01*
X50625Y52812D01*
X51042D01*
G37*
%LPD*%
G36*
X48646Y52812D02*
Y52292D01*
X48125Y52396D01*
X48229Y52812D01*
X48646D01*
G37*
%LPD*%
G36*
X46146Y52812D02*
Y52292D01*
X45625Y52396D01*
X45729Y52812D01*
X46146D01*
G37*
%LPD*%
G36*
X43750Y52812D02*
Y52292D01*
X43229D01*
X43333Y52812D01*
X43750D01*
G37*
%LPD*%
G36*
X41250Y52812D02*
Y52292D01*
X40729Y52396D01*
X40833Y52812D01*
X41250D01*
G37*
%LPD*%
G36*
X38750Y52812D02*
Y52292D01*
X38229Y52396D01*
X38333Y52812D01*
X38750D01*
G37*
%LPD*%
G36*
X36354Y52812D02*
Y52292D01*
X35833D01*
X35938Y52812D01*
X36354D01*
G37*
%LPD*%
G36*
X33854Y52812D02*
Y52292D01*
X33333Y52396D01*
X33438Y52812D01*
X33854D01*
G37*
%LPD*%
G36*
X31354Y52812D02*
Y52292D01*
X30938D01*
Y52812D01*
X31354D01*
G37*
%LPD*%
G36*
X28958Y52812D02*
Y52292D01*
X28438Y52396D01*
X28542Y52812D01*
X28958D01*
G37*
%LPD*%
G36*
X26458Y52812D02*
Y52292D01*
X25938Y52396D01*
X26042Y52812D01*
X26458D01*
G37*
%LPD*%
G36*
X24062Y52812D02*
Y52292D01*
X23542D01*
X23646Y52812D01*
X24062D01*
G37*
%LPD*%
G36*
X21562Y52812D02*
Y52292D01*
X21042Y52396D01*
X21146Y52812D01*
X21562D01*
G37*
%LPD*%
G36*
X19062Y52812D02*
X19167Y52292D01*
X18646D01*
X18750Y52812D01*
X19062D01*
G37*
%LPD*%
G36*
X16667Y52812D02*
Y52292D01*
X16146Y52396D01*
X16250Y52812D01*
X16667D01*
G37*
%LPD*%
G36*
X14167Y52812D02*
Y52292D01*
X13646Y52396D01*
X13750Y52812D01*
X14167D01*
G37*
%LPD*%
G36*
X57917Y56250D02*
X58958Y55312D01*
Y53854D01*
X58125Y53021D01*
X56771D01*
X55938Y53750D01*
X55729Y54896D01*
X56354Y55938D01*
X56979Y56250D01*
X57917D01*
G37*
%LPD*%
G36*
X6667Y56250D02*
X7708Y55417D01*
Y53750D01*
X6875Y53021D01*
X5521D01*
X4688Y53750D01*
Y55417D01*
X5521Y56146D01*
X6667Y56250D01*
G37*
%LPC*%
G36*
X49792Y54583D02*
X49062Y54271D01*
X49167Y53229D01*
X49271D01*
X49375Y53021D01*
X50000Y53125D01*
X50208Y53333D01*
X50104Y54375D01*
X49792Y54583D01*
G37*
%LPD*%
G36*
X49792Y54062D02*
Y53438D01*
X49375Y53542D01*
X49479Y54062D01*
X49792D01*
G37*
%LPD*%
G36*
X47396Y54062D02*
Y53542D01*
X46979D01*
Y54062D01*
X47396D01*
G37*
%LPD*%
G36*
X44896Y54062D02*
X45000Y53542D01*
X44479D01*
X44583Y54062D01*
X44896D01*
G37*
%LPD*%
G36*
X42396Y54062D02*
X42604Y53646D01*
X42188Y53438D01*
X41979Y53958D01*
X42396Y54062D01*
G37*
%LPD*%
G36*
X40000Y54062D02*
Y53542D01*
X39583D01*
Y54062D01*
X40000D01*
G37*
%LPD*%
G36*
X37500Y54062D02*
X37604Y53542D01*
X37083D01*
X37188Y54062D01*
X37500D01*
G37*
%LPD*%
G36*
X35000Y54062D02*
X35208Y53646D01*
X34792Y53438D01*
X34583Y53958D01*
X35000Y54062D01*
G37*
%LPD*%
G36*
X32604Y54062D02*
X32708Y53542D01*
X32188D01*
Y53958D01*
X32604Y54062D01*
G37*
%LPD*%
G36*
X30104Y54062D02*
X30312Y53646D01*
X29896Y53438D01*
X29688Y53542D01*
X29792Y54062D01*
X30104D01*
G37*
%LPD*%
G36*
X27708Y54062D02*
Y53542D01*
X27292D01*
Y54062D01*
X27708D01*
G37*
%LPD*%
G36*
X25208Y54062D02*
Y53438D01*
X24792Y53542D01*
X24896Y54062D01*
X25208D01*
G37*
%LPD*%
G36*
X22812Y54062D02*
Y53542D01*
X22396D01*
Y54062D01*
X22812D01*
G37*
%LPD*%
G36*
X20312Y54062D02*
X20417Y53542D01*
X19896D01*
Y53958D01*
X20312Y54062D01*
G37*
%LPD*%
G36*
X17812Y54062D02*
X18021Y53646D01*
X17604Y53438D01*
X17396Y53542D01*
X17500Y54062D01*
X17812D01*
G37*
%LPD*%
G36*
X15417Y54062D02*
Y53542D01*
X15000D01*
Y54062D01*
X15417D01*
G37*
%LPD*%
G36*
X12917Y54062D02*
X13021Y53542D01*
X12500D01*
Y53958D01*
X12917Y54062D01*
G37*
%LPD*%
G36*
X57812Y61146D02*
X58646Y60417D01*
X58542Y59271D01*
X58021Y58750D01*
X56875D01*
X56250Y59375D01*
Y60417D01*
X56771Y61042D01*
X57812Y61146D01*
G37*
%LPD*%
G36*
X6562Y61146D02*
X7396Y60417D01*
X7292Y59271D01*
X6771Y58750D01*
X5625D01*
X5104Y59271D01*
Y60625D01*
X5521Y61042D01*
X6562Y61146D01*
G37*
%LPD*%
G36*
X57812Y66042D02*
X58229Y65625D01*
X58125Y64688D01*
X57083Y64479D01*
X56562Y65000D01*
X56771Y65833D01*
X57812Y66042D01*
G37*
%LPD*%
G36*
X6562Y66042D02*
X6979Y65625D01*
X6875Y64688D01*
X5833Y64479D01*
X5417Y64896D01*
X5521Y65833D01*
X6562Y66042D01*
G37*
%LPD*%
G36*
X63750Y68958D02*
Y68854D01*
X104D01*
Y68958D01*
X63750D01*
G37*
D02M02*
